SplineFontDB: 3.0
FontName: Chicle-Regular
FullName: Chicle Regular
FamilyName: Chicle
Weight: Book
Copyright: Copyright (c) 2007 Angel Koziupa (sudtipos@sudtipos.com),\nCopyright (c) 2007 Alejandro Paul (sudtipos@sudtipos.com),\nwith Reserved Font Name "Chicle"
Version: 1.000
ItalicAngle: 0
UnderlinePosition: -50
UnderlineWidth: 50
Ascent: 800
Descent: 200
sfntRevision: 0x00010000
LayerCount: 2
Layer: 0 1 "Back"  1
Layer: 1 1 "Fore"  0
XUID: [1021 288 713564382 9886729]
FSType: 0
OS2Version: 2
OS2_WeightWidthSlopeOnly: 0
OS2_UseTypoMetrics: 1
CreationTime: 1322171067
ModificationTime: 1322196342
PfmFamily: 17
TTFWeight: 400
TTFWidth: 5
LineGap: 0
VLineGap: 0
Panose: 2 0 5 6 0 0 0 2 0 3
OS2TypoAscent: 115
OS2TypoAOffset: 1
OS2TypoDescent: -94
OS2TypoDOffset: 1
OS2TypoLinegap: 0
OS2WinAscent: 0
OS2WinAOffset: 1
OS2WinDescent: 0
OS2WinDOffset: 1
HheadAscent: 0
HheadAOffset: 1
HheadDescent: 0
HheadDOffset: 1
OS2SubXSize: 700
OS2SubYSize: 650
OS2SubXOff: 0
OS2SubYOff: 140
OS2SupXSize: 700
OS2SupYSize: 650
OS2SupXOff: 0
OS2SupYOff: 477
OS2StrikeYSize: 50
OS2StrikeYPos: 250
OS2Vendor: 'SUDT'
OS2CodePages: 20000001.00000000
OS2UnicodeRanges: 80000027.40000042.00000000.00000000
Lookup: 258 0 0 "'kern' Horizontal Kerning in Latin lookup 0"  {"'kern' Horizontal Kerning in Latin lookup 0 subtable"  } ['kern' ('DFLT' <'dflt' > 'latn' <'dflt' > ) ]
MarkAttachClasses: 1
DEI: 91125
TtTable: prep
PUSHW_1
 511
SCANCTRL
PUSHB_1
 4
SCANTYPE
EndTTInstrs
ShortTable: maxp 16
  1
  0
  236
  113
  7
  0
  0
  2
  0
  1
  1
  0
  64
  0
  0
  0
EndShort

StartChar: exclam
Encoding: 33 33 4
Width: 230
GlyphClass: 2
Flags: W
LayerCount: 2
Fore
SplineSet
10 48 m 1,0,1
 13 85 13 85 47 107 c 128,-1,2
 81 129 81 129 114 129 c 128,-1,3
 147 129 147 129 165 116.5 c 128,-1,4
 183 104 183 104 183 83 c 0,5,6
 183 44 183 44 148 21 c 128,-1,7
 113 -2 113 -2 80 -2 c 0,8,9
 12 -2 12 -2 10 48 c 1,0,1
153 265 m 1,10,-1
 154 228 l 2,11,12
 154 197 154 197 101 197 c 0,13,14
 92 197 92 197 82.5 198 c 128,-1,15
 73 199 73 199 58 209.5 c 128,-1,16
 43 220 43 220 43 239 c 2,17,-1
 43 244 l 1,18,19
 47 296 47 296 47 358.5 c 128,-1,20
 47 421 47 421 40.5 479.5 c 128,-1,21
 34 538 34 538 28 562 c 2,22,-1
 22 587 l 1,23,24
 16 604 16 604 16 617 c 0,25,26
 16 656 16 656 59.5 678.5 c 128,-1,27
 103 701 103 701 148 701 c 0,28,29
 220 701 220 701 220 658 c 1,30,-1
 214 633 l 1,31,32
 153 484 153 484 153 265 c 1,10,-1
EndSplineSet
EndChar

StartChar: quotedbl
Encoding: 34 34 5
Width: 270
GlyphClass: 2
Flags: W
LayerCount: 2
Fore
SplineSet
60 556 m 0,0,1
 44 556 44 556 39 589 c 0,2,3
 33 625 33 625 24 670 c 128,-1,4
 15 715 15 715 15 717 c 0,5,6
 15 735 15 735 26 745 c 0,7,8
 41 759 41 759 68 759 c 128,-1,9
 95 759 95 759 106.5 742.5 c 128,-1,10
 118 726 118 726 118 705 c 128,-1,11
 118 684 118 684 79 570 c 1,12,13
 73 556 73 556 60 556 c 0,0,1
216 570 m 1,14,15
 210 556 210 556 196 556 c 128,-1,16
 182 556 182 556 176 589 c 0,17,18
 170 625 170 625 161 670 c 128,-1,19
 152 715 152 715 152 717 c 0,20,21
 152 735 152 735 163 745 c 0,22,23
 178 759 178 759 205 759 c 128,-1,24
 232 759 232 759 243.5 742.5 c 128,-1,25
 255 726 255 726 255 705 c 128,-1,26
 255 684 255 684 216 570 c 1,14,15
EndSplineSet
EndChar

StartChar: numbersign
Encoding: 35 35 6
Width: 532
GlyphClass: 2
Flags: W
LayerCount: 2
Fore
SplineSet
319 485 m 1,0,-1
 318 566 l 2,1,2
 318 585 318 585 329 595.5 c 128,-1,3
 340 606 340 606 346.5 607 c 128,-1,4
 353 608 353 608 359 608 c 0,5,6
 400 608 400 608 400 579 c 1,7,8
 398 563 398 563 398 485 c 1,9,10
 471 485 471 485 485 485.5 c 128,-1,11
 499 486 499 486 510 476 c 1,12,13
 522 463 522 463 522 445.5 c 128,-1,14
 522 428 522 428 515 417.5 c 128,-1,15
 508 407 508 407 501 406 c 2,16,-1
 494 404 l 1,17,18
 462 406 462 406 398 406 c 1,19,-1
 398 298 l 1,20,21
 471 298 471 298 485 298.5 c 128,-1,22
 499 299 499 299 509.5 289 c 128,-1,23
 520 279 520 279 521 272.5 c 128,-1,24
 522 266 522 266 522 254 c 128,-1,25
 522 242 522 242 515 231 c 128,-1,26
 508 220 508 220 501 218 c 2,27,-1
 494 217 l 1,28,29
 462 219 462 219 399 219 c 1,30,-1
 400 127 l 2,31,32
 400 95 400 95 358 95 c 0,33,34
 343 95 343 95 330.5 107 c 128,-1,35
 318 119 318 119 318 137 c 2,36,-1
 318 219 l 1,37,-1
 213 218 l 1,38,-1
 214 127 l 2,39,40
 214 95 214 95 171 95 c 0,41,42
 146 95 146 95 136 117 c 0,43,44
 132 126 132 126 132 137 c 2,45,-1
 132 218 l 1,46,-1
 42 217 l 2,47,48
 27 217 27 217 18.5 227.5 c 128,-1,49
 10 238 10 238 10 252 c 0,50,51
 10 299 10 299 52 299 c 1,52,53
 87 298 87 298 133 298 c 1,54,-1
 133 405 l 1,55,-1
 42 404 l 2,56,57
 10 404 10 404 10 442 c 0,58,59
 10 460 10 460 21 472.5 c 128,-1,60
 32 485 32 485 52 486 c 1,61,62
 87 485 87 485 133 485 c 1,63,-1
 132 566 l 2,64,65
 132 584 132 584 142 594 c 0,66,67
 155 608 155 608 171 608 c 0,68,69
 213 608 213 608 214 579 c 1,70,71
 212 563 212 563 212 485 c 1,72,-1
 319 485 l 1,0,-1
319 406 m 1,73,-1
 212 405 l 1,74,-1
 212 298 l 1,75,-1
 319 298 l 1,76,-1
 319 406 l 1,73,-1
EndSplineSet
EndChar

StartChar: dollar
Encoding: 36 36 7
Width: 403
GlyphClass: 2
Flags: W
LayerCount: 2
Fore
SplineSet
180 728 m 1,0,-1
 180 778 l 2,1,2
 180 792 180 792 193 799 c 128,-1,3
 206 806 206 806 220 806 c 128,-1,4
 234 806 234 806 240.5 800 c 128,-1,5
 247 794 247 794 249 783 c 1,6,-1
 249 741 l 1,7,-1
 263 741 l 2,8,9
 358 741 358 741 358 656 c 0,10,11
 358 600 358 600 329 600 c 0,12,13
 319 600 319 600 302 607.5 c 128,-1,14
 285 615 285 615 265 615 c 128,-1,15
 245 615 245 615 231 598 c 128,-1,16
 217 581 217 581 217 553 c 128,-1,17
 217 525 217 525 244.5 487.5 c 128,-1,18
 272 450 272 450 304.5 417.5 c 128,-1,19
 337 385 337 385 364.5 327.5 c 128,-1,20
 392 270 392 270 392 209 c 128,-1,21
 392 148 392 148 377.5 106 c 128,-1,22
 363 64 363 64 338 40 c 0,23,24
 294 -3 294 -3 241 -17 c 1,25,-1
 241 -71 l 1,26,27
 240 -85 240 -85 225.5 -92 c 128,-1,28
 211 -99 211 -99 195 -99 c 0,29,30
 172 -99 172 -99 172 -77 c 2,31,-1
 172 -24 l 1,32,33
 92 -19 92 -19 46.5 30 c 128,-1,34
 1 79 1 79 1 159 c 0,35,36
 1 202 1 202 23 244 c 128,-1,37
 45 286 45 286 81 286 c 0,38,39
 94 286 94 286 101 277 c 128,-1,40
 108 268 108 268 110 246 c 128,-1,41
 112 224 112 224 119 203.5 c 128,-1,42
 126 183 126 183 134 173.5 c 128,-1,43
 142 164 142 164 152 158 c 0,44,45
 166 151 166 151 176 151 c 0,46,47
 200 151 200 151 215 170.5 c 128,-1,48
 230 190 230 190 230 219.5 c 128,-1,49
 230 249 230 249 201 293 c 128,-1,50
 172 337 172 337 138 375 c 128,-1,51
 104 413 104 413 75 461.5 c 128,-1,52
 46 510 46 510 46 560.5 c 128,-1,53
 46 611 46 611 81.5 659 c 128,-1,54
 117 707 117 707 180 728 c 1,0,-1
EndSplineSet
EndChar

StartChar: percent
Encoding: 37 37 8
Width: 601
GlyphClass: 2
Flags: W
LayerCount: 2
Fore
SplineSet
146 727 m 0,0,1
 202 727 202 727 232.5 677 c 128,-1,2
 263 627 263 627 263 568 c 128,-1,3
 263 509 263 509 252.5 462 c 128,-1,4
 242 415 242 415 210.5 379.5 c 128,-1,5
 179 344 179 344 123 344 c 128,-1,6
 67 344 67 344 39 394 c 128,-1,7
 11 444 11 444 11 519 c 128,-1,8
 11 594 11 594 45 660.5 c 128,-1,9
 79 727 79 727 146 727 c 0,0,1
173 622.5 m 128,-1,11
 159 658 159 658 136 658 c 0,12,13
 94 658 94 658 94 558 c 0,14,15
 94 512 94 512 108.5 489 c 128,-1,16
 123 466 123 466 143 466 c 128,-1,17
 163 466 163 466 175 484.5 c 128,-1,18
 187 503 187 503 187 545 c 128,-1,10
 187 587 187 587 173 622.5 c 128,-1,11
130 1 m 1,19,20
 119 -24 119 -24 84.5 -24 c 128,-1,21
 50 -24 50 -24 50 -5 c 0,22,23
 50 1 50 1 57 13 c 2,24,-1
 481 733 l 2,25,26
 490 750 490 750 523 750 c 128,-1,27
 556 750 556 750 556 732 c 0,28,29
 556 727 556 727 553 721 c 2,30,-1
 130 1 l 1,19,20
468 367 m 0,31,32
 524 367 524 367 554.5 317 c 128,-1,33
 585 267 585 267 585 208 c 128,-1,34
 585 149 585 149 574.5 102 c 128,-1,35
 564 55 564 55 532.5 19.5 c 128,-1,36
 501 -16 501 -16 445 -16 c 128,-1,37
 389 -16 389 -16 361 34 c 128,-1,38
 333 84 333 84 333 159 c 128,-1,39
 333 234 333 234 367 300.5 c 128,-1,40
 401 367 401 367 468 367 c 0,31,32
495 262.5 m 128,-1,42
 481 298 481 298 458 298 c 0,43,44
 416 298 416 298 416 198 c 0,45,46
 416 152 416 152 430.5 129 c 128,-1,47
 445 106 445 106 465 106 c 128,-1,48
 485 106 485 106 497 124.5 c 128,-1,49
 509 143 509 143 509 185 c 128,-1,41
 509 227 509 227 495 262.5 c 128,-1,42
EndSplineSet
EndChar

StartChar: ampersand
Encoding: 38 38 9
Width: 500
GlyphClass: 2
Flags: W
LayerCount: 2
Fore
SplineSet
397 -10 m 0,0,1
 378 -10 378 -10 363 1 c 128,-1,2
 348 12 348 12 342 23 c 2,3,-1
 336 34 l 1,4,5
 334 40 334 40 327 40 c 128,-1,6
 320 40 320 40 298 28 c 0,7,8
 230 -9 230 -9 160 -9 c 128,-1,9
 90 -9 90 -9 45 31.5 c 128,-1,10
 0 72 0 72 0 140 c 0,11,12
 0 180 0 180 14 221.5 c 128,-1,13
 28 263 28 263 48 294 c 0,14,15
 88 354 88 354 122 386 c 2,16,-1
 136 399 l 2,17,18
 139 402 139 402 139 408 c 2,19,-1
 138 416 l 1,20,21
 92 512 92 512 92 570 c 128,-1,22
 92 628 92 628 147 674.5 c 128,-1,23
 202 721 202 721 288 721 c 0,24,25
 400 721 400 721 400 641 c 0,26,27
 400 564 400 564 283 429 c 1,28,29
 275 424 275 424 275 418.5 c 128,-1,30
 275 413 275 413 277 409 c 0,31,32
 311 340 311 340 365 260 c 0,33,34
 367 256 367 256 372 256 c 0,35,36
 385 256 385 256 393 277 c 1,37,38
 400 292 400 292 416.5 292 c 128,-1,39
 433 292 433 292 443 271 c 128,-1,40
 453 250 453 250 453 225.5 c 128,-1,41
 453 201 453 201 445.5 185 c 128,-1,42
 438 169 438 169 438 161 c 128,-1,43
 438 153 438 153 448 145 c 128,-1,44
 458 137 458 137 471 137 c 2,45,-1
 486 138 l 1,46,47
 513 138 513 138 513 115 c 0,48,49
 513 78 513 78 475.5 34 c 128,-1,50
 438 -10 438 -10 397 -10 c 0,0,1
263 164 m 1,51,52
 222 237 222 237 198 283 c 0,53,54
 194 289 194 289 187 289 c 128,-1,55
 180 289 180 289 173 281 c 0,56,57
 142 246 142 246 142 209 c 128,-1,58
 142 172 142 172 160 151.5 c 128,-1,59
 178 131 178 131 205 131 c 128,-1,60
 232 131 232 131 258 144 c 0,61,62
 266 148 266 148 266 155 c 1,63,-1
 263 164 l 1,51,52
241 505 m 0,64,65
 278 543 278 543 278 592 c 0,66,67
 278 628 278 628 251 628 c 0,68,69
 232 628 232 628 221.5 611 c 128,-1,70
 211 594 211 594 211 576.5 c 128,-1,71
 211 559 211 559 218.5 531 c 128,-1,72
 226 503 226 503 236 503 c 0,73,74
 239 503 239 503 241 505 c 0,64,65
EndSplineSet
EndChar

StartChar: quotesingle
Encoding: 39 39 10
Width: 133
GlyphClass: 2
Flags: W
LayerCount: 2
Fore
SplineSet
60 556 m 0,0,1
 44 556 44 556 39 589 c 0,2,3
 33 625 33 625 24 670 c 128,-1,4
 15 715 15 715 15 717 c 0,5,6
 15 735 15 735 26 745 c 0,7,8
 41 759 41 759 68 759 c 128,-1,9
 95 759 95 759 106.5 742.5 c 128,-1,10
 118 726 118 726 118 705 c 128,-1,11
 118 684 118 684 79 570 c 1,12,13
 73 556 73 556 60 556 c 0,0,1
EndSplineSet
EndChar

StartChar: parenleft
Encoding: 40 40 11
Width: 228
GlyphClass: 2
Flags: W
LayerCount: 2
Fore
SplineSet
0 352 m 128,-1,1
 0 437 0 437 19.5 512 c 128,-1,2
 39 587 39 587 66 634 c 1,3,4
 123 728 123 728 168 762 c 2,5,-1
 188 777 l 1,6,7
 214 792 214 792 227 792 c 128,-1,8
 240 792 240 792 240 782 c 128,-1,9
 240 772 240 772 233 759.5 c 128,-1,10
 226 747 226 747 218.5 736.5 c 128,-1,11
 211 726 211 726 192 688 c 128,-1,12
 173 650 173 650 159 607.5 c 128,-1,13
 145 565 145 565 133 495.5 c 128,-1,14
 121 426 121 426 121 352 c 128,-1,15
 121 278 121 278 132 209.5 c 128,-1,16
 143 141 143 141 160 96 c 0,17,18
 194 2 194 2 219 -34 c 1,19,-1
 230 -49 l 2,20,21
 241 -64 241 -64 241 -76 c 128,-1,22
 241 -88 241 -88 229 -88 c 0,23,24
 218 -88 218 -88 188 -73 c 1,25,26
 164 -58 164 -58 127 -16 c 128,-1,27
 90 26 90 26 65.5 70.5 c 128,-1,28
 41 115 41 115 20.5 191 c 128,-1,0
 0 267 0 267 0 352 c 128,-1,1
EndSplineSet
EndChar

StartChar: parenright
Encoding: 41 41 12
Width: 213
GlyphClass: 2
Flags: W
LayerCount: 2
Fore
SplineSet
213 352 m 128,-1,1
 213 267 213 267 193.5 192 c 128,-1,2
 174 117 174 117 146 70 c 0,3,4
 90 -24 90 -24 44 -58 c 1,5,-1
 25 -73 l 1,6,7
 -1 -88 -1 -88 -14.5 -88 c 128,-1,8
 -28 -88 -28 -88 -28 -77 c 0,9,10
 -28 -64 -28 -64 -20.5 -53.5 c 128,-1,11
 -13 -43 -13 -43 -5.5 -32.5 c 128,-1,12
 2 -22 2 -22 21 16 c 128,-1,13
 40 54 40 54 54 96.5 c 128,-1,14
 68 139 68 139 80 208.5 c 128,-1,15
 92 278 92 278 92 352 c 128,-1,16
 92 426 92 426 81 494.5 c 128,-1,17
 70 563 70 563 54 608 c 0,18,19
 22 698 22 698 -6 738 c 1,20,-1
 -17 753 l 1,21,22
 -27 772 -27 772 -27 782 c 128,-1,23
 -27 792 -27 792 -16 792 c 128,-1,24
 -5 792 -5 792 25 777 c 1,25,26
 49 762 49 762 86 720 c 128,-1,27
 123 678 123 678 147.5 633.5 c 128,-1,28
 172 589 172 589 192.5 513 c 128,-1,0
 213 437 213 437 213 352 c 128,-1,1
EndSplineSet
EndChar

StartChar: asterisk
Encoding: 42 42 13
Width: 286
GlyphClass: 2
Flags: W
LayerCount: 2
Fore
SplineSet
187 718 m 1,0,-1
 178 666 l 1,1,2
 178 653 178 653 189 653 c 0,3,4
 202 653 202 653 221.5 671 c 128,-1,5
 241 689 241 689 255 689 c 128,-1,6
 269 689 269 689 277.5 678 c 128,-1,7
 286 667 286 667 286 653 c 0,8,9
 286 629 286 629 258 622 c 0,10,11
 212 609 212 609 212 597 c 0,12,13
 212 577 212 577 255 563 c 1,14,15
 274 559 274 559 274 542 c 128,-1,16
 274 525 274 525 264 513 c 128,-1,17
 254 501 254 501 242 501 c 128,-1,18
 230 501 230 501 219 512 c 1,19,20
 192 543 192 543 178 543 c 0,21,22
 166 543 166 543 166 524 c 128,-1,23
 166 505 166 505 170 487.5 c 128,-1,24
 174 470 174 470 174 464 c 0,25,26
 174 438 174 438 139.5 437.5 c 128,-1,27
 105 437 105 437 105 466 c 0,28,29
 105 474 105 474 111 492.5 c 128,-1,30
 117 511 117 511 117 525.5 c 128,-1,31
 117 540 117 540 111 540 c 0,32,33
 99 540 99 540 58 509 c 1,34,35
 48 499 48 499 34.5 499 c 128,-1,36
 21 499 21 499 10.5 509 c 128,-1,37
 0 519 0 519 0 531 c 0,38,39
 0 556 0 556 26 564 c 0,40,41
 39 567 39 567 63 578.5 c 128,-1,42
 87 590 87 590 87 601 c 0,43,44
 87 614 87 614 26 637 c 0,45,46
 10 643 10 643 10 658.5 c 128,-1,47
 10 674 10 674 21.5 684.5 c 128,-1,48
 33 695 33 695 44.5 695 c 128,-1,49
 56 695 56 695 68 686 c 1,50,51
 97 655 97 655 111 655 c 0,52,53
 120 655 120 655 120 674 c 1,54,-1
 116 710 l 1,55,56
 116 743 116 743 151.5 744 c 128,-1,57
 187 745 187 745 187 718 c 1,0,-1
EndSplineSet
EndChar

StartChar: plus
Encoding: 43 43 14
Width: 470
GlyphClass: 2
Flags: W
LayerCount: 2
Fore
SplineSet
195 425 m 1,0,-1
 194 540 l 2,1,2
 194 556 194 556 204 565.5 c 128,-1,3
 214 575 214 575 224 576 c 2,4,-1
 234 578 l 1,5,6
 275 578 275 578 276 550 c 1,7,8
 274 528 274 528 274 421 c 2,9,-1
 274 393 l 1,10,-1
 307 393 l 2,11,12
 406 393 406 393 423 394 c 1,13,14
 456 394 456 394 460 355 c 1,15,16
 460 313 460 313 431 312 c 1,17,18
 409 314 409 314 303 314 c 2,19,-1
 274 314 l 1,20,-1
 276 160 l 2,21,22
 276 144 276 144 264 136 c 128,-1,23
 252 128 252 128 241 128 c 128,-1,24
 230 128 230 128 223 129.5 c 128,-1,25
 216 131 216 131 205 141.5 c 128,-1,26
 194 152 194 152 194 170 c 0,27,28
 194 236 194 236 195 313 c 1,29,-1
 42 312 l 2,30,31
 10 312 10 312 10 355 c 0,32,33
 10 380 10 380 32 390 c 0,34,35
 41 394 41 394 79.5 393.5 c 128,-1,36
 118 393 118 393 195 393 c 1,37,-1
 195 425 l 1,0,-1
EndSplineSet
EndChar

StartChar: comma
Encoding: 44 44 15
Width: 194
GlyphClass: 2
Flags: W
LayerCount: 2
Fore
SplineSet
114 119 m 0,0,1
 179 119 179 119 179 53 c 0,2,3
 179 10 179 10 147 -44 c 128,-1,4
 115 -98 115 -98 74 -98 c 0,5,6
 59 -98 59 -98 59 -86 c 1,7,-1
 62 -73 l 1,8,9
 77 -44 77 -44 77 -28 c 0,10,11
 77 1 77 1 63 4 c 2,12,-1
 58 5 l 1,13,14
 16 12 16 12 16 43 c 0,15,16
 17 76 17 76 46.5 97.5 c 128,-1,17
 76 119 76 119 114 119 c 0,0,1
EndSplineSet
EndChar

StartChar: hyphen
Encoding: 45 45 16
Width: 474
GlyphClass: 2
Flags: W
LayerCount: 2
Fore
SplineSet
407 209 m 1,0,1
 388 211 388 211 303 211 c 2,2,-1
 55 209 l 2,3,4
 42 209 42 209 35 219.5 c 128,-1,5
 28 230 28 230 28 246 c 128,-1,6
 28 262 28 262 37 276 c 128,-1,7
 46 290 46 290 64 291 c 1,8,9
 223 290 223 290 305 290 c 128,-1,10
 387 290 387 290 397 291 c 1,11,12
 415 290 415 290 425 277 c 128,-1,13
 435 264 435 264 435 248 c 128,-1,14
 435 232 435 232 427.5 221 c 128,-1,15
 420 210 420 210 407 209 c 1,0,1
EndSplineSet
EndChar

StartChar: period
Encoding: 46 46 17
Width: 189
GlyphClass: 2
Flags: W
LayerCount: 2
Fore
SplineSet
156 108 m 128,-1,1
 172 96 172 96 172.5 71.5 c 128,-1,2
 173 47 173 47 142.5 24 c 128,-1,3
 112 1 112 1 80.5 1 c 128,-1,4
 49 1 49 1 32.5 12.5 c 128,-1,5
 16 24 16 24 16 43 c 0,6,7
 16 74 16 74 46 97 c 128,-1,8
 76 120 76 120 108 120 c 128,-1,0
 140 120 140 120 156 108 c 128,-1,1
EndSplineSet
EndChar

StartChar: slash
Encoding: 47 47 18
Width: 297
GlyphClass: 2
Flags: W
LayerCount: 2
Fore
SplineSet
49 1 m 1,0,1
 38 -24 38 -24 3.5 -24 c 128,-1,2
 -31 -24 -31 -24 -31 -5 c 0,3,4
 -31 4 -31 4 -24 13 c 1,5,-1
 399 733 l 2,6,7
 408 750 408 750 441.5 750 c 128,-1,8
 475 750 475 750 475 732 c 0,9,10
 475 727 475 727 472 721 c 2,11,-1
 49 1 l 1,0,1
EndSplineSet
EndChar

StartChar: zero
Encoding: 48 48 19
Width: 464
GlyphClass: 2
Flags: W
LayerCount: 2
Fore
SplineSet
256 720 m 0,0,1
 349 720 349 720 405 622.5 c 128,-1,2
 461 525 461 525 461 375 c 0,3,4
 461 239 461 239 412 124 c 0,5,6
 387 63 387 63 338.5 25.5 c 128,-1,7
 290 -12 290 -12 223 -12 c 128,-1,8
 156 -12 156 -12 108 34 c 0,9,10
 17 121 17 121 17 311 c 0,11,12
 17 412 17 412 44.5 504 c 128,-1,13
 72 596 72 596 128 658 c 128,-1,14
 184 720 184 720 256 720 c 0,0,1
237 589 m 0,15,16
 201 589 201 589 182.5 533.5 c 128,-1,17
 164 478 164 478 164 396.5 c 128,-1,18
 164 315 164 315 189 268 c 128,-1,19
 214 221 214 221 250 221 c 128,-1,20
 286 221 286 221 306.5 259 c 128,-1,21
 327 297 327 297 327 377 c 128,-1,22
 327 457 327 457 302 523 c 128,-1,23
 277 589 277 589 237 589 c 0,15,16
EndSplineSet
EndChar

StartChar: one
Encoding: 49 49 20
Width: 226
GlyphClass: 2
Flags: W
LayerCount: 2
Fore
SplineSet
6 555 m 0,0,1
 -26 563 -26 563 -26 588 c 0,2,3
 -26 623 -26 623 48.5 670.5 c 128,-1,4
 123 718 123 718 160 718 c 128,-1,5
 197 718 197 718 197 685 c 0,6,7
 197 656 197 656 192 566 c 1,8,9
 188 444 188 444 188 291 c 128,-1,10
 188 138 188 138 199 80 c 1,11,12
 203 73 203 73 203 63 c 0,13,14
 203 27 203 27 152.5 4.5 c 128,-1,15
 102 -18 102 -18 65 -18 c 128,-1,16
 28 -18 28 -18 28 16 c 1,17,-1
 31 34 l 1,18,19
 55 212 55 212 55 375 c 1,20,-1
 50 507 l 2,21,22
 50 522 50 522 38 536 c 128,-1,23
 26 550 26 550 6 555 c 0,0,1
EndSplineSet
EndChar

StartChar: two
Encoding: 50 50 21
Width: 363
GlyphClass: 2
Flags: W
LayerCount: 2
Fore
SplineSet
332 660 m 0,0,1
 349 633 349 633 349 600.5 c 128,-1,2
 349 568 349 568 345.5 546 c 128,-1,3
 342 524 342 524 330.5 499 c 128,-1,4
 319 474 319 474 313 463 c 128,-1,5
 307 452 307 452 286.5 419.5 c 128,-1,6
 266 387 266 387 261 379 c 2,7,-1
 172 219 l 1,8,9
 166 205 166 205 166 192 c 0,10,11
 166 170 166 170 199.5 170 c 128,-1,12
 233 170 233 170 254 179 c 128,-1,13
 275 188 275 188 282 196 c 2,14,-1
 289 205 l 2,15,16
 311 232 311 232 330 232 c 0,17,18
 358 232 358 232 358 190 c 0,19,20
 358 46 358 46 315 12 c 1,21,22
 298 -8 298 -8 156 -8 c 1,23,-1
 37 -5 l 2,24,25
 -10 -3 -10 -3 -10 42 c 0,26,27
 -10 107 -10 107 55 222 c 1,28,-1
 152 402 l 1,29,30
 199 487 199 487 199 535 c 0,31,32
 199 560 199 560 187 573.5 c 128,-1,33
 175 587 175 587 163 588 c 2,34,-1
 151 590 l 1,35,36
 130 590 130 590 113 579 c 128,-1,37
 96 568 96 568 90 556 c 1,38,-1
 83 545 l 1,39,40
 71 523 71 523 47 523 c 0,41,42
 18 523 18 523 18 580 c 0,43,44
 18 665 18 665 66.5 696.5 c 128,-1,45
 115 728 115 728 193 728 c 0,46,47
 291 728 291 728 332 660 c 0,0,1
EndSplineSet
EndChar

StartChar: three
Encoding: 51 51 22
Width: 361
GlyphClass: 2
Flags: W
LayerCount: 2
Fore
SplineSet
106 341 m 1,0,-1
 86 340 l 1,1,2
 64 340 64 340 64 375 c 1,3,-1
 70 417 l 1,4,5
 74 435 74 435 84 446 c 0,6,7
 98 460 98 460 113 460 c 0,8,9
 144 460 144 460 167.5 485 c 128,-1,10
 191 510 191 510 191 540 c 0,11,12
 191 599 191 599 132 599 c 0,13,14
 105 599 105 599 88 582 c 0,15,16
 67 561 67 561 50 559 c 1,17,18
 22 563 22 563 22 603 c 0,19,20
 22 723 22 723 176 723 c 0,21,22
 207 723 207 723 239.5 714 c 128,-1,23
 272 705 272 705 291.5 691 c 128,-1,24
 311 677 311 677 326.5 648.5 c 128,-1,25
 342 620 342 620 341.5 583 c 128,-1,26
 341 546 341 546 330.5 517 c 128,-1,27
 320 488 320 488 306 472 c 0,28,29
 277 439 277 439 252 429 c 2,30,-1
 242 425 l 2,31,32
 235 422 235 422 235 415 c 1,33,-1
 241 406 l 1,34,35
 350 365 350 365 350 231 c 0,36,37
 350 164 350 164 331 115 c 128,-1,38
 312 66 312 66 288 42.5 c 128,-1,39
 264 19 264 19 232 5 c 0,40,41
 191 -13 191 -13 156.5 -13 c 128,-1,42
 122 -13 122 -13 98.5 -9.5 c 128,-1,43
 75 -6 75 -6 50 5 c 0,44,45
 0 28 0 28 0 100 c 0,46,47
 0 142 0 142 6 173 c 1,48,-1
 9 185 l 2,49,50
 17 219 17 219 43 219 c 0,51,52
 58 219 58 219 68 207 c 1,53,54
 89 178 89 178 128.5 178 c 128,-1,55
 168 178 168 178 187.5 204 c 128,-1,56
 207 230 207 230 207 266 c 128,-1,57
 207 302 207 302 176.5 321.5 c 128,-1,58
 146 341 146 341 106 341 c 1,0,-1
EndSplineSet
EndChar

StartChar: four
Encoding: 52 52 23
Width: 426
GlyphClass: 2
Flags: W
LayerCount: 2
Fore
SplineSet
247 349 m 2,0,-1
 248 413 l 1,1,-1
 246 507 l 1,2,3
 243 516 243 516 237 516 c 128,-1,4
 231 516 231 516 225 506 c 0,5,6
 165 398 165 398 165 354 c 0,7,8
 165 340 165 340 175 336.5 c 128,-1,9
 185 333 185 333 216 333 c 128,-1,10
 247 333 247 333 247 349 c 2,0,-1
384 344 m 1,11,-1
 406 346 l 1,12,13
 426 346 426 346 426 325 c 0,14,15
 426 224 426 224 381 193 c 1,16,17
 371 191 371 191 371 176 c 2,18,-1
 370 158 l 1,19,20
 370 117 370 117 382 72 c 1,21,22
 386 65 386 65 386 55 c 0,23,24
 386 22 386 22 342 5 c 128,-1,25
 298 -12 298 -12 254 -13 c 0,26,27
 218 -13 218 -13 218 21 c 1,28,-1
 221 39 l 1,29,30
 239 91 239 91 239 160 c 0,31,32
 239 173 239 173 227 173 c 0,33,34
 207 172 207 172 170 172 c 2,35,-1
 72 174 l 2,36,37
 30 174 30 174 15 192 c 128,-1,38
 0 210 0 210 0 232 c 1,39,-1
 1 242 l 1,40,41
 21 330 21 330 78 440.5 c 128,-1,42
 135 551 135 551 182 618 c 2,43,-1
 228 684 l 1,44,45
 258 725 258 725 347 725 c 0,46,47
 391 725 391 725 391 695 c 0,48,49
 391 691 391 691 380 640 c 128,-1,50
 369 589 369 589 368.5 545.5 c 128,-1,51
 368 502 368 502 368 418 c 2,52,-1
 368 352 l 2,53,54
 368 344 368 344 384 344 c 1,11,-1
EndSplineSet
EndChar

StartChar: five
Encoding: 53 53 24
Width: 368
GlyphClass: 2
Flags: W
LayerCount: 2
Fore
SplineSet
125 374 m 1,0,-1
 60 365 l 1,1,2
 30 365 30 365 30 393 c 0,3,4
 30 585 30 585 45 669 c 1,5,6
 52 700 52 700 70 709 c 128,-1,7
 88 718 88 718 119 718 c 2,8,-1
 244 714 l 1,9,10
 279 714 279 714 299 720 c 128,-1,11
 319 726 319 726 323 726 c 0,12,13
 344 726 344 726 344 703 c 0,14,15
 344 618 344 618 309 592 c 1,16,17
 294 578 294 578 240 578 c 1,18,-1
 207 580 l 1,19,20
 167 580 167 580 157 562 c 1,21,22
 150 546 150 546 150 517 c 1,23,-1
 151 498 l 1,24,25
 153 483 153 483 166 483 c 1,26,27
 176 485 176 485 193.5 485 c 128,-1,28
 211 485 211 485 229.5 481 c 128,-1,29
 248 477 248 477 272.5 462.5 c 128,-1,30
 297 448 297 448 314.5 424 c 128,-1,31
 332 400 332 400 344.5 354.5 c 128,-1,32
 357 309 357 309 357 273 c 128,-1,33
 357 237 357 237 355.5 221.5 c 128,-1,34
 354 206 354 206 348.5 173 c 128,-1,35
 343 140 343 140 328 112 c 128,-1,36
 313 84 313 84 290 55.5 c 128,-1,37
 267 27 267 27 227 10.5 c 128,-1,38
 187 -6 187 -6 132 -6 c 128,-1,39
 77 -6 77 -6 34 22 c 0,40,41
 1 44 1 44 1 132 c 128,-1,42
 1 220 1 220 45 220 c 0,43,44
 53 220 53 220 74.5 203.5 c 128,-1,45
 96 187 96 187 127 187 c 0,46,47
 148 187 148 187 171 198 c 0,48,49
 214 218 214 218 214 283 c 0,50,51
 214 339 214 339 168 364 c 0,52,53
 149 374 149 374 125 374 c 1,0,-1
EndSplineSet
EndChar

StartChar: six
Encoding: 54 54 25
Width: 418
GlyphClass: 2
Flags: W
LayerCount: 2
Fore
SplineSet
271 255 m 0,0,1
 271 299 271 299 253 341.5 c 128,-1,2
 235 384 235 384 199 384 c 0,3,4
 174 384 174 384 161.5 363 c 128,-1,5
 149 342 149 342 149 304.5 c 128,-1,6
 149 267 149 267 169 226.5 c 128,-1,7
 189 186 189 186 225 186 c 0,8,9
 271 186 271 186 271 255 c 0,0,1
240 488 m 0,10,11
 324 488 324 488 365.5 423 c 128,-1,12
 407 358 407 358 407 268 c 0,13,14
 407 164 407 164 364 84 c 0,15,16
 342 43 342 43 301.5 19 c 128,-1,17
 261 -5 261 -5 208.5 -5 c 128,-1,18
 156 -5 156 -5 119 16 c 128,-1,19
 82 37 82 37 63 66.5 c 128,-1,20
 44 96 44 96 32 136 c 0,21,22
 15 196 15 196 15 250.5 c 128,-1,23
 15 305 15 305 18 349.5 c 128,-1,24
 21 394 21 394 30 452 c 128,-1,25
 39 510 39 510 58 556.5 c 128,-1,26
 77 603 77 603 105 644 c 128,-1,27
 133 685 133 685 179 708 c 128,-1,28
 225 731 225 731 283 731 c 0,29,30
 310 731 310 731 340 725 c 0,31,32
 381 717 381 717 381 651 c 128,-1,33
 381 585 381 585 352 585 c 0,34,35
 349 585 349 585 333 593 c 128,-1,36
 317 601 317 601 292 601 c 0,37,38
 243 601 243 601 211.5 564 c 128,-1,39
 180 527 180 527 180 491 c 0,40,41
 180 481 180 481 189 481 c 0,42,43
 190 481 190 481 197 482 c 0,44,45
 223 488 223 488 240 488 c 0,10,11
EndSplineSet
EndChar

StartChar: seven
Encoding: 55 55 26
Width: 246
GlyphClass: 2
Flags: W
LayerCount: 2
Fore
SplineSet
289 728 m 0,0,1
 312 728 312 728 312 688.5 c 128,-1,2
 312 649 312 649 289 565.5 c 128,-1,3
 266 482 266 482 254 448 c 2,4,-1
 241 414 l 1,5,6
 178 235 178 235 178 128 c 0,7,8
 178 88 178 88 190 76 c 1,9,10
 197 63 197 63 197 51 c 0,11,12
 197 20 197 20 152.5 4 c 128,-1,13
 108 -12 108 -12 63 -12 c 0,14,15
 8 -12 8 -12 8 36 c 0,16,17
 8 133 8 133 106 346 c 0,18,19
 174 493 174 493 180 551 c 1,20,21
 180 570 180 570 129 570 c 0,22,23
 105 570 105 570 87 565 c 128,-1,24
 69 560 69 560 49 541.5 c 128,-1,25
 29 523 29 523 14 523 c 0,26,27
 -10 523 -10 523 -10 574.5 c 128,-1,28
 -10 626 -10 626 7 687 c 0,29,30
 11 698 11 698 22.5 706 c 128,-1,31
 34 714 34 714 53.5 715.5 c 128,-1,32
 73 717 73 717 106.5 717 c 128,-1,33
 140 717 140 717 168 713.5 c 128,-1,34
 196 710 196 710 210.5 706.5 c 128,-1,35
 225 703 225 703 231 703 c 128,-1,36
 237 703 237 703 243 708 c 0,37,38
 269 728 269 728 289 728 c 0,0,1
EndSplineSet
EndChar

StartChar: eight
Encoding: 56 56 27
Width: 444
GlyphClass: 2
Flags: W
LayerCount: 2
Fore
SplineSet
333 419 m 1,0,1
 378 389 378 389 405.5 334 c 128,-1,2
 433 279 433 279 433 228 c 0,3,4
 433 146 433 146 390 76 c 0,5,6
 335 -15 335 -15 215 -15 c 0,7,8
 122 -15 122 -15 66.5 40.5 c 128,-1,9
 11 96 11 96 11 202 c 0,10,11
 11 218 11 218 18.5 247.5 c 128,-1,12
 26 277 26 277 36.5 299.5 c 128,-1,13
 47 322 47 322 69 348.5 c 128,-1,14
 91 375 91 375 120 392 c 0,15,16
 126 396 126 396 126 400 c 0,17,18
 126 408 126 408 116 414 c 128,-1,19
 106 420 106 420 94 431.5 c 128,-1,20
 82 443 82 443 72 458 c 0,21,22
 47 496 47 496 47 547 c 0,23,24
 47 581 47 581 62.5 616 c 128,-1,25
 78 651 78 651 97.5 672.5 c 128,-1,26
 117 694 117 694 153 710 c 128,-1,27
 189 726 189 726 235 726 c 0,28,29
 312 726 312 726 361.5 687.5 c 128,-1,30
 411 649 411 649 411 572 c 0,31,32
 411 558 411 558 408 541 c 128,-1,33
 405 524 405 524 386.5 491 c 128,-1,34
 368 458 368 458 335 436 c 0,35,36
 329 433 329 433 329 428 c 128,-1,37
 329 423 329 423 333 419 c 1,0,1
262 595.5 m 128,-1,39
 245 621 245 621 223 621 c 128,-1,40
 201 621 201 621 189 605.5 c 128,-1,41
 177 590 177 590 177 565.5 c 128,-1,42
 177 541 177 541 193 515.5 c 128,-1,43
 209 490 209 490 232 490 c 128,-1,44
 255 490 255 490 267 506 c 128,-1,45
 279 522 279 522 279 546 c 128,-1,38
 279 570 279 570 262 595.5 c 128,-1,39
180 183.5 m 128,-1,47
 201 152 201 152 230 152 c 128,-1,48
 259 152 259 152 273 171 c 128,-1,49
 287 190 287 190 287 222.5 c 128,-1,50
 287 255 287 255 267 287 c 128,-1,51
 247 319 247 319 218.5 319 c 128,-1,52
 190 319 190 319 174.5 298.5 c 128,-1,53
 159 278 159 278 159 246.5 c 128,-1,46
 159 215 159 215 180 183.5 c 128,-1,47
EndSplineSet
EndChar

StartChar: nine
Encoding: 57 57 28
Width: 390
GlyphClass: 2
Flags: W
LayerCount: 2
Fore
SplineSet
235.5 446.5 m 128,-1,1
 251 473 251 473 250.5 512 c 128,-1,2
 250 551 250 551 231.5 578 c 128,-1,3
 213 605 213 605 190 605 c 128,-1,4
 167 605 167 605 151.5 580 c 128,-1,5
 136 555 136 555 136 516 c 128,-1,6
 136 477 136 477 154.5 448.5 c 128,-1,7
 173 420 173 420 196.5 420 c 128,-1,0
 220 420 220 420 235.5 446.5 c 128,-1,1
203 721 m 0,8,9
 253 721 253 721 288.5 700 c 128,-1,10
 324 679 324 679 343 649 c 128,-1,11
 362 619 362 619 373 572 c 0,12,13
 389 505 389 505 389 419.5 c 128,-1,14
 389 334 389 334 377 267.5 c 128,-1,15
 365 201 365 201 338 135.5 c 128,-1,16
 311 70 311 70 257.5 30 c 128,-1,17
 204 -10 204 -10 131 -10 c 0,18,19
 83 -10 83 -10 48 6 c 1,20,-1
 37 12 l 1,21,22
 1 36 1 36 1 113 c 128,-1,23
 1 190 1 190 36 190 c 0,24,25
 46 190 46 190 69.5 175.5 c 128,-1,26
 93 161 93 161 121.5 161 c 128,-1,27
 150 161 150 161 170.5 173.5 c 128,-1,28
 191 186 191 186 200.5 201.5 c 128,-1,29
 210 217 210 217 216 237 c 0,30,31
 223 264 223 264 223 276 c 128,-1,32
 223 288 223 288 214 288 c 0,33,34
 212 288 212 288 196 283 c 128,-1,35
 180 278 180 278 164 278 c 0,36,37
 87 278 87 278 44 327 c 128,-1,38
 1 376 1 376 1 459 c 0,39,40
 1 574 1 574 56 647.5 c 128,-1,41
 111 721 111 721 203 721 c 0,8,9
EndSplineSet
EndChar

StartChar: colon
Encoding: 58 58 29
Width: 189
GlyphClass: 2
Flags: W
LayerCount: 2
Fore
SplineSet
173 425 m 0,0,1
 173 395 173 395 143 371 c 128,-1,2
 113 347 113 347 81.5 347 c 128,-1,3
 50 347 50 347 33 359 c 128,-1,4
 16 371 16 371 16 389 c 0,5,6
 16 420 16 420 45.5 443.5 c 128,-1,7
 75 467 75 467 107 467 c 128,-1,8
 139 467 139 467 156 455 c 128,-1,9
 173 443 173 443 173 425 c 0,0,1
156 108 m 128,-1,11
 172 96 172 96 172.5 71.5 c 128,-1,12
 173 47 173 47 142.5 24 c 128,-1,13
 112 1 112 1 80.5 1 c 128,-1,14
 49 1 49 1 32.5 12.5 c 128,-1,15
 16 24 16 24 16 43 c 0,16,17
 16 74 16 74 46 97 c 128,-1,18
 76 120 76 120 108 120 c 128,-1,10
 140 120 140 120 156 108 c 128,-1,11
EndSplineSet
EndChar

StartChar: semicolon
Encoding: 59 59 30
Width: 194
GlyphClass: 2
Flags: W
LayerCount: 2
Fore
SplineSet
174 422 m 0,0,1
 174 389 174 389 141.5 368 c 128,-1,2
 109 347 109 347 80.5 347 c 128,-1,3
 52 347 52 347 34 359.5 c 128,-1,4
 16 372 16 372 16 392 c 0,5,6
 16 425 16 425 49.5 446 c 128,-1,7
 83 467 83 467 111.5 467 c 128,-1,8
 140 467 140 467 157 455 c 128,-1,9
 174 443 174 443 174 422 c 0,0,1
114 119 m 0,10,11
 179 119 179 119 179 53 c 0,12,13
 179 10 179 10 147 -44 c 128,-1,14
 115 -98 115 -98 74 -98 c 0,15,16
 59 -98 59 -98 59 -86 c 1,17,-1
 62 -73 l 1,18,19
 77 -44 77 -44 77 -28 c 0,20,21
 77 1 77 1 63 4 c 2,22,-1
 58 5 l 1,23,24
 16 12 16 12 16 43 c 0,25,26
 17 76 17 76 46.5 97.5 c 128,-1,27
 76 119 76 119 114 119 c 0,10,11
EndSplineSet
EndChar

StartChar: less
Encoding: 60 60 31
Width: 313
GlyphClass: 2
Flags: W
LayerCount: 2
Fore
SplineSet
301 136 m 0,0,1
 301 120 301 120 247 120 c 0,2,3
 224 120 224 120 203.5 128 c 128,-1,4
 183 136 183 136 140 182 c 128,-1,5
 97 228 97 228 64 270 c 2,6,-1
 30 312 l 1,7,8
 20 322 20 322 20 336.5 c 128,-1,9
 20 351 20 351 32.5 366 c 128,-1,10
 45 381 45 381 68.5 409.5 c 128,-1,11
 92 438 92 438 139 488 c 128,-1,12
 186 538 186 538 203 543 c 1,13,14
 217 551 217 551 259.5 551 c 128,-1,15
 302 551 302 551 302 535 c 0,16,17
 302 525 302 525 285 511 c 0,18,19
 279 505 279 505 268.5 495.5 c 128,-1,20
 258 486 258 486 231.5 459.5 c 128,-1,21
 205 433 205 433 185 412 c 0,22,23
 132 355 132 355 132 337.5 c 128,-1,24
 132 320 132 320 170 276.5 c 128,-1,25
 208 233 208 233 246 197 c 2,26,-1
 284 161 l 1,27,28
 301 147 301 147 301 136 c 0,0,1
EndSplineSet
EndChar

StartChar: equal
Encoding: 61 61 32
Width: 424
GlyphClass: 2
Flags: W
LayerCount: 2
Fore
SplineSet
383 401 m 1,0,1
 361 403 361 403 267 403 c 2,2,-1
 42 401 l 2,3,4
 10 401 10 401 10 444 c 0,5,6
 10 469 10 469 32 479 c 0,7,8
 41 483 41 483 52 483 c 0,9,10
 178 482 178 482 269 482 c 128,-1,11
 360 482 360 482 375.5 482.5 c 128,-1,12
 391 483 391 483 401.5 473 c 128,-1,13
 412 463 412 463 413 456.5 c 128,-1,14
 414 450 414 450 414 444.5 c 128,-1,15
 414 439 414 439 413 432 c 128,-1,16
 412 425 412 425 404 413 c 128,-1,17
 396 401 396 401 383 401 c 1,0,1
383 220 m 1,18,19
 361 222 361 222 267 222 c 2,20,-1
 42 220 l 2,21,22
 10 220 10 220 10 263 c 0,23,24
 10 288 10 288 32 298 c 0,25,26
 41 302 41 302 52 302 c 0,27,28
 178 301 178 301 269 301 c 128,-1,29
 360 301 360 301 375.5 301.5 c 128,-1,30
 391 302 391 302 401.5 292 c 128,-1,31
 412 282 412 282 413 275.5 c 128,-1,32
 414 269 414 269 414 263.5 c 128,-1,33
 414 258 414 258 413 251 c 128,-1,34
 412 244 412 244 404 232 c 128,-1,35
 396 220 396 220 383 220 c 1,18,19
EndSplineSet
EndChar

StartChar: greater
Encoding: 62 62 33
Width: 313
GlyphClass: 2
Flags: W
LayerCount: 2
Fore
SplineSet
173.5 304 m 128,-1,1
 190 326 190 326 190 338.5 c 128,-1,2
 190 351 190 351 152 394.5 c 128,-1,3
 114 438 114 438 76 474 c 2,4,-1
 37 511 l 1,5,6
 20 525 20 525 20 535 c 0,7,8
 20 551 20 551 68 551 c 0,9,10
 101 551 101 551 119 543 c 1,11,12
 136 538 136 538 179 493 c 128,-1,13
 222 448 222 448 257 405 c 2,14,-1
 292 362 l 2,15,16
 302 351 302 351 302 340 c 0,17,18
 302 324 302 324 292 312 c 0,19,20
 162 145 162 145 121 129 c 0,21,22
 99 120 99 120 78.5 120 c 128,-1,23
 58 120 58 120 39.5 122.5 c 128,-1,24
 21 125 21 125 21 136 c 128,-1,25
 21 147 21 147 38 161 c 0,26,27
 44 167 44 167 54.5 176.5 c 128,-1,28
 65 186 65 186 91 212 c 128,-1,29
 117 238 117 238 137 260 c 128,-1,0
 157 282 157 282 173.5 304 c 128,-1,1
EndSplineSet
EndChar

StartChar: question
Encoding: 63 63 34
Width: 261
GlyphClass: 2
Flags: W
LayerCount: 2
Fore
SplineSet
33 40 m 1,0,1
 36 76 36 76 70 99 c 128,-1,2
 104 122 104 122 136.5 122 c 128,-1,3
 169 122 169 122 188 109 c 128,-1,4
 207 96 207 96 207 76 c 0,5,6
 207 37 207 37 171.5 14 c 128,-1,7
 136 -9 136 -9 103 -9 c 128,-1,8
 70 -9 70 -9 52 4 c 128,-1,9
 34 17 34 17 33 40 c 1,0,1
-15 575 m 0,10,11
 -15 637 -15 637 37 674.5 c 128,-1,12
 89 712 89 712 158 712 c 128,-1,13
 227 712 227 712 274 675.5 c 128,-1,14
 321 639 321 639 321 570 c 128,-1,15
 321 501 321 501 242 406 c 1,16,17
 191 355 191 355 191 304 c 0,18,19
 191 291 191 291 198 277 c 128,-1,20
 205 263 205 263 205 254 c 0,21,22
 205 224 205 224 170.5 208 c 128,-1,23
 136 192 136 192 101 192 c 0,24,25
 43 192 43 192 43 239 c 0,26,27
 43 297 43 297 100 371 c 1,28,29
 127 404 127 404 147 443.5 c 128,-1,30
 167 483 167 483 167 507 c 0,31,32
 167 513 167 513 166 521.5 c 128,-1,33
 165 530 165 530 152 544 c 128,-1,34
 139 558 139 558 116 558 c 0,35,36
 99 558 99 558 80 546 c 128,-1,37
 61 534 61 534 52 514 c 1,38,39
 43 500 43 500 27 500 c 128,-1,40
 11 500 11 500 2 516 c 0,41,42
 -15 545 -15 545 -15 575 c 0,10,11
EndSplineSet
EndChar

StartChar: at
Encoding: 64 64 35
Width: 942
GlyphClass: 2
Flags: W
LayerCount: 2
Fore
SplineSet
454 115 m 0,0,1
 482 115 482 115 501 146 c 128,-1,2
 520 177 520 177 520 200 c 0,3,4
 520 246 520 246 487 246 c 0,5,6
 458 246 458 246 440 217.5 c 128,-1,7
 422 189 422 189 422 157 c 0,8,9
 422 115 422 115 454 115 c 0,0,1
637 316 m 1,10,-1
 633 169 l 1,11,12
 633 14 633 14 706 14 c 0,13,14
 738 14 738 14 760.5 38 c 128,-1,15
 783 62 783 62 793 100 c 0,16,17
 811 170 811 170 811 225.5 c 128,-1,18
 811 281 811 281 805 321 c 128,-1,19
 799 361 799 361 778.5 409 c 128,-1,20
 758 457 758 457 725.5 491 c 128,-1,21
 693 525 693 525 633.5 548.5 c 128,-1,22
 574 572 574 572 495 572 c 0,23,24
 342 572 342 572 248.5 462.5 c 128,-1,25
 155 353 155 353 155 200 c 128,-1,26
 155 47 155 47 230.5 -39 c 128,-1,27
 306 -125 306 -125 462 -125 c 0,28,29
 513 -125 513 -125 513 -157 c 0,30,31
 513 -210 513 -210 376 -210 c 0,32,33
 212 -210 212 -210 113.5 -96.5 c 128,-1,34
 15 17 15 17 15 189 c 0,35,36
 15 393 15 393 152.5 525 c 128,-1,37
 290 657 290 657 497 657 c 0,38,39
 720 657 720 657 829 530 c 0,40,41
 926 416 926 416 926 239 c 0,42,43
 926 129 926 129 864 30 c 0,44,45
 835 -18 835 -18 787 -47.5 c 128,-1,46
 739 -77 739 -77 691 -77 c 128,-1,47
 643 -77 643 -77 614 -66.5 c 128,-1,48
 585 -56 585 -56 570 -42 c 1,49,50
 540 -11 540 -11 534 12 c 1,51,-1
 532 23 l 2,52,53
 531 34 531 34 525 34 c 1,54,-1
 513 26 l 1,55,56
 475 -15 475 -15 410.5 -15 c 128,-1,57
 346 -15 346 -15 315.5 25 c 128,-1,58
 285 65 285 65 285 133 c 0,59,60
 285 212 285 212 328 258 c 0,61,62
 370 304 370 304 415 318 c 1,63,64
 462 334 462 334 488 336 c 2,65,-1
 500 337 l 1,66,-1
 510 350 l 1,67,68
 509 384 509 384 457 384 c 0,69,70
 421 384 421 384 395 371.5 c 128,-1,71
 369 359 369 359 357 359 c 0,72,73
 333 359 333 359 333 399 c 0,74,75
 333 485 333 485 487 485 c 0,76,77
 596 485 596 485 624 411 c 0,78,79
 637 376 637 376 637 316 c 1,10,-1
EndSplineSet
EndChar

StartChar: A
Encoding: 65 65 36
Width: 516
GlyphClass: 2
Flags: W
LayerCount: 2
Fore
SplineSet
511 92 m 0,0,1
 528 80 528 80 528 61 c 0,2,3
 528 24 528 24 478.5 -1 c 128,-1,4
 429 -26 429 -26 387 -26 c 0,5,6
 354 -26 354 -26 339 -11 c 0,7,8
 327 1 327 1 326 24.5 c 128,-1,9
 325 48 325 48 324 75 c 128,-1,10
 323 102 323 102 322.5 124 c 128,-1,11
 322 146 322 146 313 161.5 c 128,-1,12
 304 177 304 177 296 180 c 0,13,14
 287 184 287 184 246.5 184 c 128,-1,15
 206 184 206 184 184 175 c 0,16,17
 162 165 162 165 142 82 c 0,18,19
 137 62 137 62 136 60 c 0,20,21
 109 -31 109 -31 5 -31 c 0,22,23
 -44 -31 -44 -31 -44 -2 c 0,24,25
 -44 19 -44 19 -28 44 c 2,26,-1
 -22 53 l 1,27,28
 52 188 52 188 112.5 391.5 c 128,-1,29
 173 595 173 595 173 639 c 0,30,31
 173 656 173 656 167.5 668.5 c 128,-1,32
 162 681 162 681 162 688 c 0,33,34
 162 738 162 738 248 738 c 0,35,36
 301 738 301 738 339.5 717.5 c 128,-1,37
 378 697 378 697 388 653 c 1,38,39
 430 323 430 323 462 209 c 1,40,41
 485 110 485 110 511 92 c 0,0,1
264 465 m 1,42,43
 263 477 263 477 257 477 c 0,44,45
 254 477 254 477 247 468 c 1,46,47
 206 360 206 360 206 319 c 0,48,49
 206 307 206 307 214 304 c 128,-1,50
 222 301 222 301 244 301 c 128,-1,51
 266 301 266 301 275.5 306.5 c 128,-1,52
 285 312 285 312 285 325 c 1,53,54
 277 413 277 413 267 454 c 1,55,-1
 264 465 l 1,42,43
EndSplineSet
EndChar

StartChar: B
Encoding: 66 66 37
Width: 452
GlyphClass: 2
Flags: W
LayerCount: 2
Fore
SplineSet
442 219 m 0,0,1
 442 103 442 103 362 39.5 c 128,-1,2
 282 -24 282 -24 173 -24 c 0,3,4
 133 -24 133 -24 98.5 -15.5 c 128,-1,5
 64 -7 64 -7 49 2 c 2,6,-1
 34 11 l 1,7,8
 15 27 15 27 15 49 c 1,9,10
 32 225 32 225 32 329.5 c 128,-1,11
 32 434 32 434 24 496.5 c 128,-1,12
 16 559 16 559 8 576 c 2,13,-1
 -1 594 l 1,14,15
 -10 607 -10 607 -10 626 c 0,16,17
 -10 659 -10 659 24 683 c 0,18,19
 32 689 32 689 48 698.5 c 128,-1,20
 64 708 64 708 117 724 c 128,-1,21
 170 740 170 740 234 740 c 128,-1,22
 298 740 298 740 350 710 c 128,-1,23
 402 680 402 680 402 621 c 0,24,25
 402 520 402 520 319 455 c 0,26,27
 312 449 312 449 312 442.5 c 128,-1,28
 312 436 312 436 319 432 c 0,29,30
 362 402 362 402 389.5 366 c 128,-1,31
 417 330 417 330 427 297 c 0,32,33
 442 248 442 248 442 219 c 0,0,1
231 494.5 m 128,-1,35
 252 533 252 533 252 565 c 128,-1,36
 252 597 252 597 233.5 615 c 128,-1,37
 215 633 215 633 187.5 633 c 128,-1,38
 160 633 160 633 160 614 c 0,39,40
 160 523 160 523 170 464 c 0,41,42
 172 456 172 456 181 456 c 0,43,34
 210 456 210 456 231 494.5 c 128,-1,35
255 316.5 m 128,-1,45
 237 349 237 349 216.5 349 c 128,-1,46
 196 349 196 349 181.5 317.5 c 128,-1,47
 167 286 167 286 167 254 c 0,48,49
 167 164 167 164 218 164 c 0,50,51
 244 164 244 164 258.5 186.5 c 128,-1,52
 273 209 273 209 273 246.5 c 128,-1,44
 273 284 273 284 255 316.5 c 128,-1,45
EndSplineSet
EndChar

StartChar: C
Encoding: 67 67 38
Width: 413
GlyphClass: 2
Flags: W
LayerCount: 2
Fore
SplineSet
413 174 m 0,0,1
 413 87 413 87 359 33 c 128,-1,2
 305 -21 305 -21 218 -21 c 0,3,4
 125 -21 125 -21 78 42 c 1,5,6
 32 107 32 107 21 174 c 0,7,8
 10 245 10 245 10 289 c 128,-1,9
 10 333 10 333 13.5 377 c 128,-1,10
 17 421 17 421 26 474.5 c 128,-1,11
 35 528 35 528 52.5 572.5 c 128,-1,12
 70 617 70 617 95 655.5 c 128,-1,13
 120 694 120 694 159.5 716 c 128,-1,14
 199 738 199 738 237.5 738 c 128,-1,15
 276 738 276 738 293.5 733 c 128,-1,16
 311 728 311 728 318.5 728 c 128,-1,17
 326 728 326 728 343.5 736 c 128,-1,18
 361 744 361 744 386.5 744 c 128,-1,19
 412 744 412 744 412 723 c 0,20,21
 412 722 412 722 404 679.5 c 128,-1,22
 396 637 396 637 396 592.5 c 128,-1,23
 396 548 396 548 404 533.5 c 128,-1,24
 412 519 412 519 412 506 c 0,25,26
 412 481 412 481 389 467 c 128,-1,27
 366 453 366 453 339 453 c 0,28,29
 269 453 269 453 269 525 c 0,30,31
 269 541 269 541 275 568 c 128,-1,32
 281 595 281 595 281 603 c 0,33,34
 281 624 281 624 258 624 c 0,35,36
 226 624 226 624 194 566 c 0,37,38
 157 499 157 499 157 370 c 0,39,40
 157 314 157 314 169 270 c 0,41,42
 192 187 192 187 245 187 c 0,43,44
 291 187 291 187 316 237 c 0,45,46
 327 261 327 261 353 261 c 128,-1,47
 379 261 379 261 396 232 c 128,-1,48
 413 203 413 203 413 174 c 0,0,1
EndSplineSet
EndChar

StartChar: D
Encoding: 68 68 39
Width: 443
GlyphClass: 2
Flags: W
LayerCount: 2
Fore
SplineSet
0 59 m 1,0,-1
 1 68 l 1,1,2
 31 252 31 252 31 407 c 0,3,4
 31 540 31 540 14 604 c 1,5,-1
 9 626 l 1,6,7
 4 636 4 636 4 650 c 0,8,9
 4 686 4 686 42 709 c 1,10,11
 81 737 81 737 163 737 c 128,-1,12
 245 737 245 737 299 705.5 c 128,-1,13
 353 674 353 674 383 621 c 0,14,15
 442 517 442 517 442 379 c 0,16,17
 442 252 442 252 404 155 c 0,18,19
 384 102 384 102 352 64 c 128,-1,20
 320 26 320 26 269.5 2.5 c 128,-1,21
 219 -21 219 -21 155 -21 c 0,22,23
 107 -21 107 -21 69.5 -9.5 c 128,-1,24
 32 2 32 2 16 18.5 c 128,-1,25
 0 35 0 35 0 59 c 1,0,-1
288 397 m 0,26,27
 288 562 288 562 242 609 c 0,28,29
 226 626 226 626 212 626 c 0,30,31
 187 626 187 626 184 601 c 0,32,33
 168 498 168 498 168 299 c 0,34,35
 168 230 168 230 173 167 c 1,36,37
 173 145 173 145 195 145 c 0,38,39
 288 145 288 145 288 397 c 0,26,27
EndSplineSet
EndChar

StartChar: E
Encoding: 69 69 40
Width: 405
GlyphClass: 2
Flags: W
LayerCount: 2
Fore
SplineSet
280 474 m 2,0,-1
 326 475 l 2,1,2
 354 475 354 475 354 440 c 128,-1,3
 354 405 354 405 322.5 383 c 128,-1,4
 291 361 291 361 244 359 c 1,5,6
 183 359 183 359 179 335 c 0,7,8
 176 316 176 316 176 291 c 128,-1,9
 176 266 176 266 180 245 c 128,-1,10
 184 224 184 224 195 202 c 0,11,12
 219 152 219 152 285 152 c 0,13,14
 314 152 314 152 331 164.5 c 128,-1,15
 348 177 348 177 364 177 c 128,-1,16
 380 177 380 177 389 160.5 c 128,-1,17
 398 144 398 144 398 125 c 0,18,19
 398 61 398 61 344 19.5 c 128,-1,20
 290 -22 290 -22 221 -22 c 0,21,22
 31 -22 31 -22 31 259 c 1,23,-1
 35 336 l 1,24,25
 1 336 1 336 1 369 c 0,26,27
 1 395 1 395 16.5 427 c 128,-1,28
 32 459 32 459 53 468 c 1,29,30
 57 511 57 511 73 562.5 c 128,-1,31
 89 614 89 614 119 655 c 0,32,33
 178 736 178 736 301 736 c 0,34,35
 377 736 377 736 391 700.5 c 128,-1,36
 405 665 405 665 405 642 c 0,37,38
 405 588 405 588 371 588 c 0,39,40
 362 588 362 588 342 598 c 128,-1,41
 322 608 322 608 294 608 c 0,42,43
 245 608 245 608 215.5 571.5 c 128,-1,44
 186 535 186 535 186 489 c 0,45,46
 186 476 186 476 214.5 475 c 128,-1,47
 243 474 243 474 280 474 c 2,0,-1
EndSplineSet
EndChar

StartChar: F
Encoding: 70 70 41
Width: 293
GlyphClass: 2
Flags: W
LayerCount: 2
Fore
SplineSet
255 474 m 1,0,-1
 295 475 l 2,1,2
 323 475 323 475 323 445 c 0,3,4
 323 405 323 405 295 383.5 c 128,-1,5
 267 362 267 362 225 359 c 1,6,7
 210 359 210 359 197.5 351.5 c 128,-1,8
 185 344 185 344 184 335 c 0,9,10
 177 262 177 262 177 165 c 128,-1,11
 177 68 177 68 187 -26 c 1,12,13
 190 -36 190 -36 190 -48.5 c 128,-1,14
 190 -61 190 -61 184 -73 c 0,15,16
 165 -107 165 -107 128 -128 c 0,17,18
 78 -155 78 -155 39.5 -155 c 128,-1,19
 1 -155 1 -155 1 -127 c 1,20,-1
 5 -107 l 1,21,22
 44 53 44 53 44 318 c 2,23,-1
 44 330 l 2,24,25
 44 336 44 336 39 336 c 0,26,27
 1 336 1 336 1 370 c 0,28,29
 1 390 1 390 18 426.5 c 128,-1,30
 35 463 35 463 54 468 c 1,31,32
 55 481 55 481 55 500 c 0,33,34
 55 592 55 592 25 616 c 1,35,36
 15 628 15 628 15 646 c 0,37,38
 15 678 15 678 57 703 c 1,39,40
 137 746 137 746 244 746 c 0,41,42
 270 746 270 746 286.5 744 c 128,-1,43
 303 742 303 742 319 730.5 c 128,-1,44
 335 719 335 719 335 697 c 0,45,46
 335 660 335 660 281 644 c 128,-1,47
 227 628 227 628 208 600 c 128,-1,48
 189 572 189 572 189 522 c 0,49,50
 189 511 189 511 191 489 c 0,51,52
 192 474 192 474 255 474 c 1,0,-1
EndSplineSet
EndChar

StartChar: G
Encoding: 71 71 42
Width: 436
GlyphClass: 2
Flags: W
LayerCount: 2
Fore
SplineSet
416 436 m 1,0,1
 405 325 405 325 405 189.5 c 128,-1,2
 405 54 405 54 422 7 c 0,3,4
 426 -2 426 -2 426 -14.5 c 128,-1,5
 426 -27 426 -27 416 -35 c 128,-1,6
 406 -43 406 -43 396 -44 c 1,7,-1
 385 -44 l 1,8,9
 338 -43 338 -43 302.5 -26 c 128,-1,10
 267 -9 267 -9 267 28 c 0,11,12
 267 79 267 79 258 79 c 1,13,-1
 251 73 l 1,14,15
 217 5 217 5 164 -13 c 0,16,17
 147 -19 147 -19 132 -19 c 0,18,19
 95 -19 95 -19 69 6 c 128,-1,20
 43 31 43 31 32 74 c 1,21,22
 11 149 11 149 11 218.5 c 128,-1,23
 11 288 11 288 15 337 c 128,-1,24
 19 386 19 386 28.5 445.5 c 128,-1,25
 38 505 38 505 57.5 554 c 128,-1,26
 77 603 77 603 104.5 645 c 128,-1,27
 132 687 132 687 175.5 711 c 128,-1,28
 219 735 219 735 274 735 c 0,29,30
 352 735 352 735 364 703 c 0,31,32
 371 686 371 686 371 654 c 0,33,34
 371 577 371 577 335 577 c 0,35,36
 323 577 323 577 307 593 c 128,-1,37
 291 609 291 609 263.5 609 c 128,-1,38
 236 609 236 609 211.5 583 c 128,-1,39
 187 557 187 557 176 517 c 0,40,41
 156 444 156 444 156 379 c 0,42,43
 156 260 156 260 186 216 c 0,44,45
 202 193 202 193 228 193 c 128,-1,46
 254 193 254 193 265.5 220.5 c 128,-1,47
 277 248 277 248 277 287 c 128,-1,48
 277 326 277 326 263.5 374 c 128,-1,49
 250 422 250 422 250 425 c 0,50,51
 250 443 250 443 267 456 c 0,52,53
 313 488 313 488 385 488 c 0,54,55
 418 488 418 488 418 463 c 1,56,-1
 416 436 l 1,0,1
EndSplineSet
EndChar

StartChar: H
Encoding: 72 72 43
Width: 452
GlyphClass: 2
Flags: W
LayerCount: 2
Fore
SplineSet
275 121 m 1,0,-1
 279 306 l 2,1,2
 279 325 279 325 277 347 c 0,3,4
 275 377 275 377 237 377 c 0,5,6
 162 377 162 377 162 338 c 0,7,8
 162 120 162 120 173 60 c 0,9,10
 175 54 175 54 175 46 c 0,11,12
 175 10 175 10 126.5 -14 c 128,-1,13
 78 -38 78 -38 40.5 -38 c 128,-1,14
 3 -38 3 -38 3 -6 c 1,15,-1
 6 14 l 1,16,17
 31 195 31 195 31 391 c 1,18,-1
 26 546 l 2,19,20
 24 582 24 582 2 610 c 1,21,22
 -9 621 -9 621 -9 637 c 0,23,24
 -9 672 -9 672 44.5 703 c 128,-1,25
 98 734 98 734 137 734 c 0,26,27
 167 734 167 734 169 701 c 0,28,29
 170 689 170 689 170 667 c 2,30,31
 170 667 170 667 163 504 c 0,32,33
 163 485 163 485 173 479 c 128,-1,34
 183 473 183 473 221 473 c 0,35,36
 282 473 282 473 283 506 c 2,37,-1
 284 544 l 1,38,-1
 281 646 l 1,39,40
 281 683 281 683 327 709.5 c 128,-1,41
 373 736 373 736 414 736 c 0,42,43
 431 736 431 736 438.5 731 c 128,-1,44
 446 726 446 726 446 710 c 128,-1,45
 446 694 446 694 442 677 c 0,46,47
 412 528 412 528 412 340 c 1,48,49
 414 211 414 211 421.5 153.5 c 128,-1,50
 429 96 429 96 445.5 80 c 128,-1,51
 462 64 462 64 462 47 c 0,52,53
 462 16 462 16 416 -6 c 128,-1,54
 370 -28 370 -28 342 -28 c 128,-1,55
 314 -28 314 -28 300.5 -18 c 128,-1,56
 287 -8 287 -8 285 2 c 2,57,-1
 283 12 l 2,58,59
 275 48 275 48 275 121 c 1,0,-1
EndSplineSet
EndChar

StartChar: I
Encoding: 73 73 44
Width: 196
GlyphClass: 2
Flags: W
LayerCount: 2
Fore
SplineSet
136 -14.5 m 128,-1,1
 86 -38 86 -38 49.5 -38 c 128,-1,2
 13 -38 13 -38 13 -5 c 1,3,-1
 16 14 l 1,4,5
 41 195 41 195 41 391 c 1,6,-1
 36 546 l 2,7,8
 34 582 34 582 12 610 c 1,9,10
 1 621 1 621 1 637 c 0,11,12
 1 673 1 673 56.5 703.5 c 128,-1,13
 112 734 112 734 144.5 734 c 128,-1,14
 177 734 177 734 179 701 c 0,15,16
 180 689 180 689 180 651.5 c 128,-1,17
 180 614 180 614 175 549 c 1,18,19
 172 440 172 440 172 277.5 c 128,-1,20
 172 115 172 115 183 60 c 1,21,22
 186 54 186 54 186 45 c 0,23,0
 186 9 186 9 136 -14.5 c 128,-1,1
EndSplineSet
EndChar

StartChar: J
Encoding: 74 74 45
Width: 202
GlyphClass: 2
Flags: W
LayerCount: 2
Fore
SplineSet
177 283 m 1,0,-1
 181 92 l 1,1,2
 181 -11 181 -11 165 -62 c 128,-1,3
 149 -113 149 -113 108 -145 c 128,-1,4
 67 -177 67 -177 17.5 -177 c 128,-1,5
 -32 -177 -32 -177 -63 -149.5 c 128,-1,6
 -94 -122 -94 -122 -94 -82 c 0,7,8
 -94 -63 -94 -63 -85.5 -52 c 128,-1,9
 -77 -41 -77 -41 -68 -39 c 2,10,-1
 -60 -37 l 1,11,12
 -28 -36 -28 -36 -7 -17.5 c 128,-1,13
 14 1 14 1 19 18 c 2,14,-1
 24 36 l 1,15,16
 45 106 45 106 45 341 c 1,17,-1
 41 550 l 2,18,19
 41 568 41 568 35 581.5 c 128,-1,20
 29 595 29 595 17.5 606 c 128,-1,21
 6 617 6 617 6 633 c 0,22,23
 6 668 6 668 61 701 c 128,-1,24
 116 734 116 734 149.5 734 c 128,-1,25
 183 734 183 734 185 701 c 1,26,27
 185 605 185 605 181 549 c 1,28,29
 177 415 177 415 177 283 c 1,0,-1
EndSplineSet
EndChar

StartChar: K
Encoding: 75 75 46
Width: 448
GlyphClass: 2
Flags: W
LayerCount: 2
Fore
SplineSet
421 136.5 m 128,-1,1
 443 93 443 93 462.5 81.5 c 128,-1,2
 482 70 482 70 482 51 c 0,3,4
 482 18 482 18 434.5 -6.5 c 128,-1,5
 387 -31 387 -31 360.5 -31 c 128,-1,6
 334 -31 334 -31 321 -21.5 c 128,-1,7
 308 -12 308 -12 296.5 13 c 128,-1,8
 285 38 285 38 264 121.5 c 128,-1,9
 243 205 243 205 230 272 c 2,10,-1
 216 340 l 2,11,12
 211 364 211 364 199.5 364 c 128,-1,13
 188 364 188 364 180 336 c 128,-1,14
 172 308 172 308 172 295 c 0,15,16
 172 128 172 128 185 60 c 0,17,18
 187 54 187 54 187 46 c 0,19,20
 187 9 187 9 137 -14.5 c 128,-1,21
 87 -38 87 -38 50.5 -38 c 128,-1,22
 14 -38 14 -38 14 -5 c 1,23,-1
 17 14 l 1,24,25
 42 195 42 195 42 393 c 1,26,-1
 37 550 l 2,27,28
 35 585 35 585 18 600 c 0,29,30
 1 616 1 616 1 632 c 0,31,32
 1 668 1 668 58 701 c 128,-1,33
 115 734 115 734 147.5 734 c 128,-1,34
 180 734 180 734 182 701 c 1,35,36
 171 591 171 591 171 514 c 0,37,38
 171 483 171 483 181 483 c 0,39,40
 186 483 186 483 190 490 c 0,41,42
 204 518 204 518 236 569 c 128,-1,43
 268 620 268 620 291.5 652.5 c 128,-1,44
 315 685 315 685 342.5 712 c 128,-1,45
 370 739 370 739 388 739 c 0,46,47
 418 739 418 739 437 706 c 128,-1,48
 456 673 456 673 456 642 c 0,49,50
 456 608 456 608 415.5 608 c 128,-1,51
 375 608 375 608 327 530 c 1,52,53
 315 516 315 516 315 493 c 128,-1,54
 315 470 315 470 319.5 451.5 c 128,-1,55
 324 433 324 433 329 411 c 128,-1,56
 334 389 334 389 350.5 331 c 128,-1,57
 367 273 367 273 383 226.5 c 128,-1,0
 399 180 399 180 421 136.5 c 128,-1,1
EndSplineSet
EndChar

StartChar: L
Encoding: 76 76 47
Width: 372
GlyphClass: 2
Flags: W
LayerCount: 2
Fore
SplineSet
335 26 m 128,-1,1
 298 -16 298 -16 158 -16 c 0,2,3
 94 -16 94 -16 61.5 -9 c 128,-1,4
 29 -2 29 -2 22 6.5 c 128,-1,5
 15 15 15 15 15 31 c 1,6,-1
 17 46 l 1,7,8
 40 170 40 170 40 383 c 1,9,-1
 36 553 l 1,10,11
 34 589 34 589 13 618 c 1,12,13
 0 631 0 631 0 645 c 0,14,15
 0 678 0 678 60.5 710 c 128,-1,16
 121 742 121 742 155 742 c 128,-1,17
 189 742 189 742 189 714 c 1,18,19
 176 614 176 614 173.5 531.5 c 128,-1,20
 171 449 171 449 171 343.5 c 128,-1,21
 171 238 171 238 172 216 c 128,-1,22
 173 194 173 194 173.5 192 c 128,-1,23
 174 190 174 190 176.5 185 c 128,-1,24
 179 180 179 180 184 176 c 0,25,26
 196 167 196 167 221 167 c 0,27,28
 276 167 276 167 309 205 c 1,29,30
 325 221 325 221 341 221 c 0,31,32
 372 221 372 221 372 162 c 0,33,0
 372 68 372 68 335 26 c 128,-1,1
EndSplineSet
EndChar

StartChar: M
Encoding: 77 77 48
Width: 621
GlyphClass: 2
Flags: W
LayerCount: 2
Fore
SplineSet
136 298 m 1,0,-1
 138 139 l 1,1,-1
 135 52 l 2,2,3
 133 23 133 23 114.5 3 c 128,-1,4
 96 -17 96 -17 70 -25 c 0,5,6
 26 -39 26 -39 1.5 -39 c 128,-1,7
 -23 -39 -23 -39 -23 -17 c 1,8,-1
 -21 -5 l 1,9,10
 -9 29 -9 29 8 104 c 1,11,-1
 13 129 l 1,12,13
 41 287 41 287 41 503 c 0,14,15
 41 585 41 585 23 621 c 1,16,17
 11 634 11 634 11 650 c 0,18,19
 11 694 11 694 84.5 719.5 c 128,-1,20
 158 745 158 745 208.5 745 c 128,-1,21
 259 745 259 745 270 703 c 1,22,23
 283 658 283 658 291 608 c 0,24,25
 308 503 308 503 322 503 c 0,26,27
 332 503 332 503 338 515 c 1,28,29
 373 604 373 604 383.5 636 c 128,-1,30
 394 668 394 668 397 676 c 128,-1,31
 400 684 400 684 417 701 c 128,-1,32
 434 718 434 718 460 726 c 1,33,34
 499 741 499 741 548 741 c 0,35,36
 629 741 629 741 629 706 c 0,37,38
 629 695 629 695 620 677 c 1,39,40
 595 640 595 640 585 533 c 128,-1,41
 575 426 575 426 575 322 c 0,42,43
 575 113 575 113 604 93 c 1,44,45
 623 78 623 78 623 57.5 c 128,-1,46
 623 37 623 37 595 17 c 128,-1,47
 567 -3 567 -3 534 -13 c 128,-1,48
 501 -23 501 -23 477.5 -23 c 128,-1,49
 454 -23 454 -23 441 -13 c 128,-1,50
 428 -3 428 -3 426 7 c 2,51,-1
 424 17 l 1,52,53
 419 34 419 34 419 80 c 0,54,55
 419 154 419 154 429 274 c 2,56,-1
 432 310 l 1,57,58
 441 390 441 390 441 435.5 c 128,-1,59
 441 481 441 481 433 481 c 0,60,61
 413 481 413 481 360 294 c 0,62,63
 338 218 338 218 323 184 c 2,64,-1
 317 170 l 1,65,66
 303 134 303 134 268 134 c 0,67,68
 257 134 257 134 250 140 c 128,-1,69
 243 146 243 146 241 158 c 1,70,71
 223 204 223 204 180 400 c 2,72,-1
 166 464 l 1,73,74
 161 480 161 480 153 480 c 0,75,76
 136 480 136 480 136 298 c 1,0,-1
EndSplineSet
EndChar

StartChar: N
Encoding: 78 78 49
Width: 498
GlyphClass: 2
Flags: W
LayerCount: 2
Fore
SplineSet
51 474 m 1,0,-1
 49 533 l 1,1,-1
 49 539 l 2,2,3
 49 568 49 568 36 600 c 2,4,-1
 32 610 l 1,5,6
 21 624 21 624 21 643 c 128,-1,7
 21 662 21 662 43 681.5 c 128,-1,8
 65 701 65 701 97 712 c 0,9,10
 164 735 164 735 211 735 c 128,-1,11
 258 735 258 735 267 695 c 1,12,13
 279 655 279 655 293.5 586.5 c 128,-1,14
 308 518 308 518 314 495 c 0,15,16
 330 428 330 428 349 391 c 1,17,18
 352 388 352 388 356 388 c 0,19,20
 366 388 366 388 368 411 c 1,21,22
 368 501 368 501 364.5 550.5 c 128,-1,23
 361 600 361 600 361 626.5 c 128,-1,24
 361 653 361 653 364 662 c 0,25,26
 375 695 375 695 409.5 717 c 128,-1,27
 444 739 444 739 475.5 739 c 128,-1,28
 507 739 507 739 507 714 c 0,29,30
 507 708 507 708 493 638 c 0,31,32
 459 461 459 461 459 208 c 0,33,34
 459 124 459 124 465 31 c 1,35,-1
 465 27 l 2,36,37
 465 -5 465 -5 431 -14 c 0,38,39
 405 -21 405 -21 375.5 -21 c 128,-1,40
 346 -21 346 -21 307.5 -7.5 c 128,-1,41
 269 6 269 6 264 37 c 0,42,43
 236 205 236 205 191 374 c 2,44,-1
 176 431 l 1,45,46
 170 447 170 447 162 447 c 0,47,48
 145 447 145 447 145 237 c 0,49,50
 145 165 145 165 148 110 c 128,-1,51
 151 55 151 55 151 45 c 0,52,53
 151 18 151 18 132.5 -0.5 c 128,-1,54
 114 -19 114 -19 87 -26 c 0,55,56
 42 -39 42 -39 16 -39 c 128,-1,57
 -10 -39 -10 -39 -10 -15 c 0,58,59
 -10 -7 -10 -7 6 52.5 c 128,-1,60
 22 112 22 112 25 128 c 0,61,62
 51 258 51 258 51 443 c 2,63,-1
 51 474 l 1,0,-1
EndSplineSet
EndChar

StartChar: O
Encoding: 79 79 50
Width: 469
GlyphClass: 2
Flags: W
LayerCount: 2
Fore
SplineSet
245 746 m 0,0,1
 294 746 294 746 338 715 c 0,2,3
 459 630 459 630 459 341 c 0,4,5
 459 215 459 215 408 102 c 0,6,7
 383 45 383 45 336 10 c 128,-1,8
 289 -25 289 -25 232.5 -25 c 128,-1,9
 176 -25 176 -25 136.5 -0.5 c 128,-1,10
 97 24 97 24 73.5 61 c 128,-1,11
 50 98 50 98 35 146 c 0,12,13
 10 227 10 227 10 305.5 c 128,-1,14
 10 384 10 384 21 450 c 128,-1,15
 32 516 32 516 56 586 c 128,-1,16
 80 656 80 656 129 701 c 128,-1,17
 178 746 178 746 245 746 c 0,0,1
256 624 m 0,18,19
 225 624 225 624 198.5 571 c 128,-1,20
 172 518 172 518 158.5 449 c 128,-1,21
 145 380 145 380 145 319 c 128,-1,22
 145 258 145 258 162.5 225 c 128,-1,23
 180 192 180 192 208 192 c 0,24,25
 251 192 251 192 282.5 267 c 128,-1,26
 314 342 314 342 314 483 c 128,-1,27
 314 624 314 624 256 624 c 0,18,19
EndSplineSet
EndChar

StartChar: P
Encoding: 80 80 51
Width: 379
GlyphClass: 2
Flags: W
LayerCount: 2
Fore
SplineSet
205 275 m 1,0,1
 192 268 192 268 184.5 255.5 c 128,-1,2
 177 243 177 243 175 225 c 1,3,4
 177 109 177 109 182 85.5 c 128,-1,5
 187 62 187 62 187 54 c 0,6,7
 187 18 187 18 137.5 -6 c 128,-1,8
 88 -30 88 -30 50.5 -30 c 128,-1,9
 13 -30 13 -30 13 6 c 1,10,-1
 15 22 l 1,11,12
 39 200 39 200 39 391 c 1,13,-1
 34 553 l 2,14,15
 34 579 34 579 17.5 604 c 128,-1,16
 1 629 1 629 1 647 c 0,17,18
 1 679 1 679 43.5 704 c 128,-1,19
 86 729 86 729 135.5 739.5 c 128,-1,20
 185 750 185 750 212.5 750 c 128,-1,21
 240 750 240 750 259 748 c 128,-1,22
 278 746 278 746 313.5 736 c 128,-1,23
 349 726 349 726 376 709 c 128,-1,24
 403 692 403 692 423.5 656 c 128,-1,25
 444 620 444 620 444 563.5 c 128,-1,26
 444 507 444 507 419.5 452.5 c 128,-1,27
 395 398 395 398 360 366 c 0,28,29
 289 302 289 302 230 283 c 2,30,-1
 205 275 l 1,0,1
279 528.5 m 128,-1,32
 282 553 282 553 282 571.5 c 128,-1,33
 282 590 282 590 277.5 607.5 c 128,-1,34
 273 625 273 625 267 633.5 c 128,-1,35
 261 642 261 642 253 647 c 0,36,37
 242 654 242 654 232 654 c 0,38,39
 209 654 209 654 195 632 c 128,-1,40
 181 610 181 610 181 586 c 1,41,42
 173 535 173 535 173 474 c 128,-1,43
 173 413 173 413 174 403 c 1,44,45
 174 386 174 386 188 386 c 0,46,47
 197 386 197 386 209 394 c 0,48,49
 240 414 240 414 258 459 c 128,-1,31
 276 504 276 504 279 528.5 c 128,-1,32
EndSplineSet
EndChar

StartChar: Q
Encoding: 81 81 52
Width: 469
GlyphClass: 2
Flags: W
LayerCount: 2
Fore
SplineSet
245 746 m 0,0,1
 294 746 294 746 338 715 c 0,2,3
 459 630 459 630 459 341 c 0,4,5
 459 175 459 175 391 70 c 1,6,7
 407 54 407 54 423 53 c 1,8,9
 452 49 452 49 452 28 c 0,10,11
 452 -8 452 -8 409.5 -34.5 c 128,-1,12
 367 -61 367 -61 331 -61 c 0,13,14
 314 -61 314 -61 308.5 -57.5 c 128,-1,15
 303 -54 303 -54 301.5 -53.5 c 128,-1,16
 300 -53 300 -53 292 -44 c 128,-1,17
 284 -35 284 -35 275 -19 c 1,18,19
 252 -25 252 -25 227 -25 c 0,20,21
 176 -25 176 -25 136.5 -0.5 c 128,-1,22
 97 24 97 24 73.5 61 c 128,-1,23
 50 98 50 98 35 146 c 0,24,25
 10 227 10 227 10 305.5 c 128,-1,26
 10 384 10 384 21 450 c 128,-1,27
 32 516 32 516 56 586 c 128,-1,28
 80 656 80 656 129 701 c 128,-1,29
 178 746 178 746 245 746 c 0,0,1
256 624 m 0,30,31
 225 624 225 624 198.5 571 c 128,-1,32
 172 518 172 518 158.5 449 c 128,-1,33
 145 380 145 380 145 320 c 0,34,35
 145 179 145 179 206 179 c 0,36,37
 218 179 218 179 226 183 c 1,38,-1
 226 200 l 2,39,40
 226 230 226 230 231 253 c 1,41,42
 250 320 250 320 291 320 c 0,43,44
 297 320 297 320 300 319 c 1,45,46
 314 394 314 394 314 473 c 0,47,48
 314 624 314 624 256 624 c 0,30,31
EndSplineSet
EndChar

StartChar: R
Encoding: 82 82 53
Width: 459
GlyphClass: 2
Flags: W
LayerCount: 2
Fore
SplineSet
215 449 m 0,0,1
 284 493 284 493 284 577 c 0,2,3
 284 606 284 606 271 628 c 128,-1,4
 258 650 258 650 229 650 c 0,5,6
 173 650 173 650 173 502 c 0,7,8
 173 488 173 488 175 458 c 0,9,10
 177 441 177 441 193 441 c 0,11,12
 203 441 203 441 215 449 c 0,0,1
369 433 m 0,13,14
 354 422 354 422 354 403 c 0,15,16
 354 397 354 397 355 394 c 0,17,18
 374 271 374 271 415 152 c 0,19,20
 428 114 428 114 453 98.5 c 128,-1,21
 478 83 478 83 478 61 c 0,22,23
 478 27 478 27 433.5 5.5 c 128,-1,24
 389 -16 389 -16 351 -16 c 0,25,26
 310 -16 310 -16 294 18 c 0,27,28
 291 23 291 23 291 24 c 0,29,30
 263 78 263 78 245 238 c 0,31,32
 237 310 237 310 235 319 c 1,33,34
 235 330 235 330 221 330 c 0,35,36
 193 330 193 330 183 309 c 1,37,38
 175 288 175 288 175 206 c 128,-1,39
 175 124 175 124 180.5 93 c 128,-1,40
 186 62 186 62 186 54 c 0,41,42
 186 17 186 17 136.5 -7 c 128,-1,43
 87 -31 87 -31 44 -31 c 0,44,45
 10 -31 10 -31 10 2 c 1,46,-1
 13 22 l 1,47,48
 38 208 38 208 38 406 c 1,49,-1
 34 553 l 2,50,51
 34 578 34 578 17.5 605 c 128,-1,52
 1 632 1 632 1 647 c 0,53,54
 1 694 1 694 85 723 c 128,-1,55
 169 752 169 752 239 752 c 0,56,57
 287 752 287 752 327.5 740.5 c 128,-1,58
 368 729 368 729 391.5 713 c 128,-1,59
 415 697 415 697 432 667 c 128,-1,60
 449 637 449 637 449 596 c 0,61,62
 449 497 449 497 369 433 c 0,13,14
EndSplineSet
EndChar

StartChar: S
Encoding: 83 83 54
Width: 408
GlyphClass: 2
Flags: W
LayerCount: 2
Fore
SplineSet
374 301 m 128,-1,1
 392 253 392 253 392 199.5 c 128,-1,2
 392 146 392 146 378.5 106 c 128,-1,3
 365 66 365 66 342.5 43 c 128,-1,4
 320 20 320 20 297.5 5 c 128,-1,5
 275 -10 275 -10 249 -16 c 0,6,7
 210 -25 210 -25 190 -25 c 0,8,9
 102 -25 102 -25 51.5 26 c 128,-1,10
 1 77 1 77 1 159 c 0,11,12
 1 205 1 205 23.5 245.5 c 128,-1,13
 46 286 46 286 81 286 c 0,14,15
 93 286 93 286 100.5 277 c 128,-1,16
 108 268 108 268 110 246 c 128,-1,17
 112 224 112 224 119 203.5 c 128,-1,18
 126 183 126 183 134 173.5 c 128,-1,19
 142 164 142 164 152 158 c 0,20,21
 166 151 166 151 176 151 c 0,22,23
 201 151 201 151 215 168.5 c 128,-1,24
 229 186 229 186 229 215 c 128,-1,25
 229 244 229 244 210 278.5 c 128,-1,26
 191 313 191 313 164.5 344.5 c 128,-1,27
 138 376 138 376 111 408 c 0,28,29
 46 485 46 485 46 554 c 0,30,31
 46 644 46 644 106.5 692.5 c 128,-1,32
 167 741 167 741 261 741 c 0,33,34
 313 741 313 741 335.5 721 c 128,-1,35
 358 701 358 701 358 650.5 c 128,-1,36
 358 600 358 600 329 600 c 0,37,38
 319 600 319 600 302.5 607.5 c 128,-1,39
 286 615 286 615 265 615 c 128,-1,40
 244 615 244 615 230 598 c 128,-1,41
 216 581 216 581 216 555.5 c 128,-1,42
 216 530 216 530 234 501 c 128,-1,43
 252 472 252 472 278 443.5 c 128,-1,44
 304 415 304 415 330 382 c 128,-1,0
 356 349 356 349 374 301 c 128,-1,1
EndSplineSet
EndChar

StartChar: T
Encoding: 84 84 55
Width: 228
GlyphClass: 2
Flags: W
LayerCount: 2
Fore
SplineSet
89 732 m 1,0,-1
 184 727 l 1,1,2
 232 727 232 727 254 738 c 1,3,4
 267 743 267 743 279 743 c 0,5,6
 302 743 302 743 302 710 c 0,7,8
 302 684 302 684 290 650 c 1,9,-1
 287 639 l 1,10,11
 268 580 268 580 202 580 c 0,12,13
 188 580 188 580 188 564 c 0,14,15
 185 475 185 475 185 319.5 c 128,-1,16
 185 164 185 164 198 71 c 1,17,18
 200 65 200 65 200 57 c 0,19,20
 200 33 200 33 177 15 c 0,21,22
 125 -27 125 -27 52 -27 c 0,23,24
 17 -27 17 -27 17 6 c 1,25,-1
 20 25 l 1,26,27
 53 280 53 280 53 562 c 0,28,29
 53 569 53 569 50 572 c 128,-1,30
 47 575 47 575 30 575 c 128,-1,31
 13 575 13 575 -5.5 564 c 128,-1,32
 -24 553 -24 553 -34 553 c 0,33,34
 -55 553 -55 553 -55 582.5 c 128,-1,35
 -55 612 -55 612 -40.5 652 c 128,-1,36
 -26 692 -26 692 -0.5 712 c 128,-1,37
 25 732 25 732 89 732 c 1,0,-1
EndSplineSet
EndChar

StartChar: U
Encoding: 85 85 56
Width: 453
GlyphClass: 2
Flags: W
LayerCount: 2
Fore
SplineSet
176 502 m 2,0,-1
 171 372 l 1,1,2
 171 228 171 228 221 228 c 0,3,4
 247 228 247 228 261 252 c 0,5,6
 278 282 278 282 281.5 308.5 c 128,-1,7
 285 335 285 335 287 352 c 128,-1,8
 289 369 289 369 290 395.5 c 128,-1,9
 291 422 291 422 291 439 c 2,10,-1
 291 483 l 2,11,12
 291 572 291 572 281 618 c 1,13,14
 277 627 277 627 277 641 c 0,15,16
 277 681 277 681 327 711.5 c 128,-1,17
 377 742 377 742 415 742 c 128,-1,18
 453 742 453 742 453 710 c 0,19,20
 453 702 453 702 446 667 c 128,-1,21
 439 632 439 632 433 570 c 128,-1,22
 427 508 427 508 426 463.5 c 128,-1,23
 425 419 425 419 424.5 354.5 c 128,-1,24
 424 290 424 290 422.5 234.5 c 128,-1,25
 421 179 421 179 403.5 127 c 128,-1,26
 386 75 386 75 362 47.5 c 128,-1,27
 338 20 338 20 306 4 c 0,28,29
 258 -21 258 -21 200.5 -21 c 128,-1,30
 143 -21 143 -21 100.5 14.5 c 128,-1,31
 58 50 58 50 42.5 99.5 c 128,-1,32
 27 149 27 149 27 210 c 1,33,-1
 32 445 l 1,34,-1
 32 496 l 1,35,-1
 31 551 l 2,36,37
 31 591 31 591 13 615 c 1,38,39
 1 627 1 627 1 643 c 0,40,41
 1 682 1 682 59 712 c 128,-1,42
 117 742 117 742 156 742 c 128,-1,43
 195 742 195 742 195 714 c 0,44,45
 195 712 195 712 191 676 c 0,46,47
 177 554 177 554 176 502 c 2,0,-1
EndSplineSet
EndChar

StartChar: V
Encoding: 86 86 57
Width: 350
GlyphClass: 2
Flags: W
LayerCount: 2
Fore
SplineSet
429 693 m 0,0,1
 411 560 411 560 364 399.5 c 128,-1,2
 317 239 317 239 280 145 c 2,3,-1
 242 51 l 1,4,5
 208 -27 208 -27 127 -27 c 0,6,7
 76 -27 76 -27 73 9 c 0,8,9
 63 120 63 120 41.5 255 c 128,-1,10
 20 390 20 390 4 470 c 1,11,-1
 -13 549 l 2,12,13
 -23 594 -23 594 -43 613.5 c 128,-1,14
 -63 633 -63 633 -63 649 c 0,15,16
 -63 683 -63 683 -9.5 713.5 c 128,-1,17
 44 744 44 744 83.5 744 c 128,-1,18
 123 744 123 744 129 706 c 1,19,20
 143 640 143 640 155 494 c 1,21,22
 171 347 171 347 185 292 c 1,23,24
 189 282 189 282 194.5 282 c 128,-1,25
 200 282 200 282 207.5 295.5 c 128,-1,26
 215 309 215 309 226 336 c 128,-1,27
 237 363 237 363 256 432 c 128,-1,28
 275 501 275 501 275 557.5 c 128,-1,29
 275 614 275 614 251 649 c 0,30,31
 245 657 245 657 245 669 c 0,32,33
 245 701 245 701 293.5 722.5 c 128,-1,34
 342 744 342 744 381 744 c 0,35,36
 430 744 430 744 430 704 c 0,37,38
 430 697 430 697 429 693 c 0,0,1
EndSplineSet
EndChar

StartChar: W
Encoding: 87 87 58
Width: 632
GlyphClass: 2
Flags: W
LayerCount: 2
Fore
SplineSet
356 9 m 1,0,1
 331 303 331 303 317 303 c 0,2,3
 312 303 312 303 307 292 c 1,4,5
 251 109 251 109 225 51 c 1,6,7
 208 16 208 16 177 -5.5 c 128,-1,8
 146 -27 146 -27 103 -27 c 0,9,10
 85 -27 85 -27 72.5 -18 c 128,-1,11
 60 -9 60 -9 60 9 c 1,12,13
 52 120 52 120 30.5 255 c 128,-1,14
 9 390 9 390 -8 470 c 2,15,-1
 -25 549 l 2,16,17
 -35 595 -35 595 -54.5 614.5 c 128,-1,18
 -74 634 -74 634 -74 649 c 0,19,20
 -74 682 -74 682 -21.5 713 c 128,-1,21
 31 744 31 744 70 744 c 128,-1,22
 109 744 109 744 114 706 c 1,23,24
 128 640 128 640 140 494 c 1,25,26
 156 347 156 347 170 292 c 1,27,28
 174 282 174 282 180 282 c 128,-1,29
 186 282 186 282 191 293 c 0,30,31
 260 442 260 442 260 578 c 0,32,33
 260 622 260 622 250.5 642 c 128,-1,34
 241 662 241 662 241 677 c 128,-1,35
 241 692 241 692 260 707 c 1,36,37
 275 722 275 722 304 733.5 c 128,-1,38
 333 745 333 745 359 745 c 128,-1,39
 385 745 385 745 396.5 738 c 128,-1,40
 408 731 408 731 414.5 699.5 c 128,-1,41
 421 668 421 668 432 528 c 1,42,43
 452 347 452 347 465 292 c 1,44,45
 469 282 469 282 474.5 282 c 128,-1,46
 480 282 480 282 487 293 c 1,47,48
 513 353 513 353 533 426.5 c 128,-1,49
 553 500 553 500 553 557 c 128,-1,50
 553 614 553 614 529 649 c 0,51,52
 524 657 524 657 524 668 c 0,53,54
 524 700 524 700 571.5 722 c 128,-1,55
 619 744 619 744 662.5 744 c 128,-1,56
 706 744 706 744 706 704 c 1,57,-1
 705 693 l 1,58,59
 686 557 686 557 640 396.5 c 128,-1,60
 594 236 594 236 558 144 c 2,61,-1
 521 51 l 1,62,63
 487 -27 487 -27 399 -27 c 0,64,65
 381 -27 381 -27 368.5 -18 c 128,-1,66
 356 -9 356 -9 356 9 c 1,0,1
EndSplineSet
EndChar

StartChar: X
Encoding: 88 88 59
Width: 506
GlyphClass: 2
Flags: W
LayerCount: 2
Fore
SplineSet
341 377 m 0,0,1
 363 302 363 302 402.5 227.5 c 128,-1,2
 442 153 442 153 473 138 c 1,3,-1
 487 132 l 2,4,5
 501 127 501 127 506 122 c 128,-1,6
 511 117 511 117 511 107 c 0,7,8
 511 66 511 66 457 20.5 c 128,-1,9
 403 -25 403 -25 363 -25 c 0,10,11
 345 -25 345 -25 332 -15.5 c 128,-1,12
 319 -6 319 -6 314 4 c 2,13,-1
 310 14 l 1,14,15
 300 28 300 28 277 93 c 128,-1,16
 254 158 254 158 235 229 c 0,17,18
 232 239 232 239 228 239 c 0,19,20
 222 239 222 239 218 231 c 0,21,22
 188 174 188 174 149 72 c 2,23,-1
 137 41 l 1,24,25
 114 -15 114 -15 40.5 -15 c 128,-1,26
 -33 -15 -33 -15 -33 15 c 0,27,28
 -33 28 -33 28 -16 47 c 1,29,30
 17 79 17 79 63.5 163 c 128,-1,31
 110 247 110 247 140 315 c 2,32,-1
 169 383 l 2,33,34
 174 396 174 396 174 410 c 1,35,-1
 171 430 l 1,36,37
 138 570 138 570 75 617 c 0,38,39
 54 633 54 633 54 653 c 0,40,41
 54 687 54 687 102 715.5 c 128,-1,42
 150 744 150 744 187.5 744 c 128,-1,43
 225 744 225 744 237 706 c 1,44,45
 255 663 255 663 282 570 c 0,46,47
 286 559 286 559 292 559 c 128,-1,48
 298 559 298 559 302 568 c 0,49,50
 343 657 343 657 354 700 c 1,51,-1
 357 709 l 2,52,53
 359 715 359 715 372 727 c 128,-1,54
 385 739 385 739 409.5 747.5 c 128,-1,55
 434 756 434 756 470 756 c 0,56,57
 526 756 526 756 526 731 c 0,58,59
 526 719 526 719 515 707 c 128,-1,60
 504 695 504 695 488 675.5 c 128,-1,61
 472 656 472 656 428 583 c 128,-1,62
 384 510 384 510 345 422 c 0,63,64
 339 409 339 409 339 395.5 c 128,-1,65
 339 382 339 382 341 377 c 0,0,1
EndSplineSet
EndChar

StartChar: Y
Encoding: 89 89 60
Width: 289
GlyphClass: 2
Flags: W
LayerCount: 2
Fore
SplineSet
251 658 m 1,0,-1
 247 685 l 1,1,2
 247 708 247 708 279 729.5 c 128,-1,3
 311 751 311 751 375 751 c 0,4,5
 422 751 422 751 422 724 c 0,6,7
 422 712 422 712 413 689.5 c 128,-1,8
 404 667 404 667 322.5 512 c 128,-1,9
 241 357 241 357 231 329 c 0,10,11
 214 281 214 281 211 232 c 2,12,-1
 210 215 l 1,13,14
 214 72 214 72 216.5 62 c 128,-1,15
 219 52 219 52 219 44 c 0,16,17
 219 20 219 20 196 1 c 1,18,19
 148 -36 148 -36 66 -36 c 0,20,21
 32 -36 32 -36 32 -4 c 1,22,-1
 35 16 l 2,23,24
 36 21 36 21 42 48 c 128,-1,25
 48 75 48 75 50.5 88 c 128,-1,26
 53 101 53 101 56 129 c 0,27,28
 64 189 64 189 64 240 c 0,29,30
 64 316 64 316 58 342 c 1,31,32
 26 446 26 446 -2 521 c 1,33,-1
 -12 546 l 1,34,35
 -29 596 -29 596 -64 623 c 1,36,37
 -83 639 -83 639 -83 658 c 0,38,39
 -83 694 -83 694 -30.5 718 c 128,-1,40
 22 742 22 742 62 742 c 128,-1,41
 102 742 102 742 110 709 c 0,42,43
 113 698 113 698 124 650 c 0,44,45
 149 534 149 534 171 482 c 0,46,47
 174 474 174 474 178 474 c 128,-1,48
 182 474 182 474 188 481 c 1,49,50
 207 510 207 510 229 568.5 c 128,-1,51
 251 627 251 627 251 658 c 1,0,-1
EndSplineSet
EndChar

StartChar: Z
Encoding: 90 90 61
Width: 415
GlyphClass: 2
Flags: W
LayerCount: 2
Fore
SplineSet
414 168 m 0,0,1
 414 -7 414 -7 311 -14 c 1,2,3
 237 -22 237 -22 152 -22 c 0,4,5
 0 -22 0 -22 0 31 c 0,6,7
 0 69 0 69 36.5 159 c 128,-1,8
 73 249 73 249 110 320 c 1,9,-1
 146 392 l 1,10,11
 241 575 241 575 241 591 c 128,-1,12
 241 607 241 607 215.5 607 c 128,-1,13
 190 607 190 607 162.5 593.5 c 128,-1,14
 135 580 135 580 122 566 c 2,15,-1
 109 553 l 1,16,17
 93 533 93 533 76 533 c 0,18,19
 52 533 52 533 52 595 c 128,-1,20
 52 657 52 657 75 694 c 0,21,22
 91 719 91 719 128 725 c 1,23,24
 192 733 192 733 264 733 c 128,-1,25
 336 733 336 733 361.5 730.5 c 128,-1,26
 387 728 387 728 394.5 726.5 c 128,-1,27
 402 725 402 725 414 715 c 128,-1,28
 426 705 426 705 426 686 c 128,-1,29
 426 667 426 667 407.5 638.5 c 128,-1,30
 389 610 389 610 366 569.5 c 128,-1,31
 343 529 343 529 296.5 421 c 128,-1,32
 250 313 250 313 232 226 c 0,33,34
 230 220 230 220 230 204 c 0,35,36
 230 176 230 176 278 176 c 128,-1,37
 326 176 326 176 364 216 c 1,38,39
 370 224 370 224 385 224 c 128,-1,40
 400 224 400 224 407 212.5 c 128,-1,41
 414 201 414 201 414 168 c 0,0,1
EndSplineSet
EndChar

StartChar: bracketleft
Encoding: 91 91 62
Width: 181
GlyphClass: 2
Flags: W
LayerCount: 2
Fore
SplineSet
121 670 m 2,0,-1
 121 35 l 2,1,2
 121 20 121 20 134 -6 c 1,3,4
 180 -67 180 -67 180 -88 c 0,5,6
 180 -100 180 -100 166 -100 c 1,7,-1
 141 -94 l 1,8,9
 56 -62 56 -62 24 -12 c 0,10,11
 17 -1 17 -1 15 12 c 1,12,-1
 15 693 l 2,13,14
 15 700 15 700 23 714.5 c 128,-1,15
 31 729 31 729 43 741 c 0,16,17
 74 772 74 772 141 799 c 0,18,19
 156 805 156 805 168.5 805 c 128,-1,20
 181 805 181 805 181 793 c 0,21,22
 181 780 181 780 169 762 c 0,23,24
 143 723 143 723 134 711 c 1,25,26
 121 683 121 683 121 670 c 2,0,-1
EndSplineSet
EndChar

StartChar: backslash
Encoding: 92 92 63
Width: 374
GlyphClass: 2
Flags: W
LayerCount: 2
Fore
SplineSet
345 -23 m 0,0,1
 332 -23 332 -23 322 -16.5 c 128,-1,2
 312 -10 312 -10 305 2 c 2,3,-1
 -118 722 l 2,4,5
 -121 728 -121 728 -121 733 c 0,6,7
 -121 751 -121 751 -86 751 c 0,8,9
 -72 751 -72 751 -61.5 746.5 c 128,-1,10
 -51 742 -51 742 -45 734 c 1,11,-1
 378 14 l 1,12,13
 385 5 385 5 385 -4 c 0,14,15
 385 -23 385 -23 345 -23 c 0,0,1
EndSplineSet
EndChar

StartChar: bracketright
Encoding: 93 93 64
Width: 181
GlyphClass: 2
Flags: W
LayerCount: 2
Fore
SplineSet
60 35 m 2,0,-1
 60 670 l 2,1,2
 60 683 60 683 47 711 c 1,3,4
 0 774 0 774 0 789.5 c 128,-1,5
 0 805 0 805 14 805 c 1,6,-1
 40 799 l 1,7,8
 95 777 95 777 126.5 750.5 c 128,-1,9
 158 724 158 724 162 708 c 2,10,-1
 166 693 l 1,11,-1
 166 12 l 2,12,13
 166 5 166 5 158 -9.5 c 128,-1,14
 150 -24 150 -24 138 -36 c 0,15,16
 104 -70 104 -70 40 -94 c 0,17,18
 26 -100 26 -100 13.5 -100 c 128,-1,19
 1 -100 1 -100 1 -83.5 c 128,-1,20
 1 -67 1 -67 47 -6 c 1,21,22
 60 21 60 21 60 35 c 2,0,-1
EndSplineSet
EndChar

StartChar: asciicircum
Encoding: 94 94 65
Width: 409
GlyphClass: 2
Flags: W
LayerCount: 2
Fore
SplineSet
333 171 m 1,0,1
 233 263 233 263 209 263 c 0,2,3
 197 263 197 263 82 178 c 1,4,5
 69 167 69 167 61 167 c 0,6,7
 50 167 50 167 50 179.5 c 128,-1,8
 50 192 50 192 61 210 c 128,-1,9
 72 228 72 228 87 248.5 c 128,-1,10
 102 269 102 269 133 303.5 c 128,-1,11
 164 338 164 338 179 338 c 0,12,13
 180 338 180 338 180 338 c 2,14,15
 193 338 193 338 207 322 c 0,16,17
 209 320 209 320 210.5 320 c 128,-1,18
 212 320 212 320 216 325 c 0,19,20
 228 338 228 338 238 338 c 2,21,-1
 242 338 l 2,22,23
 257 338 257 338 283 306.5 c 128,-1,24
 309 275 309 275 328 244 c 2,25,-1
 346 213 l 2,26,27
 359 191 359 191 359 178.5 c 128,-1,28
 359 166 359 166 348 166 c 0,29,30
 340 166 340 166 333 171 c 1,0,1
EndSplineSet
EndChar

StartChar: underscore
Encoding: 95 95 66
Width: 474
GlyphClass: 2
Flags: W
LayerCount: 2
Fore
SplineSet
333 -17 m 2,0,-1
 449 -16 l 2,1,2
 472 -16 472 -16 485.5 -27.5 c 128,-1,3
 499 -39 499 -39 499 -51.5 c 128,-1,4
 499 -64 499 -64 488.5 -73 c 128,-1,5
 478 -82 478 -82 462 -82 c 2,6,-1
 327 -81 l 1,7,-1
 6 -82 l 2,8,9
 -11 -82 -11 -82 -20.5 -74 c 128,-1,10
 -30 -66 -30 -66 -30 -53 c 128,-1,11
 -30 -40 -30 -40 -17.5 -28.5 c 128,-1,12
 -5 -17 -5 -17 18 -16 c 1,13,14
 223 -17 223 -17 333 -17 c 2,0,-1
EndSplineSet
EndChar

StartChar: grave
Encoding: 96 96 67
Width: 389
GlyphClass: 2
Flags: W
LayerCount: 2
Fore
SplineSet
159 600 m 0,0,1
 142 606 142 606 140 619 c 1,2,3
 140 636 140 636 156.5 655.5 c 128,-1,4
 173 675 173 675 188.5 675 c 128,-1,5
 204 675 204 675 224 653 c 0,6,7
 252 622 252 622 267 592 c 1,8,9
 281 569 281 569 281 557 c 128,-1,10
 281 545 281 545 270 545 c 0,11,12
 263 545 263 545 255 549 c 0,13,14
 190 590 190 590 159 600 c 0,0,1
EndSplineSet
EndChar

StartChar: a
Encoding: 97 97 68
Width: 389
GlyphClass: 2
Flags: W
LayerCount: 2
Fore
SplineSet
143 162 m 0,0,1
 143 120 143 120 173 120 c 128,-1,2
 203 120 203 120 221.5 151 c 128,-1,3
 240 182 240 182 240 206 c 0,4,5
 240 251 240 251 208 251 c 0,6,7
 179 251 179 251 161 222 c 128,-1,8
 143 193 143 193 143 162 c 0,0,1
358 321 m 1,9,-1
 355 182 l 1,10,11
 355 99 355 99 376 86 c 1,12,13
 389 76 389 76 389 60 c 0,14,15
 389 31 389 31 350.5 6 c 128,-1,16
 312 -19 312 -19 272 -19 c 0,17,18
 252 -19 252 -19 242 -10.5 c 128,-1,19
 232 -2 232 -2 232 8 c 0,20,21
 232 35 232 35 225 35 c 0,22,23
 224 35 224 35 212.5 23.5 c 128,-1,24
 201 12 201 12 178.5 0.5 c 128,-1,25
 156 -11 156 -11 121.5 -11 c 128,-1,26
 87 -11 87 -11 60.5 6 c 128,-1,27
 34 23 34 23 24 50 c 0,28,29
 6 95 6 95 6 134 c 128,-1,30
 6 173 6 173 18 207 c 128,-1,31
 30 241 30 241 48 262 c 128,-1,32
 66 283 66 283 90 299.5 c 128,-1,33
 114 316 114 316 135 323.5 c 128,-1,34
 156 331 156 331 178 336 c 0,35,36
 209 342 209 342 221 342 c 1,37,-1
 231 355 l 1,38,39
 230 389 230 389 181.5 389 c 128,-1,40
 133 389 133 389 102 370 c 0,41,42
 90 362 90 362 78 362 c 0,43,44
 54 362 54 362 54 398 c 0,45,46
 54 491 54 491 202 491 c 0,47,48
 316 491 316 491 345 415 c 0,49,50
 358 381 358 381 358 321 c 1,9,-1
EndSplineSet
EndChar

StartChar: b
Encoding: 98 98 69
Width: 400
GlyphClass: 2
Flags: W
LayerCount: 2
Fore
SplineSet
170 447 m 1,0,1
 203 483 203 483 245 483 c 128,-1,2
 287 483 287 483 315 458.5 c 128,-1,3
 343 434 343 434 358 396 c 1,4,5
 385 322 385 322 385 252.5 c 128,-1,6
 385 183 385 183 366 126 c 128,-1,7
 347 69 347 69 301 27 c 128,-1,8
 255 -15 255 -15 191 -15 c 0,9,10
 149 -15 149 -15 118 1.5 c 128,-1,11
 87 18 87 18 69.5 43 c 128,-1,12
 52 68 52 68 42 106 c 0,13,14
 25 166 25 166 25 258 c 1,15,-1
 28 343 l 1,16,17
 35 428 35 428 35 489 c 1,18,-1
 31 572 l 1,19,20
 29 589 29 589 20.5 602 c 128,-1,21
 12 615 12 615 -2 625 c 1,22,23
 -15 637 -15 637 -15 648 c 0,24,25
 -15 672 -15 672 5 688 c 1,26,-1
 12 693 l 1,27,28
 24 705 24 705 65.5 724.5 c 128,-1,29
 107 744 107 744 137.5 744 c 128,-1,30
 168 744 168 744 168 716 c 1,31,32
 157 622 157 622 157 448 c 1,33,34
 159 441 159 441 162.5 441 c 128,-1,35
 166 441 166 441 170 447 c 1,0,1
214 148 m 128,-1,37
 239 148 239 148 253 171 c 128,-1,38
 267 194 267 194 267 230 c 128,-1,39
 267 266 267 266 247 307.5 c 128,-1,40
 227 349 227 349 194 349 c 0,41,42
 172 349 172 349 158.5 326 c 128,-1,43
 145 303 145 303 145 274 c 128,-1,44
 145 245 145 245 150.5 220 c 128,-1,45
 156 195 156 195 172.5 171.5 c 128,-1,36
 189 148 189 148 214 148 c 128,-1,37
EndSplineSet
EndChar

StartChar: c
Encoding: 99 99 70
Width: 363
GlyphClass: 2
Flags: W
LayerCount: 2
Fore
SplineSet
308 190 m 0,0,1
 362 190 362 190 362 124 c 1,2,3
 361 84 361 84 345 54.5 c 128,-1,4
 329 25 329 25 309.5 10.5 c 128,-1,5
 290 -4 290 -4 262 -12 c 0,6,7
 225 -23 225 -23 181 -23 c 128,-1,8
 137 -23 137 -23 101.5 -2 c 128,-1,9
 66 19 66 19 47 55 c 0,10,11
 11 123 11 123 11 219 c 0,12,13
 11 324 11 324 58 404 c 0,14,15
 81 445 81 445 122.5 469 c 128,-1,16
 164 493 164 493 221 493 c 128,-1,17
 278 493 278 493 318.5 463.5 c 128,-1,18
 359 434 359 434 359 372 c 0,19,20
 359 298 359 298 292 298 c 0,21,22
 275 298 275 298 263.5 310.5 c 128,-1,23
 252 323 252 323 252 335.5 c 128,-1,24
 252 348 252 348 250.5 356.5 c 128,-1,25
 249 365 249 365 238.5 379.5 c 128,-1,26
 228 394 228 394 212 394 c 0,27,28
 149 394 149 394 149 268 c 0,29,30
 149 230 149 230 156 193 c 0,31,32
 171 123 171 123 212 123 c 0,33,34
 243 123 243 123 254 155 c 1,35,36
 257 169 257 169 273 179.5 c 128,-1,37
 289 190 289 190 308 190 c 0,0,1
EndSplineSet
EndChar

StartChar: d
Encoding: 100 100 71
Width: 437
GlyphClass: 2
Flags: W
LayerCount: 2
Fore
SplineSet
394 210 m 1,0,-1
 395 186 l 1,1,-1
 395 182 l 2,2,3
 395 129 395 129 427 107 c 1,4,5
 442 95 442 95 442 81 c 128,-1,6
 442 67 442 67 435 57 c 0,7,8
 413 25 413 25 380 6 c 0,9,10
 336 -20 336 -20 303 -20 c 128,-1,11
 270 -20 270 -20 267 12 c 0,12,13
 265 37 265 37 257 37 c 1,14,-1
 250 33 l 1,15,16
 216 -14 216 -14 160 -14 c 0,17,18
 119 -14 119 -14 89.5 7 c 128,-1,19
 60 28 60 28 45 64 c 0,20,21
 16 132 16 132 16 217 c 0,22,23
 16 308 16 308 62 392 c 0,24,25
 85 432 85 432 124 457.5 c 128,-1,26
 163 483 163 483 210 483 c 0,27,28
 232 483 232 483 246 477 c 2,29,-1
 260 471 l 1,30,31
 267 471 267 471 268.5 487 c 128,-1,32
 270 503 270 503 270 528.5 c 128,-1,33
 270 554 270 554 268 570.5 c 128,-1,34
 266 587 266 587 263 595 c 128,-1,35
 260 603 260 603 256 608 c 0,36,37
 250 616 250 616 236 625 c 0,38,39
 223 634 223 634 223 650 c 0,40,41
 223 683 223 683 279.5 713 c 128,-1,42
 336 743 336 743 373 743 c 0,43,44
 401 743 401 743 404 718 c 0,45,46
 406 708 406 708 406 678 c 128,-1,47
 406 648 406 648 399.5 556 c 128,-1,48
 393 464 393 464 393 380 c 2,49,-1
 393 280 l 1,50,-1
 394 229 l 1,51,-1
 394 210 l 1,0,-1
186 164 m 1,52,53
 223 164 223 164 245.5 206 c 128,-1,54
 268 248 268 248 268 281 c 0,55,56
 268 359 268 359 225 359 c 0,57,58
 190 359 190 359 166.5 314.5 c 128,-1,59
 143 270 143 270 143 230 c 0,60,61
 143 168 143 168 186 164 c 1,52,53
EndSplineSet
EndChar

StartChar: e
Encoding: 101 101 72
Width: 367
GlyphClass: 2
Flags: W
LayerCount: 2
Fore
SplineSet
146 300 m 0,0,1
 146 294 146 294 150 290 c 0,2,3
 154 285 154 285 160 285 c 0,4,5
 217 290 217 290 236 339 c 0,6,7
 241 350 241 350 243 365 c 1,8,9
 242 400 242 400 215 400 c 0,10,11
 184 400 184 400 167.5 370 c 128,-1,12
 151 340 151 340 146 300 c 0,0,1
318.5 458 m 128,-1,14
 356 424 356 424 356 355 c 128,-1,15
 356 286 356 286 301.5 241 c 128,-1,16
 247 196 247 196 164 196 c 0,17,18
 152 196 152 196 152 184 c 0,19,20
 152 160 152 160 169.5 142.5 c 128,-1,21
 187 125 187 125 217.5 125 c 128,-1,22
 248 125 248 125 272.5 153 c 128,-1,23
 297 181 297 181 315.5 181 c 128,-1,24
 334 181 334 181 345 165 c 128,-1,25
 356 149 356 149 356 119.5 c 128,-1,26
 356 90 356 90 341.5 60.5 c 128,-1,27
 327 31 327 31 307 16 c 128,-1,28
 287 1 287 1 262 -8 c 0,29,30
 225 -22 225 -22 183.5 -22 c 128,-1,31
 142 -22 142 -22 106 -2 c 128,-1,32
 70 18 70 18 50 52 c 0,33,34
 11 120 11 120 11 202.5 c 128,-1,35
 11 285 11 285 31 346 c 128,-1,36
 51 407 51 407 99.5 449.5 c 128,-1,37
 148 492 148 492 214.5 492 c 128,-1,13
 281 492 281 492 318.5 458 c 128,-1,14
EndSplineSet
EndChar

StartChar: f
Encoding: 102 102 73
Width: 238
GlyphClass: 2
Flags: W
LayerCount: 2
Fore
SplineSet
5 -80 m 1,0,1
 36 68 36 68 36 319.5 c 128,-1,2
 36 571 36 571 10 598 c 1,3,4
 1 610 1 610 1 629 c 0,5,6
 1 664 1 664 40 694 c 0,7,8
 48 700 48 700 61.5 709 c 128,-1,9
 75 718 75 718 116 732.5 c 128,-1,10
 157 747 157 747 196 747 c 0,11,12
 267 747 267 747 267 708 c 0,13,14
 267 681 267 681 245 669 c 128,-1,15
 223 657 223 657 205 640.5 c 128,-1,16
 187 624 187 624 180 613 c 2,17,-1
 174 602 l 2,18,19
 160 577 160 577 160 541.5 c 128,-1,20
 160 506 160 506 163 479 c 1,21,22
 163 466 163 466 183 465 c 1,23,24
 214 466 214 466 228 466 c 0,25,26
 255 466 255 466 255 437 c 128,-1,27
 255 408 255 408 240.5 376 c 128,-1,28
 226 344 226 344 200 342 c 1,29,30
 171 342 171 342 164 332 c 1,31,32
 159 323 159 323 159 204.5 c 128,-1,33
 159 86 159 86 168 30 c 128,-1,34
 177 -26 177 -26 177 -38 c 128,-1,35
 177 -50 177 -50 173 -58 c 0,36,37
 157 -89 157 -89 122 -108 c 1,38,39
 73 -133 73 -133 37.5 -133 c 128,-1,40
 2 -133 2 -133 2 -100 c 1,41,-1
 5 -80 l 1,0,1
EndSplineSet
EndChar

StartChar: g
Encoding: 103 103 74
Width: 427
GlyphClass: 2
Flags: W
LayerCount: 2
Fore
SplineSet
406 487 m 1,0,1
 388 325 388 325 388 157.5 c 128,-1,2
 388 -10 388 -10 370.5 -83 c 128,-1,3
 353 -156 353 -156 302.5 -203 c 128,-1,4
 252 -250 252 -250 182 -250 c 0,5,6
 141 -250 141 -250 111 -227.5 c 128,-1,7
 81 -205 81 -205 81 -165 c 0,8,9
 81 -140 81 -140 94.5 -125.5 c 128,-1,10
 108 -111 108 -111 122 -108 c 2,11,-1
 136 -106 l 1,12,13
 172 -104 172 -104 196.5 -87 c 128,-1,14
 221 -70 221 -70 231 -45 c 0,15,16
 247 -5 247 -5 247 32 c 2,17,-1
 247 40 l 1,18,19
 246 47 246 47 240 47 c 1,20,-1
 230 42 l 1,21,22
 217 23 217 23 197.5 12.5 c 128,-1,23
 178 2 178 2 164 0 c 2,24,-1
 151 -1 l 1,25,26
 108 -1 108 -1 78 21.5 c 128,-1,27
 48 44 48 44 36 80 c 0,28,29
 15 143 15 143 15 197 c 128,-1,30
 15 251 15 251 25 298.5 c 128,-1,31
 35 346 35 346 56.5 391 c 128,-1,32
 78 436 78 436 118 464 c 128,-1,33
 158 492 158 492 202 492 c 128,-1,34
 246 492 246 492 269 472 c 1,35,36
 272 466 272 466 278 466 c 128,-1,37
 284 466 284 466 288 472 c 0,38,39
 325 519 325 519 375 519 c 0,40,41
 406 519 406 519 406 487 c 1,0,1
249.5 195 m 128,-1,43
 265 221 265 221 264.5 265 c 128,-1,44
 264 309 264 309 246.5 341 c 128,-1,45
 229 373 229 373 205 373 c 128,-1,46
 181 373 181 373 165.5 346.5 c 128,-1,47
 150 320 150 320 150 277.5 c 128,-1,48
 150 235 150 235 167.5 202 c 128,-1,49
 185 169 185 169 209.5 169 c 128,-1,42
 234 169 234 169 249.5 195 c 128,-1,43
EndSplineSet
EndChar

StartChar: h
Encoding: 104 104 75
Width: 408
GlyphClass: 2
Flags: W
LayerCount: 2
Fore
SplineSet
160 461 m 1,0,-1
 161 435 l 1,1,2
 163 428 163 428 167 428 c 128,-1,3
 171 428 171 428 175 432 c 1,4,5
 188 452 188 452 218 468.5 c 128,-1,6
 248 485 248 485 275 485 c 0,7,8
 316 485 316 485 337.5 453 c 128,-1,9
 359 421 359 421 365 380 c 1,10,11
 371 310 371 310 371 262.5 c 128,-1,12
 371 215 371 215 369 175 c 1,13,14
 369 104 369 104 401 84 c 0,15,16
 417 75 417 75 417 61.5 c 128,-1,17
 417 48 417 48 410 37 c 0,18,19
 394 13 394 13 362.5 -1 c 128,-1,20
 331 -15 331 -15 308 -16 c 2,21,-1
 285 -18 l 1,22,23
 255 -17 255 -17 245 -1 c 128,-1,24
 235 15 235 15 235 49 c 1,25,-1
 244 221 l 2,26,27
 245 234 245 234 245 255 c 0,28,29
 245 337 245 337 208 337 c 0,30,31
 184 337 184 337 170.5 309 c 128,-1,32
 157 281 157 281 155.5 246.5 c 128,-1,33
 154 212 154 212 154 171 c 1,34,-1
 160 47 l 1,35,36
 160 14 160 14 137 -2 c 0,37,38
 102 -26 102 -26 51.5 -26 c 128,-1,39
 1 -26 1 -26 1 7 c 1,40,-1
 4 25 l 1,41,42
 36 180 36 180 36 437 c 1,43,44
 37 473 37 473 37 516.5 c 128,-1,45
 37 560 37 560 35.5 575.5 c 128,-1,46
 34 591 34 591 26 603.5 c 128,-1,47
 18 616 18 616 3 626 c 1,48,49
 -10 636 -10 636 -10 649 c 0,50,51
 -10 683 -10 683 46 713 c 128,-1,52
 102 743 102 743 135 743 c 0,53,54
 172 743 172 743 172 687 c 0,55,56
 172 646 172 646 166 571 c 128,-1,57
 160 496 160 496 160 461 c 1,0,-1
EndSplineSet
EndChar

StartChar: i
Encoding: 105 105 76
Width: 216
GlyphClass: 2
Flags: W
LayerCount: 2
Fore
SplineSet
45 327 m 2,0,1
 45 343 45 343 37.5 357 c 128,-1,2
 30 371 30 371 18 382 c 128,-1,3
 6 393 6 393 6 406 c 0,4,5
 6 440 6 440 58 466.5 c 128,-1,6
 110 493 110 493 145.5 493 c 128,-1,7
 181 493 181 493 182 457 c 0,8,9
 182 432 182 432 177.5 367.5 c 128,-1,10
 173 303 173 303 173 248 c 0,11,12
 173 115 173 115 197 81 c 1,13,14
 211 73 211 73 211 56 c 0,15,16
 211 23 211 23 174.5 4 c 128,-1,17
 138 -15 138 -15 92 -15 c 0,18,19
 31 -15 31 -15 31 26 c 0,20,21
 31 28 31 28 34 49 c 0,22,23
 48 129 48 129 48 228 c 1,24,-1
 45 327 l 2,0,1
192 645 m 0,25,26
 192 608 192 608 156.5 585.5 c 128,-1,27
 121 563 121 563 88 563 c 128,-1,28
 55 563 55 563 36.5 575.5 c 128,-1,29
 18 588 18 588 18 609 c 0,30,31
 18 647 18 647 54 670.5 c 128,-1,32
 90 694 90 694 122.5 694 c 128,-1,33
 155 694 155 694 173.5 681 c 128,-1,34
 192 668 192 668 192 645 c 0,25,26
EndSplineSet
EndChar

StartChar: j
Encoding: 106 106 77
Width: 216
GlyphClass: 2
Flags: W
LayerCount: 2
Fore
SplineSet
177 90 m 1,0,-1
 178 11 l 2,1,2
 178 -65 178 -65 165 -113 c 1,3,4
 148 -163 148 -163 110.5 -192 c 128,-1,5
 73 -221 73 -221 31 -221 c 128,-1,6
 -11 -221 -11 -221 -34 -202.5 c 128,-1,7
 -57 -184 -57 -184 -62 -166 c 2,8,-1
 -67 -148 l 2,9,10
 -68 -143 -68 -143 -68 -130 c 128,-1,11
 -68 -117 -68 -117 -60.5 -107 c 128,-1,12
 -53 -97 -53 -97 -38 -94 c 1,13,14
 -12 -94 -12 -94 7 -77 c 128,-1,15
 26 -60 26 -60 32.5 -46 c 128,-1,16
 39 -32 39 -32 39 -28 c 0,17,18
 54 51 54 51 54 194 c 1,19,-1
 51 327 l 2,20,21
 50 343 50 343 42.5 357 c 128,-1,22
 35 371 35 371 23 382 c 128,-1,23
 11 393 11 393 11 406 c 0,24,25
 11 440 11 440 63.5 466.5 c 128,-1,26
 116 493 116 493 151.5 493 c 128,-1,27
 187 493 187 493 187 448 c 0,28,29
 187 423 187 423 182 349 c 1,30,31
 177 193 177 193 177 90 c 1,0,-1
199 645 m 1,32,33
 196 608 196 608 162 585.5 c 128,-1,34
 128 563 128 563 96 563 c 128,-1,35
 64 563 64 563 44.5 576 c 128,-1,36
 25 589 25 589 25 612 c 0,37,38
 25 648 25 648 61.5 671 c 128,-1,39
 98 694 98 694 130 694 c 128,-1,40
 162 694 162 694 180 681 c 128,-1,41
 198 668 198 668 199 645 c 1,32,33
EndSplineSet
EndChar

StartChar: k
Encoding: 107 107 78
Width: 417
GlyphClass: 2
Flags: W
LayerCount: 2
Fore
SplineSet
172 675 m 2,0,-1
 161 418 l 1,1,2
 161 388 161 388 162 376.5 c 128,-1,3
 163 365 163 365 167.5 365 c 128,-1,4
 172 365 172 365 176 369 c 128,-1,5
 180 373 180 373 216.5 418.5 c 128,-1,6
 253 464 253 464 273.5 482 c 128,-1,7
 294 500 294 500 318 500 c 128,-1,8
 342 500 342 500 365.5 479.5 c 128,-1,9
 389 459 389 459 389 435.5 c 128,-1,10
 389 412 389 412 361 411 c 1,11,12
 323 411 323 411 303 375 c 0,13,14
 299 368 299 368 299 353 c 128,-1,15
 299 338 299 338 310 286.5 c 128,-1,16
 321 235 321 235 346 176 c 128,-1,17
 371 117 371 117 400 109 c 1,18,19
 426 100 426 100 426 81 c 0,20,21
 426 46 426 46 383.5 15.5 c 128,-1,22
 341 -15 341 -15 312.5 -15 c 128,-1,23
 284 -15 284 -15 270 6.5 c 128,-1,24
 256 28 256 28 239.5 94 c 128,-1,25
 223 160 223 160 214 215 c 2,26,-1
 205 270 l 2,27,28
 202 285 202 285 194 285 c 0,29,30
 181 285 181 285 172 269 c 128,-1,31
 163 253 163 253 161.5 235 c 128,-1,32
 160 217 160 217 160 176.5 c 128,-1,33
 160 136 160 136 163.5 95.5 c 128,-1,34
 167 55 167 55 167 47 c 0,35,36
 167 14 167 14 144 -2 c 0,37,38
 110 -26 110 -26 50 -26 c 0,39,40
 8 -26 8 -26 8 8 c 1,41,-1
 11 25 l 1,42,43
 38 166 38 166 38 437 c 1,44,45
 39 473 39 473 39 516.5 c 128,-1,46
 39 560 39 560 37 575.5 c 128,-1,47
 35 591 35 591 27 603.5 c 128,-1,48
 19 616 19 616 5 625.5 c 128,-1,49
 -9 635 -9 635 -9 650 c 0,50,51
 -9 682 -9 682 44 712.5 c 128,-1,52
 97 743 97 743 133.5 743 c 128,-1,53
 170 743 170 743 171 707 c 0,54,55
 172 695 172 695 172 675 c 2,0,-1
EndSplineSet
EndChar

StartChar: l
Encoding: 108 108 79
Width: 224
GlyphClass: 2
Flags: W
LayerCount: 2
Fore
SplineSet
182 707 m 0,0,1
 182 648 182 648 175.5 554.5 c 128,-1,2
 169 461 169 461 169 355 c 128,-1,3
 169 249 169 249 171.5 178.5 c 128,-1,4
 174 108 174 108 206 85 c 1,5,6
 223 75 223 75 223 54 c 128,-1,7
 223 33 223 33 197 15 c 0,8,9
 149 -18 149 -18 89 -18 c 0,10,11
 48 -18 48 -18 38 16 c 1,12,13
 35 30 35 30 35 49.5 c 128,-1,14
 35 69 35 69 36.5 94 c 128,-1,15
 38 119 38 119 40 159 c 0,16,17
 49 339 49 339 49 443.5 c 128,-1,18
 49 548 49 548 46 570 c 0,19,20
 42 606 42 606 21 621 c 2,21,-1
 14 626 l 2,22,23
 1 635 1 635 1 650 c 0,24,25
 1 683 1 683 57.5 713 c 128,-1,26
 114 743 114 743 146 743 c 0,27,28
 182 743 182 743 182 707 c 0,0,1
EndSplineSet
EndChar

StartChar: m
Encoding: 109 109 80
Width: 638
GlyphClass: 2
Flags: W
LayerCount: 2
Fore
SplineSet
167 255 m 2,0,-1
 165 180 l 1,1,2
 165 110 165 110 168 82.5 c 128,-1,3
 171 55 171 55 171 48 c 0,4,5
 171 15 171 15 148 -1 c 0,6,7
 110 -27 110 -27 53 -27 c 0,8,9
 12 -27 12 -27 12 8 c 1,10,-1
 14 24 l 1,11,12
 40 146 40 146 40 330 c 0,13,14
 40 346 40 346 33 359 c 128,-1,15
 26 372 26 372 11 383 c 1,16,17
 0 393 0 393 0 405 c 0,18,19
 0 437 0 437 53 467 c 128,-1,20
 106 497 106 497 136.5 497 c 128,-1,21
 167 497 167 497 169 464 c 1,22,23
 171 450 171 450 172 435 c 1,24,25
 174 428 174 428 179 428 c 0,26,27
 180 428 180 428 185 431 c 1,28,29
 198 451 198 451 229.5 468 c 128,-1,30
 261 485 261 485 291 485 c 0,31,32
 358 485 358 485 378 419 c 1,33,34
 380 416 380 416 383 416 c 128,-1,35
 386 416 386 416 390 421 c 0,36,37
 428 485 428 485 505 485 c 0,38,39
 568 485 568 485 584 420 c 0,40,41
 596 372 596 372 596 306 c 1,42,-1
 591 179 l 1,43,44
 591 102 591 102 625 84 c 0,45,46
 642 75 642 75 642 58 c 0,47,48
 642 29 642 29 601.5 5.5 c 128,-1,49
 561 -18 561 -18 516 -18 c 128,-1,50
 471 -18 471 -18 464 16 c 0,51,52
 462 25 462 25 462 62 c 1,53,-1
 468 221 l 2,54,55
 469 231 469 231 469 248 c 0,56,57
 469 336 469 336 432 336 c 0,58,59
 408 336 408 336 395.5 307.5 c 128,-1,60
 383 279 383 279 382 254 c 128,-1,61
 381 229 381 229 381 190 c 128,-1,62
 381 151 381 151 382.5 122 c 128,-1,63
 384 93 384 93 386 75.5 c 128,-1,64
 388 58 388 58 388 54 c 0,65,66
 388 24 388 24 362.5 4 c 128,-1,67
 337 -16 337 -16 287.5 -16 c 128,-1,68
 238 -16 238 -16 238 16 c 1,69,-1
 242 39 l 1,70,71
 256 104 256 104 256 251 c 0,72,73
 256 339 256 339 218 339 c 0,74,75
 193 339 193 339 180 311 c 128,-1,76
 167 283 167 283 167 255 c 2,0,-1
EndSplineSet
EndChar

StartChar: n
Encoding: 110 110 81
Width: 440
GlyphClass: 2
Flags: W
LayerCount: 2
Fore
SplineSet
173 255 m 2,0,-1
 171 180 l 2,1,2
 171 150 171 150 174 99 c 2,3,-1
 177 48 l 1,4,5
 177 15 177 15 154 -1 c 0,6,7
 117 -27 117 -27 59 -27 c 0,8,9
 18 -27 18 -27 18 8 c 1,10,-1
 20 24 l 1,11,12
 45 141 45 141 45.5 222 c 128,-1,13
 46 303 46 303 40.5 330 c 128,-1,14
 35 357 35 357 18 375.5 c 128,-1,15
 1 394 1 394 1 406 c 0,16,17
 1 439 1 439 53 469 c 128,-1,18
 105 499 105 499 135.5 499 c 128,-1,19
 166 499 166 499 170 466 c 1,20,21
 172 422 172 422 181 422 c 0,22,23
 184 422 184 422 188 425 c 1,24,25
 192 432 192 432 200.5 442 c 128,-1,26
 209 452 209 452 237.5 468.5 c 128,-1,27
 266 485 266 485 303 485 c 128,-1,28
 340 485 340 485 364 455 c 128,-1,29
 388 425 388 425 393 384 c 0,30,31
 395 367 395 367 395 328 c 1,32,-1
 391 180 l 1,33,34
 391 112 391 112 422 87 c 1,35,36
 440 78 440 78 440 64.5 c 128,-1,37
 440 51 440 51 432 40 c 0,38,39
 394 -14 394 -14 308 -14 c 1,40,41
 267 -13 267 -13 260 19 c 0,42,43
 257 33 257 33 257 62.5 c 128,-1,44
 257 92 257 92 262.5 155.5 c 128,-1,45
 268 219 268 219 268 249 c 0,46,47
 268 338 268 338 228 338 c 0,48,49
 202 338 202 338 187.5 310 c 128,-1,50
 173 282 173 282 173 255 c 2,0,-1
EndSplineSet
EndChar

StartChar: o
Encoding: 111 111 82
Width: 393
GlyphClass: 2
Flags: W
LayerCount: 2
Fore
SplineSet
205 499 m 0,0,1
 292 499 292 499 337.5 423 c 128,-1,2
 383 347 383 347 383 237 c 0,3,4
 383 92 383 92 300 17 c 0,5,6
 254 -24 254 -24 198 -24 c 128,-1,7
 142 -24 142 -24 105.5 -1 c 128,-1,8
 69 22 69 22 50 60 c 0,9,10
 11 134 11 134 11 218 c 0,11,12
 11 316 11 316 56 402 c 0,13,14
 78 445 78 445 117 472 c 128,-1,15
 156 499 156 499 205 499 c 0,0,1
251 340 m 128,-1,17
 239 364 239 364 211.5 364 c 128,-1,18
 184 364 184 364 158.5 325.5 c 128,-1,19
 133 287 133 287 133 232 c 0,20,21
 133 155 133 155 184 155 c 0,22,23
 212 155 212 155 237.5 190 c 128,-1,24
 263 225 263 225 263 286 c 0,25,16
 263 316 263 316 251 340 c 128,-1,17
EndSplineSet
EndChar

StartChar: p
Encoding: 112 112 83
Width: 430
GlyphClass: 2
Flags: W
LayerCount: 2
Fore
SplineSet
143 501 m 0,0,1
 176 501 176 501 176 442 c 1,2,3
 179 436 179 436 182.5 436 c 128,-1,4
 186 436 186 436 190 441.5 c 128,-1,5
 194 447 194 447 200.5 454.5 c 128,-1,6
 207 462 207 462 228.5 474 c 128,-1,7
 250 486 250 486 282 486 c 128,-1,8
 314 486 314 486 344 464.5 c 128,-1,9
 374 443 374 443 390 406 c 0,10,11
 420 337 420 337 420 238 c 0,12,13
 420 207 420 207 408.5 157 c 128,-1,14
 397 107 397 107 381 73.5 c 128,-1,15
 365 40 365 40 332 14 c 128,-1,16
 299 -12 299 -12 255 -12 c 0,17,18
 231 -12 231 -12 212 -4 c 128,-1,19
 193 4 193 4 186 12 c 1,20,-1
 178 19 l 2,21,22
 175 22 175 22 172 22 c 0,23,24
 167 22 167 22 165 13 c 1,25,26
 162 -37 162 -37 162 -85.5 c 128,-1,27
 162 -134 162 -134 164.5 -162.5 c 128,-1,28
 167 -191 167 -191 167 -198 c 0,29,30
 167 -231 167 -231 144 -249 c 1,31,32
 91 -294 91 -294 15 -294 c 0,33,34
 -15 -294 -15 -294 -15 -265 c 1,35,-1
 -12 -247 l 1,36,37
 15 -170 15 -170 28.5 -73 c 128,-1,38
 42 24 42 24 44.5 94.5 c 128,-1,39
 47 165 47 165 47 235.5 c 128,-1,40
 47 306 47 306 46 328 c 0,41,42
 43 365 43 365 20 378 c 1,43,-1
 13 383 l 1,44,45
 0 395 0 395 0 407 c 0,46,47
 0 441 0 441 52.5 471 c 128,-1,48
 105 501 105 501 143 501 c 0,0,1
192.5 191.5 m 128,-1,50
 210 159 210 159 234 159 c 128,-1,51
 258 159 258 159 274 185.5 c 128,-1,52
 290 212 290 212 290 255.5 c 128,-1,53
 290 299 290 299 272 331.5 c 128,-1,54
 254 364 254 364 230 364 c 128,-1,55
 206 364 206 364 190.5 337 c 128,-1,56
 175 310 175 310 175 267 c 128,-1,49
 175 224 175 224 192.5 191.5 c 128,-1,50
EndSplineSet
EndChar

StartChar: q
Encoding: 113 113 84
Width: 440
GlyphClass: 2
Flags: W
LayerCount: 2
Fore
SplineSet
368 -34 m 1,0,1
 368 -163 368 -163 389 -247 c 0,2,3
 390 -252 390 -252 390 -259 c 0,4,5
 390 -293 390 -293 356 -293 c 0,6,7
 283 -293 283 -293 236 -249 c 0,8,9
 218 -232 218 -232 218 -206 c 1,10,-1
 221 -186 l 1,11,12
 236 -110 236 -110 241 13 c 1,13,14
 239 22 239 22 235.5 22 c 128,-1,15
 232 22 232 22 228 19 c 1,16,17
 207 -12 207 -12 154.5 -12 c 128,-1,18
 102 -12 102 -12 68 22 c 128,-1,19
 34 56 34 56 22 100.5 c 128,-1,20
 10 145 10 145 10 193.5 c 128,-1,21
 10 242 10 242 19.5 289.5 c 128,-1,22
 29 337 29 337 49 384.5 c 128,-1,23
 69 432 69 432 107 462 c 128,-1,24
 145 492 145 492 195 492 c 0,25,26
 223 492 223 492 243.5 484 c 128,-1,27
 264 476 264 476 271 468 c 2,28,-1
 278 460 l 2,29,30
 282 454 282 454 286 454 c 1,31,-1
 296 460 l 1,32,33
 306 476 306 476 330.5 489.5 c 128,-1,34
 355 503 355 503 384.5 503 c 128,-1,35
 414 503 414 503 414 484 c 0,36,37
 414 479 414 479 407.5 455.5 c 128,-1,38
 401 432 401 432 392 372 c 128,-1,39
 383 312 383 312 380 274 c 2,40,-1
 374 196 l 1,41,42
 375 184 375 184 383 184 c 0,43,44
 386 184 386 184 396 188.5 c 128,-1,45
 406 193 406 193 421 193 c 0,46,47
 440 193 440 193 440 176 c 0,48,49
 440 164 440 164 422 129.5 c 128,-1,50
 404 95 404 95 398 82 c 0,51,52
 381 50 381 50 375 22 c 1,53,-1
 368 -34 l 1,0,1
160 192 m 128,-1,55
 178 159 178 159 202 159 c 128,-1,56
 226 159 226 159 241.5 185.5 c 128,-1,57
 257 212 257 212 257 255.5 c 128,-1,58
 257 299 257 299 239 331.5 c 128,-1,59
 221 364 221 364 197 364 c 128,-1,60
 173 364 173 364 157.5 337.5 c 128,-1,61
 142 311 142 311 142 268 c 128,-1,54
 142 225 142 225 160 192 c 128,-1,55
EndSplineSet
EndChar

StartChar: r
Encoding: 114 114 85
Width: 337
GlyphClass: 2
Flags: W
LayerCount: 2
Fore
SplineSet
173 77 m 2,0,-1
 175 52 l 1,1,2
 175 19 175 19 152 3 c 0,3,4
 113 -24 113 -24 53 -24 c 0,5,6
 15 -24 15 -24 15 9 c 1,7,-1
 18 26 l 1,8,9
 42 144 42 144 42 315 c 0,10,11
 42 367 42 367 11 389 c 0,12,13
 0 396 0 396 0 412 c 0,14,15
 0 443 0 443 49.5 472.5 c 128,-1,16
 99 502 99 502 129 502 c 128,-1,17
 159 502 159 502 163 469 c 1,18,19
 167 446 167 446 167 434.5 c 128,-1,20
 167 423 167 423 175 423 c 0,21,22
 180 423 180 423 182.5 427.5 c 128,-1,23
 185 432 185 432 187.5 436.5 c 128,-1,24
 190 441 190 441 199 452.5 c 128,-1,25
 208 464 208 464 218 472 c 0,26,27
 244 495 244 495 276 495 c 0,28,29
 297 495 297 495 318 482 c 0,30,31
 357 458 357 458 357 387 c 0,32,33
 357 342 357 342 339 309 c 128,-1,34
 321 276 321 276 281 276 c 0,35,36
 231 276 231 276 231 331 c 1,37,-1
 232 346 l 1,38,39
 232 363 232 363 218 363 c 0,40,41
 165 363 165 363 165 210 c 0,42,43
 165 170 165 170 173 77 c 2,0,-1
EndSplineSet
EndChar

StartChar: s
Encoding: 115 115 86
Width: 350
GlyphClass: 2
Flags: W
LayerCount: 2
Fore
SplineSet
192 501 m 0,0,1
 324 501 324 501 324 423 c 0,2,3
 324 401 324 401 309.5 386 c 128,-1,4
 295 371 295 371 276.5 371 c 128,-1,5
 258 371 258 371 241 381 c 128,-1,6
 224 391 224 391 203 391 c 0,7,8
 152 391 152 391 152 362 c 0,9,10
 152 349 152 349 168 340 c 0,11,12
 286 281 286 281 310 244 c 0,13,14
 339 201 339 201 339 141 c 0,15,16
 339 119 339 119 329 88 c 128,-1,17
 319 57 319 57 302 35.5 c 128,-1,18
 285 14 285 14 248 -4 c 128,-1,19
 211 -22 211 -22 160 -22 c 0,20,21
 124 -22 124 -22 83 -10 c 0,22,23
 0 14 0 14 0 89 c 0,24,25
 0 124 0 124 20 149.5 c 128,-1,26
 40 175 40 175 70 175 c 128,-1,27
 100 175 100 175 113 157 c 0,28,29
 114 156 114 156 119 148 c 128,-1,30
 124 140 124 140 128 136 c 0,31,32
 141 123 141 123 162 123 c 128,-1,33
 183 123 183 123 195 133.5 c 128,-1,34
 207 144 207 144 207 162 c 128,-1,35
 207 180 207 180 179 199 c 128,-1,36
 151 218 151 218 117.5 232 c 128,-1,37
 84 246 84 246 56 276.5 c 128,-1,38
 28 307 28 307 28 348 c 0,39,40
 28 418 28 418 73.5 459.5 c 128,-1,41
 119 501 119 501 192 501 c 0,0,1
EndSplineSet
EndChar

StartChar: t
Encoding: 116 116 87
Width: 240
GlyphClass: 2
Flags: W
LayerCount: 2
Fore
SplineSet
164 633 m 1,0,-1
 162 585 l 1,1,2
 162 559 162 559 173.5 556 c 128,-1,3
 185 553 185 553 196 553 c 128,-1,4
 207 553 207 553 229 555 c 1,5,6
 250 555 250 555 250 528 c 0,7,8
 250 477 250 477 177 449 c 0,9,10
 167 445 167 445 163 431 c 1,11,12
 157 370 157 370 157 288 c 128,-1,13
 157 206 157 206 163 180 c 0,14,15
 168 156 168 156 199 151 c 1,16,17
 206 151 206 151 212 144 c 0,18,19
 223 131 223 131 223 118.5 c 128,-1,20
 223 106 223 106 221 94.5 c 128,-1,21
 219 83 219 83 211.5 62.5 c 128,-1,22
 204 42 204 42 192.5 24.5 c 128,-1,23
 181 7 181 7 158 -6 c 128,-1,24
 135 -19 135 -19 106 -19 c 0,25,26
 56 -19 56 -19 34 40 c 0,27,28
 26 63 26 63 26 95 c 2,29,-1
 34 364 l 1,30,31
 34 413 34 413 28.5 444 c 128,-1,32
 23 475 23 475 -10 502 c 1,33,34
 -24 512 -24 512 -24 530 c 128,-1,35
 -24 548 -24 548 -6 566 c 1,36,37
 49 600 49 600 95 673 c 1,38,39
 109 692 109 692 130 692 c 0,40,41
 164 692 164 692 164 633 c 1,0,-1
EndSplineSet
EndChar

StartChar: u
Encoding: 117 117 88
Width: 439
GlyphClass: 2
Flags: W
LayerCount: 2
Fore
SplineSet
28 142 m 1,0,-1
 31 304 l 2,1,2
 31 333 31 333 26 354.5 c 128,-1,3
 21 376 21 376 10.5 388.5 c 128,-1,4
 0 401 0 401 0 415 c 0,5,6
 0 446 0 446 50 472.5 c 128,-1,7
 100 499 100 499 127 499 c 128,-1,8
 154 499 154 499 163.5 488 c 128,-1,9
 173 477 173 477 173 448 c 128,-1,10
 173 419 173 419 168 356.5 c 128,-1,11
 163 294 163 294 163 281 c 0,12,13
 163 172 163 172 210 172 c 0,14,15
 244 172 244 172 256 243 c 0,16,17
 261 269 261 269 261 301 c 0,18,19
 261 365 261 365 250 396 c 1,20,21
 239 410 239 410 239 423 c 0,22,23
 239 453 239 453 284 473.5 c 128,-1,24
 329 494 329 494 363.5 494 c 128,-1,25
 398 494 398 494 398 459.5 c 128,-1,26
 398 425 398 425 391.5 352 c 128,-1,27
 385 279 385 279 385 236.5 c 128,-1,28
 385 194 385 194 386 176.5 c 128,-1,29
 387 159 387 159 396.5 124.5 c 128,-1,30
 406 90 406 90 422 80 c 1,31,32
 439 72 439 72 439 58.5 c 128,-1,33
 439 45 439 45 431 34 c 0,34,35
 394 -17 394 -17 314 -17 c 1,36,37
 269 -14 269 -14 263 17 c 2,38,-1
 256 51 l 2,39,40
 255 58 255 58 250 58 c 1,41,-1
 242 54 l 1,42,43
 206 -14 206 -14 132 -14 c 1,44,45
 28 -12 28 -12 28 142 c 1,0,-1
EndSplineSet
EndChar

StartChar: v
Encoding: 118 118 89
Width: 401
GlyphClass: 2
Flags: W
LayerCount: 2
Fore
SplineSet
387 470 m 128,-1,1
 401 434 401 434 401 391 c 128,-1,2
 401 348 401 348 387.5 300.5 c 128,-1,3
 374 253 374 253 354 216 c 0,4,5
 314 142 314 142 282 101 c 1,6,-1
 268 84 l 1,7,8
 187 -22 187 -22 142 -22 c 0,9,10
 83 -22 83 -22 48 237 c 0,11,12
 41 289 41 289 28.5 323.5 c 128,-1,13
 16 358 16 358 7 366 c 2,14,-1
 -2 374 l 1,15,16
 -19 387 -19 387 -19 403 c 0,17,18
 -19 433 -19 433 30.5 462 c 128,-1,19
 80 491 80 491 112 491 c 128,-1,20
 144 491 144 491 150 457 c 1,21,22
 159 421 159 421 169 321 c 128,-1,23
 179 221 179 221 201 182 c 1,24,25
 205 172 205 172 213.5 172 c 128,-1,26
 222 172 222 172 229 180 c 0,27,28
 277 234 277 234 277 318 c 0,29,30
 277 342 277 342 265 367 c 128,-1,31
 253 392 253 392 237 401 c 1,32,33
 222 411 222 411 222 424 c 0,34,35
 222 454 222 454 263 480 c 128,-1,36
 304 506 304 506 338.5 506 c 128,-1,0
 373 506 373 506 387 470 c 128,-1,1
EndSplineSet
EndChar

StartChar: w
Encoding: 119 119 90
Width: 628
GlyphClass: 2
Flags: W
LayerCount: 2
Fore
SplineSet
291 124 m 0,0,1
 186 -22 186 -22 139 -22 c 0,2,3
 106 -22 106 -22 84 58 c 0,4,5
 66 126 66 126 56 185.5 c 128,-1,6
 46 245 46 245 46 247 c 0,7,8
 37 295 37 295 25 327 c 128,-1,9
 13 359 13 359 6 366 c 2,10,-1
 -2 374 l 1,11,12
 -20 388 -20 388 -20 404 c 0,13,14
 -20 433 -20 433 29.5 462 c 128,-1,15
 79 491 79 491 110 491 c 128,-1,16
 141 491 141 491 147 457 c 1,17,18
 155 421 155 421 165.5 320 c 128,-1,19
 176 219 176 219 197 179 c 1,20,21
 204 169 204 169 212 169 c 128,-1,22
 220 169 220 169 226 178 c 0,23,24
 263 224 263 224 268 277 c 1,25,26
 266 345 266 345 251 379 c 0,27,28
 249 384 249 384 238.5 397 c 128,-1,29
 228 410 228 410 228 421 c 0,30,31
 228 446 228 446 272.5 471.5 c 128,-1,32
 317 497 317 497 351 497 c 128,-1,33
 385 497 385 497 387 462 c 1,34,35
 394 407 394 407 398 350 c 1,36,37
 411 219 411 219 432 179 c 0,38,39
 437 170 437 170 445.5 170 c 128,-1,40
 454 170 454 170 463 180 c 0,41,42
 507 232 507 232 507 322 c 1,43,44
 503 380 503 380 468 401 c 0,45,46
 453 411 453 411 453 424 c 0,47,48
 453 456 453 456 494 481 c 128,-1,49
 535 506 535 506 568 506 c 128,-1,50
 601 506 601 506 614.5 470 c 128,-1,51
 628 434 628 434 628 377.5 c 128,-1,52
 628 321 628 321 596 244 c 128,-1,53
 564 167 564 167 521 110.5 c 128,-1,54
 478 54 478 54 436.5 16 c 128,-1,55
 395 -22 395 -22 375 -22 c 0,56,57
 354 -22 354 -22 340 2 c 0,58,59
 323 33 323 33 316 62 c 128,-1,60
 309 91 309 91 306 105.5 c 128,-1,61
 303 120 303 120 302 123 c 0,62,63
 299 128 299 128 296.5 128 c 128,-1,64
 294 128 294 128 291 124 c 0,0,1
EndSplineSet
EndChar

StartChar: x
Encoding: 120 120 91
Width: 419
GlyphClass: 2
Flags: W
LayerCount: 2
Fore
SplineSet
198 122 m 0,0,1
 193 132 193 132 188 132 c 0,2,3
 179 132 179 132 172 121 c 0,4,5
 140 65 140 65 136 27 c 0,6,7
 131 -20 131 -20 65 -20 c 0,8,9
 37 -20 37 -20 8.5 -8 c 128,-1,10
 -20 4 -20 4 -20 29 c 0,11,12
 -20 42 -20 42 -10 52 c 1,13,14
 15 73 15 73 38 102 c 1,15,16
 81 162 81 162 104 216 c 1,17,-1
 113 236 l 2,18,19
 120 250 120 250 120 266 c 1,20,-1
 117 282 l 1,21,22
 74 366 74 366 25 391 c 0,23,24
 5 402 5 402 5 418 c 0,25,26
 5 445 5 445 44 470 c 128,-1,27
 83 495 83 495 114.5 495 c 128,-1,28
 146 495 146 495 162 460 c 1,29,30
 181 429 181 429 210 370 c 1,31,32
 215 357 215 357 222 357 c 128,-1,33
 229 357 229 357 235 367 c 0,34,35
 264 411 264 411 276.5 454 c 128,-1,36
 289 497 289 497 358 497 c 128,-1,37
 427 497 427 497 427 464 c 0,38,39
 427 452 427 452 420.5 444 c 128,-1,40
 414 436 414 436 412 433 c 128,-1,41
 410 430 410 430 402 422 c 2,42,-1
 391 411 l 1,43,44
 334 345 334 345 299 266 c 0,45,46
 295 257 295 257 295 244.5 c 128,-1,47
 295 232 295 232 306 215 c 128,-1,48
 317 198 317 198 341 174 c 128,-1,49
 365 150 365 150 378.5 143 c 128,-1,50
 392 136 392 136 404 132.5 c 128,-1,51
 416 129 416 129 425 122 c 128,-1,52
 434 115 434 115 434 98 c 0,53,54
 434 66 434 66 398 27 c 128,-1,55
 362 -12 362 -12 317 -12 c 1,56,-1
 303 -11 l 1,57,58
 281 -8 281 -8 257 25 c 128,-1,59
 233 58 233 58 198 122 c 0,0,1
EndSplineSet
EndChar

StartChar: y
Encoding: 121 121 92
Width: 415
GlyphClass: 2
Flags: W
LayerCount: 2
Fore
SplineSet
28 143 m 1,0,-1
 31 309 l 2,1,2
 31 356 31 356 15.5 381 c 128,-1,3
 0 406 0 406 0 416 c 0,4,5
 0 445 0 445 53.5 472 c 128,-1,6
 107 499 107 499 135 499 c 0,7,8
 173 499 173 499 173 450 c 0,9,10
 173 414 173 414 168 364.5 c 128,-1,11
 163 315 163 315 163 273 c 0,12,13
 163 183 163 183 204 183 c 2,14,-1
 208 183 l 2,15,16
 258 183 258 183 258 327 c 0,17,18
 258 368 258 368 246 396 c 1,19,20
 235 410 235 410 235 423 c 0,21,22
 235 452 235 452 282 473 c 128,-1,23
 329 494 329 494 364 494 c 128,-1,24
 399 494 399 494 399 460 c 0,25,26
 399 424 399 424 394 388 c 0,27,28
 385 310 385 310 385 204 c 1,29,-1
 388 79 l 1,30,31
 388 -30 388 -30 373.5 -93 c 128,-1,32
 359 -156 359 -156 309.5 -203.5 c 128,-1,33
 260 -251 260 -251 190 -251 c 0,34,35
 149 -251 149 -251 118 -228 c 128,-1,36
 87 -205 87 -205 87 -163 c 0,37,38
 87 -139 87 -139 100.5 -125 c 128,-1,39
 114 -111 114 -111 128 -109 c 2,40,-1
 141 -107 l 1,41,42
 199 -106 199 -106 225 -61 c 128,-1,43
 251 -16 251 -16 251 56 c 0,44,45
 251 73 251 73 246 73 c 1,46,-1
 237 69 l 1,47,48
 200 1 200 1 131 1 c 0,49,50
 28 1 28 1 28 143 c 1,0,-1
EndSplineSet
EndChar

StartChar: z
Encoding: 122 122 93
Width: 357
GlyphClass: 2
Flags: W
LayerCount: 2
Fore
SplineSet
254 320 m 0,0,1
 254 318 254 318 259.5 318 c 128,-1,2
 265 318 265 318 272 311.5 c 128,-1,3
 279 305 279 305 279 287 c 128,-1,4
 279 269 279 269 260 249 c 128,-1,5
 241 229 241 229 218 225 c 0,6,7
 215 225 215 225 207.5 217 c 128,-1,8
 200 209 200 209 194 192 c 128,-1,9
 188 175 188 175 188 172 c 0,10,11
 188 152 188 152 234.5 152 c 128,-1,12
 281 152 281 152 305 172 c 1,13,14
 318 181 318 181 329 181 c 0,15,16
 352 181 352 181 352 146 c 0,17,18
 352 102 352 102 338 60 c 1,19,-1
 334 46 l 1,20,21
 327 26 327 26 309 13 c 128,-1,22
 291 0 291 0 276 -3 c 2,23,-1
 262 -6 l 1,24,25
 220 -12 220 -12 159 -12 c 1,26,-1
 56 -7 l 1,27,28
 -4 -2 -4 -2 -4 42 c 0,29,30
 -4 60 -4 60 5 78 c 1,31,32
 18 120 18 120 66 200 c 1,33,-1
 82 228 l 1,34,35
 58 234 58 234 58 257 c 128,-1,36
 58 280 58 280 83.5 303 c 128,-1,37
 109 326 109 326 139 327 c 0,38,39
 146 327 146 327 165 364 c 2,40,-1
 171 376 l 2,41,42
 173 380 173 380 173 385 c 128,-1,43
 173 390 173 390 170 394 c 1,44,45
 164 399 164 399 136 399 c 0,46,47
 79 399 79 399 60 384 c 0,48,49
 49 375 49 375 40 375 c 0,50,51
 19 375 19 375 19 405 c 0,52,53
 19 426 19 426 29 458 c 1,54,55
 41 488 41 488 87.5 492.5 c 128,-1,56
 134 497 134 497 192.5 497 c 128,-1,57
 251 497 251 497 273 494.5 c 128,-1,58
 295 492 295 492 303 490 c 128,-1,59
 311 488 311 488 324 478.5 c 128,-1,60
 337 469 337 469 337 449 c 128,-1,61
 337 429 337 429 304 392 c 1,62,63
 254 331 254 331 254 320 c 0,0,1
EndSplineSet
EndChar

StartChar: braceleft
Encoding: 123 123 94
Width: 216
GlyphClass: 2
Flags: W
LayerCount: 2
Fore
SplineSet
163 590 m 1,0,-1
 167 500 l 1,1,2
 167 413 167 413 97 361 c 1,3,4
 91 358 91 358 91 353 c 128,-1,5
 91 348 91 348 97 344 c 0,6,7
 167 292 167 292 167 204 c 1,8,-1
 163 115 l 1,9,-1
 166 59 l 2,10,11
 168 34 168 34 192 -8.5 c 128,-1,12
 216 -51 216 -51 216 -58 c 0,13,14
 216 -69 216 -69 201 -69 c 0,15,16
 170 -69 170 -69 130.5 -48 c 128,-1,17
 91 -27 91 -27 73.5 -2 c 128,-1,18
 56 23 56 23 56 78 c 1,19,-1
 59 178 l 1,20,21
 59 305 59 305 6 343 c 0,22,23
 0 347 0 347 0 351 c 0,24,25
 0 358 0 358 6 362 c 0,26,27
 59 402 59 402 59 530 c 1,28,-1
 56 627 l 1,29,30
 56 682 56 682 74.5 708 c 128,-1,31
 93 734 93 734 131.5 754 c 128,-1,32
 170 774 170 774 200 774 c 0,33,34
 216 774 216 774 216 762 c 0,35,36
 216 756 216 756 192 713 c 128,-1,37
 168 670 168 670 165.5 649.5 c 128,-1,38
 163 629 163 629 163 590 c 1,0,-1
EndSplineSet
EndChar

StartChar: bar
Encoding: 124 124 95
Width: 174
GlyphClass: 2
Flags: W
LayerCount: 2
Fore
SplineSet
40 10 m 2,0,-1
 40 14 l 1,1,2
 54 676 54 676 54 734 c 0,3,4
 54 752 54 752 83 752 c 0,5,6
 134 752 134 752 134 722 c 2,7,-1
 120 2 l 2,8,9
 120 -24 120 -24 88 -24 c 0,10,11
 70 -24 70 -24 55 -14.5 c 128,-1,12
 40 -5 40 -5 40 10 c 2,0,-1
EndSplineSet
EndChar

StartChar: braceright
Encoding: 125 125 96
Width: 216
GlyphClass: 2
Flags: W
LayerCount: 2
Fore
SplineSet
53 115 m 1,0,-1
 49 205 l 1,1,2
 49 292 49 292 119 344 c 1,3,4
 125 347 125 347 125 352 c 128,-1,5
 125 357 125 357 119 361 c 0,6,7
 49 413 49 413 49 501 c 1,8,-1
 53 590 l 1,9,-1
 50 646 l 2,10,11
 48 671 48 671 24 713.5 c 128,-1,12
 0 756 0 756 0 763 c 0,13,14
 0 774 0 774 15 774 c 0,15,16
 46 774 46 774 85.5 753 c 128,-1,17
 125 732 125 732 142.5 707 c 128,-1,18
 160 682 160 682 160 627 c 1,19,-1
 157 527 l 1,20,21
 157 400 157 400 210 362 c 0,22,23
 216 358 216 358 216 354 c 0,24,25
 216 347 216 347 210 343 c 0,26,27
 157 303 157 303 157 175 c 1,28,-1
 160 78 l 1,29,30
 160 23 160 23 141.5 -3 c 128,-1,31
 123 -29 123 -29 84.5 -49 c 128,-1,32
 46 -69 46 -69 16 -69 c 0,33,34
 0 -69 0 -69 0 -57 c 0,35,36
 0 -51 0 -51 24 -8 c 128,-1,37
 48 35 48 35 50.5 55.5 c 128,-1,38
 53 76 53 76 53 115 c 1,0,-1
EndSplineSet
EndChar

StartChar: asciitilde
Encoding: 126 126 97
Width: 413
GlyphClass: 2
Flags: W
LayerCount: 2
Fore
SplineSet
106 304 m 1,0,-1
 299 292 l 1,1,2
 326 292 326 292 343 308 c 1,3,4
 350 311 350 311 357 311 c 0,5,6
 374 311 374 311 374 287 c 128,-1,7
 374 263 374 263 350.5 231.5 c 128,-1,8
 327 200 327 200 301 200 c 0,9,10
 286 200 286 200 203.5 213.5 c 128,-1,11
 121 227 121 227 98.5 227 c 128,-1,12
 76 227 76 227 62.5 221.5 c 128,-1,13
 49 216 49 216 44 216 c 0,14,15
 28 216 28 216 28 235.5 c 128,-1,16
 28 255 28 255 51.5 279.5 c 128,-1,17
 75 304 75 304 106 304 c 1,0,-1
EndSplineSet
EndChar

StartChar: exclamdown
Encoding: 161 161 98
Width: 230
GlyphClass: 2
Flags: W
LayerCount: 2
Fore
SplineSet
220 471 m 1,0,1
 217 434 217 434 183 412 c 128,-1,2
 149 390 149 390 116 390 c 128,-1,3
 83 390 83 390 65 402.5 c 128,-1,4
 47 415 47 415 47 436 c 0,5,6
 47 475 47 475 82 498 c 128,-1,7
 117 521 117 521 150 521 c 0,8,9
 218 521 218 521 220 471 c 1,0,1
77 254 m 1,10,-1
 76 291 l 2,11,12
 76 322 76 322 129 322 c 0,13,14
 138 322 138 322 147.5 321 c 128,-1,15
 157 320 157 320 172 309.5 c 128,-1,16
 187 299 187 299 187 280 c 2,17,-1
 187 275 l 1,18,19
 183 223 183 223 183 160.5 c 128,-1,20
 183 98 183 98 189.5 39.5 c 128,-1,21
 196 -19 196 -19 202 -44 c 2,22,-1
 208 -68 l 1,23,24
 214 -84 214 -84 214 -98 c 0,25,26
 214 -137 214 -137 170.5 -159.5 c 128,-1,27
 127 -182 127 -182 82 -182 c 0,28,29
 10 -182 10 -182 10 -139 c 1,30,-1
 16 -114 l 1,31,32
 77 35 77 35 77 254 c 1,10,-1
EndSplineSet
EndChar

StartChar: cent
Encoding: 162 162 99
Width: 370
GlyphClass: 2
Flags: W
LayerCount: 2
Fore
SplineSet
180 -65 m 2,0,-1
 180 -22 l 1,1,2
 84 -18 84 -18 44 58 c 0,3,4
 10 124 10 124 10 217.5 c 128,-1,5
 10 311 10 311 54 389.5 c 128,-1,6
 98 468 98 468 180 487 c 1,7,-1
 180 526 l 2,8,9
 180 537 180 537 188.5 545 c 128,-1,10
 197 553 197 553 212 553 c 0,11,12
 239 553 239 553 239 533 c 2,13,-1
 239 491 l 1,14,15
 283 488 283 488 318 463 c 128,-1,16
 353 438 353 438 358 377 c 1,17,18
 358 298 358 298 291 298 c 0,19,20
 273 298 273 298 261.5 310.5 c 128,-1,21
 250 323 250 323 250 335.5 c 128,-1,22
 250 348 250 348 248.5 356.5 c 128,-1,23
 247 365 247 365 237 379 c 128,-1,24
 227 393 227 393 206.5 393 c 128,-1,25
 186 393 186 393 170.5 370 c 128,-1,26
 155 347 155 347 151 322 c 128,-1,27
 147 297 147 297 147 272 c 128,-1,28
 147 247 147 247 149.5 226 c 128,-1,29
 152 205 152 205 158 180 c 128,-1,30
 164 155 164 155 177.5 139.5 c 128,-1,31
 191 124 191 124 210 124 c 0,32,33
 241 124 241 124 252 155 c 1,34,35
 255 168 255 168 271 179.5 c 128,-1,36
 287 191 287 191 306 191 c 0,37,38
 360 191 360 191 360 124 c 1,39,40
 355 5 355 5 239 -17 c 1,41,-1
 239 -59 l 2,42,43
 239 -69 239 -69 228.5 -77.5 c 128,-1,44
 218 -86 218 -86 201 -86 c 0,45,46
 180 -86 180 -86 180 -65 c 2,0,-1
EndSplineSet
EndChar

StartChar: sterling
Encoding: 163 163 100
Width: 372
GlyphClass: 2
Flags: W
LayerCount: 2
Fore
SplineSet
335 26 m 128,-1,1
 298 -16 298 -16 158 -16 c 0,2,3
 94 -16 94 -16 61.5 -9 c 128,-1,4
 29 -2 29 -2 22 6.5 c 128,-1,5
 15 15 15 15 15 31 c 1,6,-1
 17 46 l 1,7,8
 38 161 38 161 40 372 c 1,9,-1
 -15 372 l 1,10,11
 -34 375 -34 375 -34 394 c 128,-1,12
 -34 413 -34 413 -27 421.5 c 128,-1,13
 -20 430 -20 430 -7 431 c 1,14,-1
 40 431 l 1,15,-1
 36 553 l 2,16,17
 34 589 34 589 13 618 c 1,18,19
 0 631 0 631 0 645 c 0,20,21
 0 678 0 678 60.5 710 c 128,-1,22
 121 742 121 742 155 742 c 128,-1,23
 189 742 189 742 189 714 c 1,24,25
 176 614 176 614 174 559 c 128,-1,26
 172 504 172 504 171 431 c 1,27,-1
 257 431 l 2,28,29
 279 431 279 431 279 412 c 0,30,31
 279 397 279 397 271.5 387 c 128,-1,32
 264 377 264 377 248 372 c 1,33,-1
 171 372 l 1,34,-1
 171 329 l 2,35,36
 171 202 171 202 172.5 196 c 128,-1,37
 174 190 174 190 176.5 185 c 128,-1,38
 179 180 179 180 184 176 c 0,39,40
 196 167 196 167 221 167 c 0,41,42
 276 167 276 167 309 205 c 1,43,44
 325 221 325 221 341 221 c 0,45,46
 372 221 372 221 372 162 c 0,47,0
 372 68 372 68 335 26 c 128,-1,1
EndSplineSet
EndChar

StartChar: currency
Encoding: 164 164 101
Width: 742
GlyphClass: 2
Flags: W
LayerCount: 2
Fore
SplineSet
515 255 m 1,0,1
 583 161 583 161 583 151 c 128,-1,2
 583 141 583 141 561 135.5 c 128,-1,3
 539 130 539 130 519.5 130 c 128,-1,4
 500 130 500 130 491 147 c 1,5,-1
 450 210 l 1,6,7
 408 193 408 193 364 193 c 128,-1,8
 320 193 320 193 285 210 c 1,9,-1
 243 148 l 1,10,11
 230 132 230 132 202 132 c 0,12,13
 152 132 152 132 152 149 c 0,14,15
 152 152 152 152 156 162 c 1,16,17
 188 210 188 210 225 264 c 1,18,19
 207 295 207 295 207 336 c 0,20,21
 207 408 207 408 252 458 c 1,22,23
 180 556 180 556 180 569 c 0,24,25
 180 589 180 589 240 589 c 0,26,27
 264 589 264 589 270 575.5 c 128,-1,28
 276 562 276 562 316 505 c 1,29,30
 355 523 355 523 399.5 523 c 128,-1,31
 444 523 444 523 484 503 c 1,32,-1
 516 553 l 1,33,34
 526 571 526 571 554 571 c 0,35,36
 610 571 610 571 610 556 c 0,37,38
 610 553 610 553 606 543 c 1,39,-1
 541 447 l 1,40,41
 560 414 560 414 560 371 c 0,42,43
 560 303 560 303 515 255 c 1,0,1
448 287 m 128,-1,45
 477 312 477 312 477 357 c 128,-1,46
 477 402 477 402 451 427 c 128,-1,47
 425 452 425 452 387.5 452 c 128,-1,48
 350 452 350 452 320 425 c 128,-1,49
 290 398 290 398 290 353 c 128,-1,50
 290 308 290 308 316.5 285 c 128,-1,51
 343 262 343 262 381 262 c 128,-1,44
 419 262 419 262 448 287 c 128,-1,45
EndSplineSet
EndChar

StartChar: yen
Encoding: 165 165 102
Width: 289
GlyphClass: 2
Flags: W
LayerCount: 2
Fore
SplineSet
251 658 m 1,0,-1
 247 685 l 1,1,2
 247 708 247 708 279 729.5 c 128,-1,3
 311 751 311 751 375 751 c 0,4,5
 422 751 422 751 422 724 c 0,6,7
 422 712 422 712 417 701 c 0,8,9
 402 661 402 661 309 486 c 1,10,-1
 339 486 l 2,11,12
 362 486 362 486 362 464 c 1,13,14
 360 449 360 449 352.5 439.5 c 128,-1,15
 345 430 345 430 331 427 c 1,16,-1
 278 427 l 1,17,18
 269 408 269 408 252 374 c 1,19,-1
 332 374 l 2,20,21
 362 374 362 374 362 353 c 0,22,23
 362 342 362 342 353 330.5 c 128,-1,24
 344 319 344 319 331 315 c 1,25,-1
 226 315 l 1,26,27
 212 277 212 277 210 230 c 1,28,-1
 210 215 l 1,29,30
 214 72 214 72 216.5 62 c 128,-1,31
 219 52 219 52 219 44 c 0,32,33
 219 20 219 20 196 1 c 1,34,35
 148 -36 148 -36 66 -36 c 0,36,37
 32 -36 32 -36 32 -4 c 1,38,-1
 35 16 l 2,39,40
 36 21 36 21 42 48 c 128,-1,41
 48 75 48 75 50.5 88 c 128,-1,42
 53 101 53 101 56 129 c 0,43,44
 64 189 64 189 64 240 c 128,-1,45
 64 291 64 291 62 315 c 1,46,-1
 -28 315 l 1,47,48
 -48 317 -48 317 -48 337 c 0,49,50
 -48 350 -48 350 -41 360 c 0,51,52
 -30 374 -30 374 -20 374 c 2,53,-1
 48 374 l 1,54,55
 42 393 42 393 30 427 c 1,56,-1
 -28 427 l 2,57,58
 -35 427 -35 427 -41.5 433 c 128,-1,59
 -48 439 -48 439 -48 450 c 128,-1,60
 -48 461 -48 461 -41 470 c 0,61,62
 -30 486 -30 486 -20 486 c 2,63,-1
 10 486 l 1,64,-1
 -12 546 l 1,65,66
 -29 596 -29 596 -64 623 c 1,67,68
 -83 639 -83 639 -83 658 c 0,69,70
 -83 694 -83 694 -30.5 718 c 128,-1,71
 22 742 22 742 62 742 c 128,-1,72
 102 742 102 742 110 709 c 0,73,74
 113 696 113 696 123 650 c 0,75,76
 146 543 146 543 169 486 c 1,77,-1
 191 486 l 1,78,79
 211 517 211 517 231 572.5 c 128,-1,80
 251 628 251 628 251 658 c 1,0,-1
EndSplineSet
EndChar

StartChar: brokenbar
Encoding: 166 166 103
Width: 174
GlyphClass: 2
Flags: W
LayerCount: 2
Fore
SplineSet
49 459 m 2,0,-1
 50 516 l 1,1,2
 54 649 54 649 54 734 c 0,3,4
 54 752 54 752 83 752 c 0,5,6
 134 752 134 752 134 722 c 2,7,-1
 129 451 l 2,8,9
 129 425 129 425 97 425 c 0,10,11
 79 425 79 425 64 434.5 c 128,-1,12
 49 444 49 444 49 459 c 2,0,-1
38 12 m 2,13,-1
 39 69 l 2,14,15
 40 126 40 126 41.5 193.5 c 128,-1,16
 43 261 43 261 43 287 c 0,17,18
 43 305 43 305 72 305 c 0,19,20
 123 305 123 305 123 275 c 2,21,-1
 118 4 l 2,22,23
 118 -22 118 -22 86 -22 c 0,24,25
 68 -22 68 -22 53 -12.5 c 128,-1,26
 38 -3 38 -3 38 12 c 2,13,-1
EndSplineSet
EndChar

StartChar: section
Encoding: 167 167 104
Width: 495
GlyphClass: 2
Flags: W
LayerCount: 2
Fore
SplineSet
39 257.5 m 128,-1,1
 16 281 16 281 16 310.5 c 128,-1,2
 16 340 16 340 34.5 366.5 c 128,-1,3
 53 393 53 393 80 410 c 1,4,5
 136 448 136 448 178 462 c 1,6,-1
 196 469 l 2,7,8
 206 472 206 472 206 477 c 1,9,-1
 201 485 l 1,10,11
 103 522 103 522 103 587 c 0,12,13
 103 607 103 607 120 633 c 128,-1,14
 137 659 137 659 159.5 676.5 c 128,-1,15
 182 694 182 694 226.5 707.5 c 128,-1,16
 271 721 271 721 330 721 c 0,17,18
 409 721 409 721 409 686 c 0,19,20
 409 680 409 680 399 672 c 128,-1,21
 389 664 389 664 378 662 c 128,-1,22
 367 660 367 660 359 658.5 c 128,-1,23
 351 657 351 657 330.5 652 c 128,-1,24
 310 647 310 647 294.5 640.5 c 128,-1,25
 279 634 279 634 266 622.5 c 128,-1,26
 253 611 253 611 253 595.5 c 128,-1,27
 253 580 253 580 277.5 567 c 128,-1,28
 302 554 302 554 337 543 c 128,-1,29
 372 532 372 532 407 518 c 128,-1,30
 442 504 442 504 466.5 477.5 c 128,-1,31
 491 451 491 451 491 414 c 0,32,33
 491 336 491 336 353 268 c 0,34,35
 343 262 343 262 343 256.5 c 128,-1,36
 343 251 343 251 351 246.5 c 128,-1,37
 359 242 359 242 371 233 c 128,-1,38
 383 224 383 224 402.5 201 c 128,-1,39
 422 178 422 178 422 160 c 0,40,41
 422 109 422 109 377.5 69.5 c 128,-1,42
 333 30 333 30 278.5 12 c 128,-1,43
 224 -6 224 -6 188 -6 c 0,44,45
 104 -6 104 -6 104 30 c 0,46,47
 104 50 104 50 149 60 c 0,48,49
 203 71 203 71 229 102 c 0,50,51
 240 115 240 115 240 132.5 c 128,-1,52
 240 150 240 150 217 166 c 128,-1,53
 194 182 194 182 161 194 c 128,-1,54
 128 206 128 206 95 220 c 128,-1,0
 62 234 62 234 39 257.5 c 128,-1,1
335 381 m 0,55,56
 335 397 335 397 320 409 c 128,-1,57
 305 421 305 421 280.5 421 c 128,-1,58
 256 421 256 421 218 399 c 128,-1,59
 180 377 180 377 180 341 c 0,60,61
 180 319 180 319 196.5 308 c 128,-1,62
 213 297 213 297 239.5 297 c 128,-1,63
 266 297 266 297 300.5 325.5 c 128,-1,64
 335 354 335 354 335 381 c 0,55,56
EndSplineSet
EndChar

StartChar: dieresis
Encoding: 168 168 105
Width: 389
GlyphClass: 2
Flags: W
LayerCount: 2
Fore
SplineSet
343 637 m 128,-1,1
 356 626 356 626 356 603.5 c 128,-1,2
 356 581 356 581 332.5 561.5 c 128,-1,3
 309 542 309 542 286.5 542 c 128,-1,4
 264 542 264 542 250.5 553.5 c 128,-1,5
 237 565 237 565 237 587 c 128,-1,6
 237 609 237 609 261 628.5 c 128,-1,7
 285 648 285 648 307.5 648 c 128,-1,0
 330 648 330 648 343 637 c 128,-1,1
162 637 m 128,-1,9
 175 626 175 626 175 603.5 c 128,-1,10
 175 581 175 581 151.5 561.5 c 128,-1,11
 128 542 128 542 105.5 542 c 128,-1,12
 83 542 83 542 69.5 553.5 c 128,-1,13
 56 565 56 565 56 587 c 128,-1,14
 56 609 56 609 80 628.5 c 128,-1,15
 104 648 104 648 126.5 648 c 128,-1,8
 149 648 149 648 162 637 c 128,-1,9
EndSplineSet
EndChar

StartChar: copyright
Encoding: 169 169 106
Width: 620
GlyphClass: 2
Flags: W
LayerCount: 2
Fore
SplineSet
57 80 m 0,0,1
 16 137 16 137 16 225 c 128,-1,2
 16 313 16 313 64 387.5 c 128,-1,3
 112 462 112 462 186.5 499.5 c 128,-1,4
 261 537 261 537 345 537 c 0,5,6
 456 537 456 537 538.5 470.5 c 128,-1,7
 621 404 621 404 621 273 c 128,-1,8
 621 142 621 142 520.5 58 c 128,-1,9
 420 -26 420 -26 289 -26 c 0,10,11
 133 -26 133 -26 57 80 c 0,0,1
467 88 m 128,-1,13
 534 147 534 147 534 254 c 128,-1,14
 534 361 534 361 474.5 419 c 128,-1,15
 415 477 415 477 327 477 c 128,-1,16
 239 477 239 477 170 413.5 c 128,-1,17
 101 350 101 350 101 245 c 128,-1,18
 101 140 101 140 162.5 84.5 c 128,-1,19
 224 29 224 29 312 29 c 128,-1,12
 400 29 400 29 467 88 c 128,-1,13
401 218 m 0,20,21
 440 218 440 218 440 170 c 1,22,23
 439 141 439 141 427.5 119.5 c 128,-1,24
 416 98 416 98 402 88 c 128,-1,25
 388 78 388 78 368 72 c 0,26,27
 341 64 341 64 313 64 c 0,28,29
 245 64 245 64 215.5 114.5 c 128,-1,30
 186 165 186 165 186 242.5 c 128,-1,31
 186 320 186 320 223 379 c 128,-1,32
 260 438 260 438 336 438 c 0,33,34
 379 438 379 438 408 416.5 c 128,-1,35
 437 395 437 395 437 350 c 0,36,37
 437 296 437 296 389 296 c 0,38,39
 377 296 377 296 368.5 305.5 c 128,-1,40
 360 315 360 315 360 323.5 c 128,-1,41
 360 332 360 332 359 338.5 c 128,-1,42
 358 345 358 345 350.5 355.5 c 128,-1,43
 343 366 343 366 331 366 c 0,44,45
 286 366 286 366 286 268 c 128,-1,46
 286 170 286 170 331 170 c 0,47,48
 354 170 354 170 362 193 c 0,49,50
 370 218 370 218 401 218 c 0,20,21
EndSplineSet
EndChar

StartChar: ordfeminine
Encoding: 170 170 107
Width: 331
GlyphClass: 2
Flags: W
LayerCount: 2
Fore
SplineSet
146.5 452.5 m 128,-1,1
 133 431 133 431 133 403.5 c 128,-1,2
 133 376 133 376 155 376 c 128,-1,3
 177 376 177 376 191 399.5 c 128,-1,4
 205 423 205 423 205 448.5 c 128,-1,5
 205 474 205 474 181 474 c 0,6,0
 160 474 160 474 146.5 452.5 c 128,-1,1
294 527 m 1,7,-1
 292 422 l 1,8,9
 292 360 292 360 307 350 c 0,10,11
 317 343 317 343 317 331 c 0,12,13
 317 309 317 309 288 290.5 c 128,-1,14
 259 272 259 272 234 272 c 128,-1,15
 209 272 209 272 203.5 282 c 128,-1,16
 198 292 198 292 198.5 302 c 128,-1,17
 199 312 199 312 196 312 c 128,-1,18
 193 312 193 312 184 304 c 0,19,20
 159 278 159 278 125 278 c 128,-1,21
 91 278 91 278 71 290.5 c 128,-1,22
 51 303 51 303 43 324 c 0,23,24
 30 357 30 357 30 392 c 128,-1,25
 30 427 30 427 47 459 c 128,-1,26
 64 491 64 491 86 506 c 128,-1,27
 108 521 108 521 134 530 c 0,28,29
 170 542 170 542 191 542 c 1,30,31
 199 544 199 544 199 550 c 2,32,-1
 199 552 l 1,33,34
 198 578 198 578 161.5 578 c 128,-1,35
 125 578 125 578 109 567.5 c 128,-1,36
 93 557 93 557 84 557 c 0,37,38
 66 557 66 557 66 584 c 0,39,40
 66 654 66 654 177 654 c 0,41,42
 238 654 238 654 266 623 c 128,-1,43
 294 592 294 592 294 527 c 1,7,-1
EndSplineSet
EndChar

StartChar: guillemotleft
Encoding: 171 171 108
Width: 558
GlyphClass: 2
Flags: W
LayerCount: 2
Fore
SplineSet
546 40 m 0,0,1
 546 24 546 24 492 24 c 0,2,3
 468 24 468 24 448 32 c 128,-1,4
 428 40 428 40 385 86 c 128,-1,5
 342 132 342 132 308 174 c 2,6,-1
 275 216 l 1,7,8
 265 226 265 226 265 240.5 c 128,-1,9
 265 255 265 255 277.5 270 c 128,-1,10
 290 285 290 285 313.5 313.5 c 128,-1,11
 337 342 337 342 384 392 c 128,-1,12
 431 442 431 442 448 447 c 1,13,14
 462 455 462 455 504.5 455 c 128,-1,15
 547 455 547 455 547 439 c 0,16,17
 547 429 547 429 530 415 c 0,18,19
 524 409 524 409 513.5 399.5 c 128,-1,20
 503 390 503 390 476.5 363.5 c 128,-1,21
 450 337 450 337 430 316 c 0,22,23
 377 259 377 259 377 241.5 c 128,-1,24
 377 224 377 224 415 180.5 c 128,-1,25
 453 137 453 137 491 101 c 2,26,-1
 529 65 l 1,27,28
 546 51 546 51 546 40 c 0,0,1
147.5 271.5 m 128,-1,30
 131 249 131 249 131 236.5 c 128,-1,31
 131 224 131 224 169 180.5 c 128,-1,32
 207 137 207 137 246 101 c 2,33,-1
 284 65 l 1,34,35
 301 51 301 51 301 44 c 0,36,37
 301 31 301 31 289 28 c 0,38,39
 273 24 273 24 252 24 c 0,40,41
 213 24 213 24 200 33 c 1,42,43
 183 38 183 38 140.5 83.5 c 128,-1,44
 98 129 98 129 64 172 c 2,45,-1
 29 216 l 2,46,47
 20 226 20 226 20 240 c 128,-1,48
 20 254 20 254 30 266 c 0,49,50
 165 434 165 434 202 447 c 0,51,52
 225 455 225 455 263 455 c 128,-1,53
 301 455 301 455 301 439 c 0,54,55
 301 429 301 429 284 415 c 0,56,57
 278 409 278 409 267.5 399.5 c 128,-1,58
 257 390 257 390 230.5 363.5 c 128,-1,59
 204 337 204 337 184 315.5 c 128,-1,29
 164 294 164 294 147.5 271.5 c 128,-1,30
EndSplineSet
EndChar

StartChar: logicalnot
Encoding: 172 172 109
Width: 474
GlyphClass: 2
Flags: W
LayerCount: 2
Fore
SplineSet
435 247 m 2,0,-1
 437 92 l 2,1,2
 437 76 437 76 425 68 c 128,-1,3
 413 60 413 60 402 60 c 128,-1,4
 391 60 391 60 384 61.5 c 128,-1,5
 377 63 377 63 366 73.5 c 128,-1,6
 355 84 355 84 355 102 c 2,7,-1
 355 211 l 1,8,-1
 303 211 l 1,9,-1
 55 209 l 2,10,11
 42 209 42 209 35 219.5 c 128,-1,12
 28 230 28 230 28 246 c 128,-1,13
 28 262 28 262 37 276 c 128,-1,14
 46 290 46 290 64 291 c 1,15,16
 223 290 223 290 305 290 c 128,-1,17
 387 290 387 290 397 291 c 1,18,19
 415 290 415 290 425 277 c 128,-1,20
 435 264 435 264 435 247 c 2,0,-1
EndSplineSet
EndChar

StartChar: registered
Encoding: 174 174 110
Width: 620
GlyphClass: 2
Flags: W
LayerCount: 2
Fore
SplineSet
57 80 m 0,0,1
 16 137 16 137 16 225 c 128,-1,2
 16 313 16 313 64 387.5 c 128,-1,3
 112 462 112 462 186.5 499.5 c 128,-1,4
 261 537 261 537 345 537 c 0,5,6
 456 537 456 537 538.5 470.5 c 128,-1,7
 621 404 621 404 621 273 c 128,-1,8
 621 142 621 142 520.5 58 c 128,-1,9
 420 -26 420 -26 289 -26 c 0,10,11
 133 -26 133 -26 57 80 c 0,0,1
467 88 m 128,-1,13
 534 147 534 147 534 254 c 128,-1,14
 534 361 534 361 474.5 419 c 128,-1,15
 415 477 415 477 327 477 c 128,-1,16
 239 477 239 477 170 413.5 c 128,-1,17
 101 350 101 350 101 245 c 128,-1,18
 101 140 101 140 162.5 84.5 c 128,-1,19
 224 29 224 29 312 29 c 128,-1,12
 400 29 400 29 467 88 c 128,-1,13
306 296 m 1,20,21
 342 316 342 316 342 353 c 128,-1,22
 342 390 342 390 313.5 390 c 128,-1,23
 285 390 285 390 285 321 c 2,24,-1
 285 301 l 1,25,26
 287 293 287 293 295 293 c 0,27,28
 298 293 298 293 306 296 c 1,20,21
386 288 m 1,29,30
 378 284 378 284 378 277.5 c 128,-1,31
 378 271 378 271 379 270 c 0,32,33
 389 213 389 213 410 158 c 0,34,35
 416 141 416 141 429.5 133 c 128,-1,36
 443 125 443 125 443 115 c 0,37,38
 443 99 443 99 419.5 89 c 128,-1,39
 396 79 396 79 381.5 79 c 128,-1,40
 367 79 367 79 360 83.5 c 128,-1,41
 353 88 353 88 349.5 93 c 128,-1,42
 346 98 346 98 345 98 c 0,43,44
 332 126 332 126 324.5 180.5 c 128,-1,45
 317 235 317 235 317 238 c 128,-1,46
 317 241 317 241 306.5 241 c 128,-1,47
 296 241 296 241 289 231 c 1,48,49
 285 220 285 220 285 182 c 128,-1,50
 285 144 285 144 288 130 c 128,-1,51
 291 116 291 116 291 112 c 0,52,53
 291 95 291 95 265.5 83.5 c 128,-1,54
 240 72 240 72 220 72 c 128,-1,55
 200 72 200 72 200 87 c 1,56,-1
 201 97 l 1,57,58
 215 186 215 186 215 276 c 1,59,-1
 212 345 l 2,60,61
 212 356 212 356 203.5 369 c 128,-1,62
 195 382 195 382 195 389 c 0,63,64
 195 411 195 411 238.5 424.5 c 128,-1,65
 282 438 282 438 308 438 c 128,-1,66
 334 438 334 438 349 435.5 c 128,-1,67
 364 433 364 433 383.5 426.5 c 128,-1,68
 403 420 403 420 415 404 c 128,-1,69
 427 388 427 388 427 365 c 0,70,71
 427 319 427 319 386 288 c 1,29,30
EndSplineSet
EndChar

StartChar: macron
Encoding: 175 175 111
Width: 389
GlyphClass: 2
Flags: W
LayerCount: 2
Fore
SplineSet
336 534 m 1,0,1
 322 535 322 535 262 535 c 2,2,-1
 86 534 l 2,3,4
 67 534 67 534 67 560 c 0,5,6
 67 572 67 572 73.5 581.5 c 128,-1,7
 80 591 80 591 92 592 c 1,8,-1
 329 592 l 2,9,10
 356 592 356 592 356 564 c 128,-1,11
 356 536 356 536 336 534 c 1,0,1
EndSplineSet
EndChar

StartChar: degree
Encoding: 176 176 112
Width: 285
GlyphClass: 2
Flags: W
LayerCount: 2
Fore
SplineSet
152 720 m 0,0,1
 185 720 185 720 209.5 701.5 c 128,-1,2
 234 683 234 683 246 654 c 0,3,4
 270 598 270 598 270 528.5 c 128,-1,5
 270 459 270 459 236.5 398 c 128,-1,6
 203 337 203 337 139.5 337 c 128,-1,7
 76 337 76 337 45.5 384.5 c 128,-1,8
 15 432 15 432 15 508.5 c 128,-1,9
 15 585 15 585 53.5 652.5 c 128,-1,10
 92 720 92 720 152 720 c 0,0,1
142 651 m 0,11,12
 100 651 100 651 100 551 c 0,13,14
 100 505 100 505 115 482 c 128,-1,15
 130 459 130 459 149.5 459 c 128,-1,16
 169 459 169 459 181 477.5 c 128,-1,17
 193 496 193 496 193 537.5 c 128,-1,18
 193 579 193 579 179 615 c 128,-1,19
 165 651 165 651 142 651 c 0,11,12
EndSplineSet
EndChar

StartChar: plusminus
Encoding: 177 177 113
Width: 480
GlyphClass: 2
Flags: W
LayerCount: 2
Fore
SplineSet
239 578 m 1,0,1
 283 578 283 578 281 550 c 0,2,3
 279 506 279 506 279 443 c 1,4,-1
 312 443 l 2,5,6
 411 443 411 443 428 444 c 1,7,8
 459 444 459 444 465 405 c 1,9,10
 465 363 465 363 436 362 c 1,11,12
 414 364 414 364 308 364 c 2,13,-1
 279 364 l 1,14,-1
 281 260 l 2,15,16
 281 244 281 244 269 236 c 128,-1,17
 257 228 257 228 246 228 c 128,-1,18
 235 228 235 228 228 229.5 c 128,-1,19
 221 231 221 231 210 241.5 c 128,-1,20
 199 252 199 252 199 269 c 128,-1,21
 199 286 199 286 200 363 c 1,22,-1
 47 362 l 2,23,24
 15 362 15 362 15 405 c 0,25,26
 15 430 15 430 37 440 c 0,27,28
 46 444 46 444 84.5 443.5 c 128,-1,29
 123 443 123 443 200 443 c 1,30,-1
 200 475 l 1,31,-1
 199 540 l 2,32,33
 199 556 199 556 209 565.5 c 128,-1,34
 219 575 219 575 229 576 c 2,35,-1
 239 578 l 1,0,1
437 127 m 1,36,37
 418 129 418 129 333 129 c 2,38,-1
 43 127 l 2,39,40
 30 127 30 127 23 137.5 c 128,-1,41
 16 148 16 148 16 164 c 128,-1,42
 16 180 16 180 25 194 c 128,-1,43
 34 208 34 208 52 209 c 1,44,45
 253 208 253 208 335 208 c 128,-1,46
 417 208 417 208 427 209 c 1,47,48
 445 208 445 208 455 195 c 128,-1,49
 465 182 465 182 465 166 c 128,-1,50
 465 150 465 150 457.5 139 c 128,-1,51
 450 128 450 128 437 127 c 1,36,37
EndSplineSet
EndChar

StartChar: twosuperior
Encoding: 178 178 114
Width: 298
GlyphClass: 2
Flags: W
LayerCount: 2
Fore
SplineSet
260 687 m 0,0,1
 271 668 271 668 271 645.5 c 128,-1,2
 271 623 271 623 268.5 607.5 c 128,-1,3
 266 592 266 592 258 574.5 c 128,-1,4
 250 557 250 557 246 549 c 0,5,6
 236 529 236 529 210 490 c 1,7,-1
 148 378 l 2,8,9
 143 368 143 368 143 360 c 0,10,11
 143 344 143 344 166 344 c 0,12,13
 210 344 210 344 224 362 c 0,14,15
 244 388 244 388 258 388 c 0,16,17
 278 388 278 388 278 358 c 0,18,19
 278 258 278 258 248 234 c 1,20,21
 236 220 236 220 136 220 c 1,22,-1
 53 222 l 2,23,24
 20 223 20 223 20 255 c 0,25,26
 20 298 20 298 66 381 c 0,27,28
 68 385 68 385 91 425 c 128,-1,29
 114 465 114 465 127 488.5 c 128,-1,30
 140 512 140 512 153 546 c 128,-1,31
 166 580 166 580 166 598.5 c 128,-1,32
 166 617 166 617 158 626.5 c 128,-1,33
 150 636 150 636 134 637 c 128,-1,34
 118 638 118 638 106 630 c 128,-1,35
 94 622 94 622 85 606.5 c 128,-1,36
 76 591 76 591 60 591 c 0,37,38
 40 591 40 591 40 631 c 0,39,40
 40 691 40 691 73.5 713 c 128,-1,41
 107 735 107 735 162 735 c 0,42,43
 230 735 230 735 260 687 c 0,0,1
EndSplineSet
EndChar

StartChar: threesuperior
Encoding: 179 179 115
Width: 285
GlyphClass: 2
Flags: W
LayerCount: 2
Fore
SplineSet
95 469 m 1,0,-1
 81 468 l 1,1,2
 65 468 65 468 65 493 c 1,3,-1
 69 522 l 1,4,5
 76 552 76 552 99 552 c 128,-1,6
 122 552 122 552 138 569.5 c 128,-1,7
 154 587 154 587 154 608 c 0,8,9
 154 650 154 650 113 650 c 0,10,11
 96 650 96 650 78 634 c 1,12,13
 67 622 67 622 56 622 c 0,14,15
 36 622 36 622 36 653 c 0,16,17
 36 737 36 737 144 737 c 0,18,19
 221 737 221 737 249 684 c 0,20,21
 260 664 260 664 259.5 638 c 128,-1,22
 259 612 259 612 252 592 c 128,-1,23
 245 572 245 572 234 560 c 0,24,25
 212 536 212 536 190 528 c 0,26,27
 185 526 185 526 185 521 c 1,28,-1
 189 515 l 1,29,30
 265 486 265 486 265 392 c 0,31,32
 265 345 265 345 252 310.5 c 128,-1,33
 239 276 239 276 222 259.5 c 128,-1,34
 205 243 205 243 183 234 c 0,35,36
 154 221 154 221 116.5 221 c 128,-1,37
 79 221 79 221 49.5 236.5 c 128,-1,38
 20 252 20 252 20 300 c 0,39,40
 20 320 20 320 27 360 c 0,41,42
 32 384 32 384 51 384 c 0,43,44
 61 384 61 384 68 375 c 0,45,46
 82 355 82 355 109.5 355 c 128,-1,47
 137 355 137 355 151 373 c 128,-1,48
 165 391 165 391 165 416.5 c 128,-1,49
 165 442 165 442 144 455.5 c 128,-1,50
 123 469 123 469 95 469 c 1,0,-1
EndSplineSet
EndChar

StartChar: acute
Encoding: 180 180 116
Width: 389
GlyphClass: 2
Flags: W
LayerCount: 2
Fore
SplineSet
315 655 m 128,-1,1
 331 635 331 635 331 620.5 c 128,-1,2
 331 606 331 606 315 601 c 0,3,4
 285 592 285 592 233 560 c 1,5,-1
 216 549 l 1,6,7
 207 545 207 545 201 545 c 0,8,9
 190 545 190 545 190 562 c 128,-1,10
 190 579 190 579 224.5 627 c 128,-1,11
 259 675 259 675 283 675 c 0,12,0
 299 675 299 675 315 655 c 128,-1,1
EndSplineSet
EndChar

StartChar: mu
Encoding: 181 181 117
Width: 439
GlyphClass: 2
Flags: W
LayerCount: 2
Fore
SplineSet
30 153 m 1,0,-1
 28 333 l 2,1,2
 27 349 27 349 19.5 363 c 128,-1,3
 12 377 12 377 0 388 c 128,-1,4
 -12 399 -12 399 -12 412 c 0,5,6
 -12 446 -12 446 40.5 472.5 c 128,-1,7
 93 499 93 499 128 499 c 2,8,-1
 134 499 l 2,9,10
 154 499 154 499 163.5 488 c 128,-1,11
 173 477 173 477 173 448 c 128,-1,12
 173 419 173 419 168 356.5 c 128,-1,13
 163 294 163 294 163 281 c 0,14,15
 163 172 163 172 210 172 c 0,16,17
 244 172 244 172 256 243 c 0,18,19
 261 269 261 269 261 301 c 0,20,21
 261 365 261 365 250 396 c 1,22,23
 239 410 239 410 239 423 c 0,24,25
 239 453 239 453 284 473.5 c 128,-1,26
 329 494 329 494 363.5 494 c 128,-1,27
 398 494 398 494 398 459.5 c 128,-1,28
 398 425 398 425 391.5 352 c 128,-1,29
 385 279 385 279 385 236.5 c 128,-1,30
 385 194 385 194 386 176.5 c 128,-1,31
 387 159 387 159 396.5 124.5 c 128,-1,32
 406 90 406 90 422 80 c 1,33,34
 439 72 439 72 439 58.5 c 128,-1,35
 439 45 439 45 431 34 c 0,36,37
 394 -17 394 -17 314 -17 c 1,38,39
 269 -14 269 -14 263 17 c 2,40,-1
 256 51 l 2,41,42
 255 58 255 58 250 58 c 1,43,-1
 242 54 l 1,44,45
 211 -3 211 -3 154 -12 c 1,46,47
 152 -67 152 -67 142 -107 c 1,48,49
 125 -157 125 -157 87.5 -186 c 128,-1,50
 50 -215 50 -215 8 -215 c 128,-1,51
 -34 -215 -34 -215 -57 -196.5 c 128,-1,52
 -80 -178 -80 -178 -85 -160 c 2,53,-1
 -90 -142 l 2,54,55
 -91 -137 -91 -137 -91 -124 c 128,-1,56
 -91 -111 -91 -111 -83.5 -101 c 128,-1,57
 -76 -91 -76 -91 -61 -88 c 1,58,59
 -35 -88 -35 -88 -16 -71 c 128,-1,60
 3 -54 3 -54 9.5 -40 c 128,-1,61
 16 -26 16 -26 16 -22 c 0,62,63
 30 49 30 49 30 153 c 1,0,-1
EndSplineSet
EndChar

StartChar: paragraph
Encoding: 182 182 118
Width: 428
GlyphClass: 2
Flags: W
LayerCount: 2
Fore
SplineSet
417 660 m 1,0,-1
 414 625 l 1,1,2
 394 472 394 472 394 225 c 1,3,-1
 395 122 l 1,4,5
 399 75 399 75 408 48 c 1,6,7
 415 35 415 35 415 26 c 0,8,9
 415 -6 415 -6 365 -6 c 0,10,11
 348 -6 348 -6 337.5 1 c 128,-1,12
 327 8 327 8 321.5 26.5 c 128,-1,13
 316 45 316 45 316 118.5 c 128,-1,14
 316 192 316 192 317.5 255.5 c 128,-1,15
 319 319 319 319 321.5 377 c 128,-1,16
 324 435 324 435 326 485 c 0,17,18
 332 595 332 595 332 599 c 0,19,20
 332 641 332 641 303 641 c 0,21,22
 291 641 291 641 284.5 633 c 128,-1,23
 278 625 278 625 273.5 599 c 128,-1,24
 269 573 269 573 264.5 432 c 128,-1,25
 260 291 260 291 259 168 c 2,26,-1
 258 45 l 2,27,28
 258 -9 258 -9 228 -9 c 0,29,30
 171 -9 171 -9 171 68 c 0,31,32
 171 88 171 88 177.5 149.5 c 128,-1,33
 184 211 184 211 184 245 c 1,34,-1
 182 276 l 2,35,36
 181 300 181 300 166.5 319.5 c 128,-1,37
 152 339 152 339 140.5 346 c 128,-1,38
 129 353 129 353 110 363 c 0,39,40
 0 420 0 420 0 531 c 0,41,42
 0 619 0 619 71.5 671 c 128,-1,43
 143 723 143 723 250 723 c 0,44,45
 417 723 417 723 417 660 c 1,0,-1
EndSplineSet
EndChar

StartChar: periodcentered
Encoding: 183 183 119
Width: 189
GlyphClass: 2
Flags: W
LayerCount: 2
Fore
SplineSet
156 308 m 128,-1,1
 172 296 172 296 172.5 271.5 c 128,-1,2
 173 247 173 247 142.5 224 c 128,-1,3
 112 201 112 201 80.5 201 c 128,-1,4
 49 201 49 201 32.5 212.5 c 128,-1,5
 16 224 16 224 16 243 c 0,6,7
 16 274 16 274 46 297 c 128,-1,8
 76 320 76 320 108 320 c 128,-1,0
 140 320 140 320 156 308 c 128,-1,1
EndSplineSet
EndChar

StartChar: cedilla
Encoding: 184 184 120
Width: 361
GlyphClass: 2
Flags: W
LayerCount: 2
Fore
SplineSet
223 -21 m 1,0,1
 200 -29 200 -29 200 -41 c 0,2,3
 200 -49 200 -49 220 -60 c 128,-1,4
 240 -71 240 -71 240 -90 c 128,-1,5
 240 -109 240 -109 217 -121 c 128,-1,6
 194 -133 194 -133 172.5 -133 c 128,-1,7
 151 -133 151 -133 151 -127 c 0,8,9
 151 -118 151 -118 165.5 -107.5 c 128,-1,10
 180 -97 180 -97 180 -88 c 128,-1,11
 180 -79 180 -79 162.5 -72 c 128,-1,12
 145 -65 145 -65 145 -52.5 c 128,-1,13
 145 -40 145 -40 166 -26.5 c 128,-1,14
 187 -13 187 -13 205 -13 c 128,-1,15
 223 -13 223 -13 223 -21 c 1,0,1
EndSplineSet
EndChar

StartChar: onesuperior
Encoding: 185 185 121
Width: 201
GlyphClass: 2
Flags: W
LayerCount: 2
Fore
SplineSet
43 619 m 0,0,1
 20 625 20 625 20 643 c 0,2,3
 20 668 20 668 72 701 c 128,-1,4
 124 734 124 734 150 734 c 128,-1,5
 176 734 176 734 176 710 c 0,6,7
 176 702 176 702 173 622 c 128,-1,8
 170 542 170 542 170 434 c 128,-1,9
 170 326 170 326 178 287 c 1,10,11
 181 282 181 282 181 275 c 0,12,13
 181 250 181 250 145.5 234 c 128,-1,14
 110 218 110 218 84 218 c 128,-1,15
 58 218 58 218 58 242 c 1,16,-1
 60 255 l 1,17,18
 77 374 77 374 77 493 c 1,19,-1
 74 586 l 2,20,21
 74 612 74 612 43 619 c 0,0,1
EndSplineSet
EndChar

StartChar: ordmasculine
Encoding: 186 186 122
Width: 329
GlyphClass: 2
Flags: W
LayerCount: 2
Fore
SplineSet
176 652 m 0,0,1
 241 652 241 652 275 595 c 128,-1,2
 309 538 309 538 309 458 c 128,-1,3
 309 378 309 378 272 318.5 c 128,-1,4
 235 259 235 259 165.5 259 c 128,-1,5
 96 259 96 259 63 315.5 c 128,-1,6
 30 372 30 372 30 430.5 c 128,-1,7
 30 489 30 489 44 535 c 128,-1,8
 58 581 58 581 93 616.5 c 128,-1,9
 128 652 128 652 176 652 c 0,0,1
210 532 m 128,-1,11
 201 550 201 550 180.5 550 c 128,-1,12
 160 550 160 550 141 521 c 128,-1,13
 122 492 122 492 122 451 c 0,14,15
 122 394 122 394 160 394 c 0,16,17
 181 394 181 394 200 420 c 128,-1,18
 219 446 219 446 219 480 c 128,-1,10
 219 514 219 514 210 532 c 128,-1,11
EndSplineSet
EndChar

StartChar: guillemotright
Encoding: 187 187 123
Width: 556
GlyphClass: 2
Flags: W
LayerCount: 2
Fore
SplineSet
158.5 208 m 128,-1,1
 175 230 175 230 175 242.5 c 128,-1,2
 175 255 175 255 137 298.5 c 128,-1,3
 99 342 99 342 60 378 c 1,4,-1
 22 415 l 1,5,6
 5 429 5 429 5 439 c 0,7,8
 5 455 5 455 53 455 c 0,9,10
 86 455 86 455 104 447 c 1,11,12
 121 442 121 442 164 397 c 128,-1,13
 207 352 207 352 242 309 c 2,14,-1
 277 266 l 2,15,16
 287 255 287 255 287 244 c 0,17,18
 287 228 287 228 277 216 c 0,19,20
 147 49 147 49 106 33 c 0,21,22
 84 24 84 24 64 24 c 128,-1,23
 44 24 44 24 25 26.5 c 128,-1,24
 6 29 6 29 6 40 c 128,-1,25
 6 51 6 51 23 65 c 0,26,27
 29 71 29 71 39.5 80.5 c 128,-1,28
 50 90 50 90 76 116 c 128,-1,29
 102 142 102 142 122 164 c 128,-1,0
 142 186 142 186 158.5 208 c 128,-1,1
404.5 208 m 128,-1,31
 421 230 421 230 421 242.5 c 128,-1,32
 421 255 421 255 382.5 298.5 c 128,-1,33
 344 342 344 342 306 378 c 2,34,-1
 268 415 l 1,35,36
 251 429 251 429 251 439 c 0,37,38
 251 455 251 455 289 455 c 128,-1,39
 327 455 327 455 346.5 448 c 128,-1,40
 366 441 366 441 409 396 c 128,-1,41
 452 351 452 351 487 308 c 2,42,-1
 522 266 l 2,43,44
 532 253 532 253 532 244 c 0,45,46
 532 227 532 227 520 212 c 128,-1,47
 508 197 508 197 485 168 c 128,-1,48
 462 139 462 139 415.5 88.5 c 128,-1,49
 369 38 369 38 352 33 c 1,50,51
 341 24 341 24 316 24 c 0,52,53
 251 24 251 24 251 41 c 0,54,55
 251 51 251 51 268 65 c 0,56,57
 274 71 274 71 284.5 80.5 c 128,-1,58
 295 90 295 90 321.5 116 c 128,-1,59
 348 142 348 142 368 164 c 128,-1,30
 388 186 388 186 404.5 208 c 128,-1,31
EndSplineSet
EndChar

StartChar: onequarter
Encoding: 188 188 124
Width: 653
GlyphClass: 2
Flags: W
LayerCount: 2
Fore
SplineSet
415 740 m 1,0,-1
 222 27 l 1,1,2
 217 0 217 0 189 -8 c 0,3,4
 176 -12 176 -12 165 -12 c 0,5,6
 145 -12 145 -12 145 5 c 1,7,-1
 340 726 l 1,8,9
 350 756 350 756 395 756 c 0,10,11
 415 756 415 756 415 740 c 1,0,-1
43 619 m 0,12,13
 20 625 20 625 20 643 c 0,14,15
 20 668 20 668 72 701 c 128,-1,16
 124 734 124 734 150 734 c 128,-1,17
 176 734 176 734 176 710 c 0,18,19
 176 702 176 702 173 622 c 128,-1,20
 170 542 170 542 170 434 c 128,-1,21
 170 326 170 326 178 287 c 1,22,23
 181 282 181 282 181 275 c 0,24,25
 181 250 181 250 145.5 234 c 128,-1,26
 110 218 110 218 84 218 c 128,-1,27
 58 218 58 218 58 242 c 1,28,-1
 60 255 l 1,29,30
 77 374 77 374 77 493 c 1,31,-1
 74 586 l 2,32,33
 74 612 74 612 43 619 c 0,12,13
427 251 m 0,34,35
 427 236 427 236 456 236 c 128,-1,36
 485 236 485 236 485 247 c 2,37,-1
 485 292 l 1,38,-1
 484 358 l 1,39,40
 482 364 482 364 478 364 c 128,-1,41
 474 364 474 364 469 357 c 0,42,43
 427 281 427 281 427 251 c 0,34,35
581 244 m 2,44,-1
 596 245 l 2,45,46
 610 245 610 245 610 230 c 0,47,48
 610 161 610 161 579 138 c 1,49,50
 572 136 572 136 572 126 c 2,51,-1
 571 113 l 1,52,53
 571 85 571 85 579 53 c 1,54,55
 582 48 582 48 582 41 c 0,56,57
 582 18 582 18 551 6 c 128,-1,58
 520 -6 520 -6 492 -6 c 128,-1,59
 464 -6 464 -6 464 18 c 1,60,-1
 467 30 l 1,61,62
 479 68 479 68 479 115 c 0,63,64
 479 124 479 124 468 123.5 c 128,-1,65
 457 123 457 123 431 123 c 2,66,-1
 362 125 l 1,67,68
 312 125 312 125 312 165 c 1,69,70
 320 220 320 220 363 304.5 c 128,-1,71
 406 389 406 389 438 436 c 1,72,-1
 471 482 l 1,73,74
 493 510 493 510 555 510 c 0,75,76
 586 510 586 510 586 489 c 0,77,78
 586 486 586 486 578 450.5 c 128,-1,79
 570 415 570 415 569.5 384.5 c 128,-1,80
 569 354 569 354 569 295 c 2,81,-1
 569 249 l 2,82,83
 569 244 569 244 581 244 c 2,44,-1
EndSplineSet
EndChar

StartChar: onehalf
Encoding: 189 189 125
Width: 653
GlyphClass: 2
Flags: W
LayerCount: 2
Fore
SplineSet
415 740 m 1,0,-1
 222 27 l 1,1,2
 217 0 217 0 189 -8 c 0,3,4
 176 -12 176 -12 165 -12 c 0,5,6
 145 -12 145 -12 145 5 c 1,7,-1
 340 726 l 1,8,9
 350 756 350 756 395 756 c 0,10,11
 415 756 415 756 415 740 c 1,0,-1
43 619 m 0,12,13
 20 625 20 625 20 643 c 0,14,15
 20 668 20 668 72 701 c 128,-1,16
 124 734 124 734 150 734 c 128,-1,17
 176 734 176 734 176 710 c 0,18,19
 176 702 176 702 173 622 c 128,-1,20
 170 542 170 542 170 434 c 128,-1,21
 170 326 170 326 178 287 c 1,22,23
 181 282 181 282 181 275 c 0,24,25
 181 250 181 250 145.5 234 c 128,-1,26
 110 218 110 218 84 218 c 128,-1,27
 58 218 58 218 58 242 c 1,28,-1
 60 255 l 1,29,30
 77 374 77 374 77 493 c 1,31,-1
 74 586 l 2,32,33
 74 612 74 612 43 619 c 0,12,13
596 469 m 0,34,35
 607 450 607 450 607 427.5 c 128,-1,36
 607 405 607 405 604.5 389.5 c 128,-1,37
 602 374 602 374 594 356.5 c 128,-1,38
 586 339 586 339 582 331 c 0,39,40
 572 311 572 311 546 272 c 1,41,-1
 484 160 l 2,42,43
 479 150 479 150 479 142 c 0,44,45
 479 126 479 126 502 126 c 0,46,47
 546 126 546 126 560 144 c 0,48,49
 580 170 580 170 594 170 c 0,50,51
 614 170 614 170 614 140 c 0,52,53
 614 40 614 40 584 16 c 1,54,55
 572 2 572 2 472 2 c 1,56,-1
 389 4 l 2,57,58
 356 5 356 5 356 37 c 0,59,60
 356 80 356 80 402 163 c 0,61,62
 404 167 404 167 427 207 c 128,-1,63
 450 247 450 247 463 270.5 c 128,-1,64
 476 294 476 294 489 328 c 128,-1,65
 502 362 502 362 502 380.5 c 128,-1,66
 502 399 502 399 494 408.5 c 128,-1,67
 486 418 486 418 470 419 c 128,-1,68
 454 420 454 420 442 412 c 128,-1,69
 430 404 430 404 421 388.5 c 128,-1,70
 412 373 412 373 396 373 c 0,71,72
 376 373 376 373 376 413 c 0,73,74
 376 473 376 473 409.5 495 c 128,-1,75
 443 517 443 517 498 517 c 0,76,77
 566 517 566 517 596 469 c 0,34,35
EndSplineSet
EndChar

StartChar: threequarters
Encoding: 190 190 126
Width: 714
GlyphClass: 2
Flags: W
LayerCount: 2
Fore
SplineSet
476 740 m 1,0,-1
 283 27 l 1,1,2
 278 0 278 0 250 -8 c 0,3,4
 237 -12 237 -12 226 -12 c 0,5,6
 206 -12 206 -12 206 5 c 1,7,-1
 401 726 l 1,8,9
 411 756 411 756 456 756 c 0,10,11
 476 756 476 756 476 740 c 1,0,-1
488 251 m 0,12,13
 488 236 488 236 517 236 c 128,-1,14
 546 236 546 236 546 247 c 2,15,-1
 546 292 l 1,16,-1
 545 358 l 1,17,18
 543 364 543 364 539 364 c 128,-1,19
 535 364 535 364 530 357 c 0,20,21
 488 281 488 281 488 251 c 0,12,13
642 244 m 2,22,-1
 657 245 l 2,23,24
 671 245 671 245 671 230 c 0,25,26
 671 161 671 161 640 138 c 1,27,28
 633 136 633 136 633 126 c 2,29,-1
 632 113 l 1,30,31
 632 85 632 85 640 53 c 1,32,33
 643 48 643 48 643 41 c 0,34,35
 643 18 643 18 612 6 c 128,-1,36
 581 -6 581 -6 553 -6 c 128,-1,37
 525 -6 525 -6 525 18 c 1,38,-1
 528 30 l 1,39,40
 540 68 540 68 540 115 c 0,41,42
 540 124 540 124 529 123.5 c 128,-1,43
 518 123 518 123 492 123 c 2,44,-1
 423 125 l 1,45,46
 373 125 373 125 373 165 c 1,47,48
 381 220 381 220 424 304.5 c 128,-1,49
 467 389 467 389 500 436 c 2,50,-1
 532 482 l 1,51,52
 554 510 554 510 616 510 c 0,53,54
 647 510 647 510 647 489 c 0,55,56
 647 486 647 486 639 450.5 c 128,-1,57
 631 415 631 415 630.5 384.5 c 128,-1,58
 630 354 630 354 630 295 c 2,59,-1
 630 249 l 2,60,61
 630 244 630 244 642 244 c 2,22,-1
95 469 m 1,62,-1
 81 468 l 1,63,64
 65 468 65 468 65 493 c 1,65,-1
 69 522 l 1,66,67
 76 552 76 552 99 552 c 128,-1,68
 122 552 122 552 138 569.5 c 128,-1,69
 154 587 154 587 154 608 c 0,70,71
 154 650 154 650 113 650 c 0,72,73
 96 650 96 650 78 634 c 1,74,75
 67 622 67 622 56 622 c 0,76,77
 36 622 36 622 36 653 c 0,78,79
 36 737 36 737 144 737 c 0,80,81
 221 737 221 737 249 684 c 0,82,83
 260 664 260 664 259.5 638 c 128,-1,84
 259 612 259 612 252 592 c 128,-1,85
 245 572 245 572 234 560 c 0,86,87
 212 536 212 536 190 528 c 0,88,89
 185 526 185 526 185 521 c 1,90,-1
 189 515 l 1,91,92
 265 486 265 486 265 392 c 0,93,94
 265 345 265 345 252 310.5 c 128,-1,95
 239 276 239 276 222 259.5 c 128,-1,96
 205 243 205 243 183 234 c 0,97,98
 154 221 154 221 116.5 221 c 128,-1,99
 79 221 79 221 49.5 236.5 c 128,-1,100
 20 252 20 252 20 300 c 0,101,102
 20 320 20 320 27 360 c 0,103,104
 32 384 32 384 51 384 c 0,105,106
 61 384 61 384 68 375 c 0,107,108
 82 355 82 355 109.5 355 c 128,-1,109
 137 355 137 355 151 373 c 128,-1,110
 165 391 165 391 165 416.5 c 128,-1,111
 165 442 165 442 144 455.5 c 128,-1,112
 123 469 123 469 95 469 c 1,62,-1
EndSplineSet
EndChar

StartChar: questiondown
Encoding: 191 191 127
Width: 273
GlyphClass: 2
Flags: W
LayerCount: 2
Fore
SplineSet
261 474 m 1,0,1
 258 438 258 438 224 415 c 128,-1,2
 190 392 190 392 157.5 392 c 128,-1,3
 125 392 125 392 106 405 c 128,-1,4
 87 418 87 418 87 438 c 0,5,6
 87 477 87 477 122.5 500 c 128,-1,7
 158 523 158 523 191 523 c 128,-1,8
 224 523 224 523 242 510 c 128,-1,9
 260 497 260 497 261 474 c 1,0,1
309 -61 m 0,10,11
 309 -123 309 -123 257 -160.5 c 128,-1,12
 205 -198 205 -198 136 -198 c 128,-1,13
 67 -198 67 -198 20 -161.5 c 128,-1,14
 -27 -125 -27 -125 -27 -58 c 0,15,16
 -27 -18 -27 -18 -6.5 21 c 128,-1,17
 14 60 14 60 38 87 c 0,18,19
 103 160 103 160 103 210 c 0,20,21
 103 233 103 233 96 250.5 c 128,-1,22
 89 268 89 268 89 278 c 0,23,24
 89 318 89 318 170 318 c 0,25,26
 195 318 195 318 222.5 302.5 c 128,-1,27
 250 287 250 287 250 262 c 0,28,29
 250 216 250 216 194 143 c 1,30,31
 167 110 167 110 147 70.5 c 128,-1,32
 127 31 127 31 127 7 c 0,33,34
 127 1 127 1 128 -7.5 c 128,-1,35
 129 -16 129 -16 142 -30 c 128,-1,36
 155 -44 155 -44 178 -44 c 0,37,38
 195 -44 195 -44 214 -32 c 128,-1,39
 233 -20 233 -20 242 0 c 1,40,41
 251 14 251 14 269.5 14 c 128,-1,42
 288 14 288 14 298.5 -12 c 128,-1,43
 309 -38 309 -38 309 -61 c 0,10,11
EndSplineSet
EndChar

StartChar: Agrave
Encoding: 192 192 128
Width: 516
GlyphClass: 2
Flags: W
LayerCount: 2
Fore
SplineSet
511 92 m 0,0,1
 528 80 528 80 528 61 c 0,2,3
 528 24 528 24 478.5 -1 c 128,-1,4
 429 -26 429 -26 387 -26 c 0,5,6
 354 -26 354 -26 339 -11 c 0,7,8
 327 1 327 1 326 24.5 c 128,-1,9
 325 48 325 48 324 75 c 128,-1,10
 323 102 323 102 322.5 124 c 128,-1,11
 322 146 322 146 313 161.5 c 128,-1,12
 304 177 304 177 296 180 c 0,13,14
 287 184 287 184 246.5 184 c 128,-1,15
 206 184 206 184 184 175 c 0,16,17
 162 165 162 165 142 82 c 0,18,19
 137 62 137 62 136 60 c 0,20,21
 109 -31 109 -31 5 -31 c 0,22,23
 -44 -31 -44 -31 -44 -2 c 0,24,25
 -44 19 -44 19 -28 44 c 2,26,-1
 -22 53 l 1,27,28
 52 188 52 188 112.5 391.5 c 128,-1,29
 173 595 173 595 173 639 c 0,30,31
 173 656 173 656 167.5 668.5 c 128,-1,32
 162 681 162 681 162 688 c 0,33,34
 162 738 162 738 248 738 c 0,35,36
 301 738 301 738 339.5 717.5 c 128,-1,37
 378 697 378 697 388 653 c 1,38,39
 430 323 430 323 462 209 c 1,40,41
 485 110 485 110 511 92 c 0,0,1
264 465 m 1,42,43
 263 477 263 477 257 477 c 0,44,45
 254 477 254 477 247 468 c 1,46,47
 206 360 206 360 206 319 c 0,48,49
 206 307 206 307 214 304 c 128,-1,50
 222 301 222 301 244 301 c 128,-1,51
 266 301 266 301 275.5 306.5 c 128,-1,52
 285 312 285 312 285 325 c 1,53,54
 277 413 277 413 267 454 c 1,55,-1
 264 465 l 1,42,43
206 800 m 0,56,57
 189 806 189 806 187 819 c 1,58,59
 187 836 187 836 203.5 855.5 c 128,-1,60
 220 875 220 875 235.5 875 c 128,-1,61
 251 875 251 875 271 853 c 0,62,63
 299 822 299 822 314 792 c 1,64,65
 328 769 328 769 328 757 c 128,-1,66
 328 745 328 745 317 745 c 0,67,68
 310 745 310 745 302 749 c 0,69,70
 237 790 237 790 206 800 c 0,56,57
EndSplineSet
EndChar

StartChar: Aacute
Encoding: 193 193 129
Width: 516
GlyphClass: 2
Flags: W
LayerCount: 2
Fore
SplineSet
511 92 m 0,0,1
 528 80 528 80 528 61 c 0,2,3
 528 24 528 24 478.5 -1 c 128,-1,4
 429 -26 429 -26 387 -26 c 0,5,6
 354 -26 354 -26 339 -11 c 0,7,8
 327 1 327 1 326 24.5 c 128,-1,9
 325 48 325 48 324 75 c 128,-1,10
 323 102 323 102 322.5 124 c 128,-1,11
 322 146 322 146 313 161.5 c 128,-1,12
 304 177 304 177 296 180 c 0,13,14
 287 184 287 184 246.5 184 c 128,-1,15
 206 184 206 184 184 175 c 0,16,17
 162 165 162 165 142 82 c 0,18,19
 137 62 137 62 136 60 c 0,20,21
 109 -31 109 -31 5 -31 c 0,22,23
 -44 -31 -44 -31 -44 -2 c 0,24,25
 -44 19 -44 19 -28 44 c 2,26,-1
 -22 53 l 1,27,28
 52 188 52 188 112.5 391.5 c 128,-1,29
 173 595 173 595 173 639 c 0,30,31
 173 656 173 656 167.5 668.5 c 128,-1,32
 162 681 162 681 162 688 c 0,33,34
 162 738 162 738 248 738 c 0,35,36
 301 738 301 738 339.5 717.5 c 128,-1,37
 378 697 378 697 388 653 c 1,38,39
 430 323 430 323 462 209 c 1,40,41
 485 110 485 110 511 92 c 0,0,1
264 465 m 1,42,43
 263 477 263 477 257 477 c 0,44,45
 254 477 254 477 247 468 c 1,46,47
 206 360 206 360 206 319 c 0,48,49
 206 307 206 307 214 304 c 128,-1,50
 222 301 222 301 244 301 c 128,-1,51
 266 301 266 301 275.5 306.5 c 128,-1,52
 285 312 285 312 285 325 c 1,53,54
 277 413 277 413 267 454 c 1,55,-1
 264 465 l 1,42,43
341 873 m 128,-1,57
 357 853 357 853 357 838.5 c 128,-1,58
 357 824 357 824 341 819 c 0,59,60
 311 810 311 810 259 778 c 1,61,-1
 242 767 l 1,62,63
 233 763 233 763 227 763 c 0,64,65
 216 763 216 763 216 780 c 128,-1,66
 216 797 216 797 250.5 845 c 128,-1,67
 285 893 285 893 309 893 c 0,68,56
 325 893 325 893 341 873 c 128,-1,57
EndSplineSet
EndChar

StartChar: Acircumflex
Encoding: 194 194 130
Width: 516
GlyphClass: 2
Flags: W
LayerCount: 2
Fore
SplineSet
511 92 m 0,0,1
 528 80 528 80 528 61 c 0,2,3
 528 24 528 24 478.5 -1 c 128,-1,4
 429 -26 429 -26 387 -26 c 0,5,6
 354 -26 354 -26 339 -11 c 0,7,8
 327 1 327 1 326 24.5 c 128,-1,9
 325 48 325 48 324 75 c 128,-1,10
 323 102 323 102 322.5 124 c 128,-1,11
 322 146 322 146 313 161.5 c 128,-1,12
 304 177 304 177 296 180 c 0,13,14
 287 184 287 184 246.5 184 c 128,-1,15
 206 184 206 184 184 175 c 0,16,17
 162 165 162 165 142 82 c 0,18,19
 137 62 137 62 136 60 c 0,20,21
 109 -31 109 -31 5 -31 c 0,22,23
 -44 -31 -44 -31 -44 -2 c 0,24,25
 -44 19 -44 19 -28 44 c 2,26,-1
 -22 53 l 1,27,28
 52 188 52 188 112.5 391.5 c 128,-1,29
 173 595 173 595 173 639 c 0,30,31
 173 656 173 656 167.5 668.5 c 128,-1,32
 162 681 162 681 162 688 c 0,33,34
 162 738 162 738 248 738 c 0,35,36
 301 738 301 738 339.5 717.5 c 128,-1,37
 378 697 378 697 388 653 c 1,38,39
 430 323 430 323 462 209 c 1,40,41
 485 110 485 110 511 92 c 0,0,1
264 465 m 1,42,43
 263 477 263 477 257 477 c 0,44,45
 254 477 254 477 247 468 c 1,46,47
 206 360 206 360 206 319 c 0,48,49
 206 307 206 307 214 304 c 128,-1,50
 222 301 222 301 244 301 c 128,-1,51
 266 301 266 301 275.5 306.5 c 128,-1,52
 285 312 285 312 285 325 c 1,53,54
 277 413 277 413 267 454 c 1,55,-1
 264 465 l 1,42,43
355 757 m 0,56,57
 277 808 277 808 258 808 c 0,58,59
 252 808 252 808 203.5 780 c 128,-1,60
 155 752 155 752 149 752 c 0,61,62
 138 752 138 752 138 764.5 c 128,-1,63
 138 777 138 777 147 792.5 c 128,-1,64
 156 808 156 808 164 822 c 128,-1,65
 172 836 172 836 192.5 859.5 c 128,-1,66
 213 883 213 883 228 883 c 0,67,68
 229 883 229 883 229 883 c 2,69,70
 242 883 242 883 256 867 c 0,71,72
 258 865 258 865 259.5 865 c 128,-1,73
 261 865 261 865 266 870 c 0,74,75
 277 883 277 883 288 883 c 2,76,-1
 291 883 l 2,77,78
 306 883 306 883 325 862 c 128,-1,79
 344 841 344 841 356 820 c 2,80,-1
 368 799 l 2,81,82
 381 777 381 777 381 764.5 c 128,-1,83
 381 752 381 752 370 752 c 0,84,85
 362 752 362 752 355 757 c 0,56,57
EndSplineSet
EndChar

StartChar: Atilde
Encoding: 195 195 131
Width: 516
GlyphClass: 2
Flags: W
LayerCount: 2
Fore
SplineSet
381 768 m 0,0,1
 362 752 362 752 343 752 c 128,-1,2
 324 752 324 752 286 768 c 128,-1,3
 248 784 248 784 220 784 c 128,-1,4
 192 784 192 784 175.5 778.5 c 128,-1,5
 159 773 159 773 152 773 c 0,6,7
 135 773 135 773 135 793 c 128,-1,8
 135 813 135 813 168.5 839 c 128,-1,9
 202 865 202 865 246 865 c 0,10,11
 264 865 264 865 295.5 858 c 128,-1,12
 327 851 327 851 350 851 c 128,-1,13
 373 851 373 851 394 866 c 1,14,15
 403 871 403 871 413 871 c 0,16,17
 429 871 429 871 429 854 c 0,18,19
 429 809 429 809 381 768 c 0,0,1
511 92 m 0,20,21
 528 80 528 80 528 61 c 0,22,23
 528 24 528 24 478.5 -1 c 128,-1,24
 429 -26 429 -26 387 -26 c 0,25,26
 354 -26 354 -26 339 -11 c 0,27,28
 327 1 327 1 326 24.5 c 128,-1,29
 325 48 325 48 324 75 c 128,-1,30
 323 102 323 102 322.5 124 c 128,-1,31
 322 146 322 146 313 161.5 c 128,-1,32
 304 177 304 177 296 180 c 0,33,34
 287 184 287 184 246.5 184 c 128,-1,35
 206 184 206 184 184 175 c 0,36,37
 162 165 162 165 142 82 c 0,38,39
 137 62 137 62 136 60 c 0,40,41
 109 -31 109 -31 5 -31 c 0,42,43
 -44 -31 -44 -31 -44 -2 c 0,44,45
 -44 19 -44 19 -28 44 c 2,46,-1
 -22 53 l 1,47,48
 52 188 52 188 112.5 391.5 c 128,-1,49
 173 595 173 595 173 639 c 0,50,51
 173 656 173 656 167.5 668.5 c 128,-1,52
 162 681 162 681 162 688 c 0,53,54
 162 738 162 738 248 738 c 0,55,56
 301 738 301 738 339.5 717.5 c 128,-1,57
 378 697 378 697 388 653 c 1,58,59
 430 323 430 323 462 209 c 1,60,61
 485 110 485 110 511 92 c 0,20,21
264 465 m 1,62,63
 263 477 263 477 257 477 c 0,64,65
 254 477 254 477 247 468 c 1,66,67
 206 360 206 360 206 319 c 0,68,69
 206 307 206 307 214 304 c 128,-1,70
 222 301 222 301 244 301 c 128,-1,71
 266 301 266 301 275.5 306.5 c 128,-1,72
 285 312 285 312 285 325 c 1,73,74
 277 413 277 413 267 454 c 1,75,-1
 264 465 l 1,62,63
EndSplineSet
EndChar

StartChar: Adieresis
Encoding: 196 196 132
Width: 516
GlyphClass: 2
Flags: W
LayerCount: 2
Fore
SplineSet
511 92 m 0,0,1
 528 80 528 80 528 61 c 0,2,3
 528 24 528 24 478.5 -1 c 128,-1,4
 429 -26 429 -26 387 -26 c 0,5,6
 354 -26 354 -26 339 -11 c 0,7,8
 327 1 327 1 326 24.5 c 128,-1,9
 325 48 325 48 324 75 c 128,-1,10
 323 102 323 102 322.5 124 c 128,-1,11
 322 146 322 146 313 161.5 c 128,-1,12
 304 177 304 177 296 180 c 0,13,14
 287 184 287 184 246.5 184 c 128,-1,15
 206 184 206 184 184 175 c 0,16,17
 162 165 162 165 142 82 c 0,18,19
 137 62 137 62 136 60 c 0,20,21
 109 -31 109 -31 5 -31 c 0,22,23
 -44 -31 -44 -31 -44 -2 c 0,24,25
 -44 19 -44 19 -28 44 c 2,26,-1
 -22 53 l 1,27,28
 52 188 52 188 112.5 391.5 c 128,-1,29
 173 595 173 595 173 639 c 0,30,31
 173 656 173 656 167.5 668.5 c 128,-1,32
 162 681 162 681 162 688 c 0,33,34
 162 738 162 738 248 738 c 0,35,36
 301 738 301 738 339.5 717.5 c 128,-1,37
 378 697 378 697 388 653 c 1,38,39
 430 323 430 323 462 209 c 1,40,41
 485 110 485 110 511 92 c 0,0,1
264 465 m 1,42,43
 263 477 263 477 257 477 c 0,44,45
 254 477 254 477 247 468 c 1,46,47
 206 360 206 360 206 319 c 0,48,49
 206 307 206 307 214 304 c 128,-1,50
 222 301 222 301 244 301 c 128,-1,51
 266 301 266 301 275.5 306.5 c 128,-1,52
 285 312 285 312 285 325 c 1,53,54
 277 413 277 413 267 454 c 1,55,-1
 264 465 l 1,42,43
395 857 m 128,-1,57
 408 846 408 846 408 823.5 c 128,-1,58
 408 801 408 801 384.5 781.5 c 128,-1,59
 361 762 361 762 338.5 762 c 128,-1,60
 316 762 316 762 302.5 773.5 c 128,-1,61
 289 785 289 785 289 807 c 128,-1,62
 289 829 289 829 313 848.5 c 128,-1,63
 337 868 337 868 359.5 868 c 128,-1,56
 382 868 382 868 395 857 c 128,-1,57
214 857 m 128,-1,65
 227 846 227 846 227 823.5 c 128,-1,66
 227 801 227 801 203.5 781.5 c 128,-1,67
 180 762 180 762 157.5 762 c 128,-1,68
 135 762 135 762 121.5 773.5 c 128,-1,69
 108 785 108 785 108 807 c 128,-1,70
 108 829 108 829 132 848.5 c 128,-1,71
 156 868 156 868 178.5 868 c 128,-1,64
 201 868 201 868 214 857 c 128,-1,65
EndSplineSet
EndChar

StartChar: Aring
Encoding: 197 197 133
Width: 516
GlyphClass: 2
Flags: W
LayerCount: 2
Fore
SplineSet
511 92 m 0,0,1
 528 80 528 80 528 61 c 0,2,3
 528 24 528 24 478.5 -1 c 128,-1,4
 429 -26 429 -26 387 -26 c 0,5,6
 354 -26 354 -26 339 -11 c 0,7,8
 327 1 327 1 326 24.5 c 128,-1,9
 325 48 325 48 324 75 c 128,-1,10
 323 102 323 102 322.5 124 c 128,-1,11
 322 146 322 146 313 161.5 c 128,-1,12
 304 177 304 177 296 180 c 0,13,14
 287 184 287 184 246.5 184 c 128,-1,15
 206 184 206 184 184 175 c 0,16,17
 162 165 162 165 142 82 c 0,18,19
 137 62 137 62 136 60 c 0,20,21
 109 -31 109 -31 5 -31 c 0,22,23
 -44 -31 -44 -31 -44 -2 c 0,24,25
 -44 19 -44 19 -28 44 c 2,26,-1
 -22 53 l 1,27,28
 52 188 52 188 112.5 391.5 c 128,-1,29
 173 595 173 595 173 639 c 0,30,31
 173 656 173 656 167.5 668.5 c 128,-1,32
 162 681 162 681 162 688 c 0,33,34
 162 738 162 738 248 738 c 0,35,36
 301 738 301 738 339.5 717.5 c 128,-1,37
 378 697 378 697 388 653 c 1,38,39
 430 323 430 323 462 209 c 1,40,41
 485 110 485 110 511 92 c 0,0,1
264 465 m 1,42,43
 263 477 263 477 257 477 c 0,44,45
 254 477 254 477 247 468 c 1,46,47
 206 360 206 360 206 319 c 0,48,49
 206 307 206 307 214 304 c 128,-1,50
 222 301 222 301 244 301 c 128,-1,51
 266 301 266 301 275.5 306.5 c 128,-1,52
 285 312 285 312 285 325 c 1,53,54
 277 413 277 413 267 454 c 1,55,-1
 264 465 l 1,42,43
329 887 m 128,-1,57
 346 873 346 873 346 845.5 c 128,-1,58
 346 818 346 818 316.5 791.5 c 128,-1,59
 287 765 287 765 256 765 c 128,-1,60
 225 765 225 765 208.5 778 c 128,-1,61
 192 791 192 791 191.5 818.5 c 128,-1,62
 191 846 191 846 220 873.5 c 128,-1,63
 249 901 249 901 280.5 901 c 128,-1,56
 312 901 312 901 329 887 c 128,-1,57
247 851 m 128,-1,65
 234 839 234 839 234 827 c 0,66,67
 234 803 234 803 260 803 c 0,68,69
 277 803 277 803 290 814.5 c 128,-1,70
 303 826 303 826 303 838 c 0,71,72
 303 863 303 863 277 863 c 0,73,64
 260 863 260 863 247 851 c 128,-1,65
EndSplineSet
EndChar

StartChar: AE
Encoding: 198 198 134
Width: 683
GlyphClass: 2
Flags: W
LayerCount: 2
Fore
SplineSet
559 477 m 2,0,-1
 605 478 l 2,1,2
 633 478 633 478 633 443 c 128,-1,3
 633 408 633 408 601.5 386 c 128,-1,4
 570 364 570 364 523 362 c 1,5,6
 462 362 462 362 458 338 c 0,7,8
 455 319 455 319 455 294 c 128,-1,9
 455 269 455 269 459 248 c 128,-1,10
 463 227 463 227 474 204 c 0,11,12
 498 155 498 155 564 155 c 0,13,14
 593 155 593 155 610 167.5 c 128,-1,15
 627 180 627 180 643 180 c 128,-1,16
 659 180 659 180 668 163.5 c 128,-1,17
 677 147 677 147 677 128 c 0,18,19
 677 64 677 64 628 26 c 128,-1,20
 579 -12 579 -12 510 -12 c 0,21,22
 488 -12 488 -12 465 -7 c 1,23,24
 422 -26 422 -26 395.5 -26 c 128,-1,25
 369 -26 369 -26 357 -21.5 c 128,-1,26
 345 -17 345 -17 339 -11 c 128,-1,27
 333 -5 333 -5 329.5 10.5 c 128,-1,28
 326 26 326 26 325.5 37 c 128,-1,29
 325 48 325 48 324 75 c 128,-1,30
 323 102 323 102 322.5 124 c 128,-1,31
 322 146 322 146 313 161.5 c 128,-1,32
 304 177 304 177 296 180 c 0,33,34
 287 184 287 184 246.5 184 c 128,-1,35
 206 184 206 184 184 175 c 0,36,37
 162 165 162 165 142 82 c 0,38,39
 137 62 137 62 136 60 c 0,40,41
 109 -31 109 -31 5 -31 c 0,42,43
 -44 -31 -44 -31 -44 -2 c 0,44,45
 -44 19 -44 19 -28 44 c 2,46,-1
 -22 53 l 1,47,48
 52 188 52 188 112.5 391.5 c 128,-1,49
 173 595 173 595 173 639 c 0,50,51
 173 656 173 656 167.5 668.5 c 128,-1,52
 162 681 162 681 162 688 c 0,53,54
 162 738 162 738 248 738 c 0,55,56
 301 738 301 738 339.5 717.5 c 128,-1,57
 378 697 378 697 388 653 c 1,58,-1
 388 645 l 1,59,-1
 392 650 l 1,60,61
 428 699 428 699 473 719 c 128,-1,62
 518 739 518 739 587 739 c 128,-1,63
 656 739 656 739 670 703.5 c 128,-1,64
 684 668 684 668 684 645 c 0,65,66
 684 591 684 591 650 591 c 0,67,68
 641 591 641 591 621 601 c 128,-1,69
 601 611 601 611 573 611 c 0,70,71
 524 611 524 611 494.5 574.5 c 128,-1,72
 465 538 465 538 465 492 c 0,73,74
 465 479 465 479 493.5 478 c 128,-1,75
 522 477 522 477 559 477 c 2,0,-1
285 325 m 1,76,77
 280 355 280 355 280 371 c 1,78,-1
 264 465 l 1,79,80
 263 477 263 477 257 477 c 0,81,82
 254 477 254 477 247 468 c 1,83,84
 206 360 206 360 206 319 c 0,85,86
 206 307 206 307 214 304 c 128,-1,87
 222 301 222 301 244 301 c 128,-1,88
 266 301 266 301 275.5 306.5 c 128,-1,89
 285 312 285 312 285 325 c 1,76,77
EndSplineSet
EndChar

StartChar: Ccedilla
Encoding: 199 199 135
Width: 413
GlyphClass: 2
Flags: W
LayerCount: 2
Fore
SplineSet
413 174 m 0,0,1
 413 97 413 97 370 44.5 c 128,-1,2
 327 -8 327 -8 256 -18 c 0,3,4
 247 -19 247 -19 237 -25.5 c 128,-1,5
 227 -32 227 -32 227 -41.5 c 128,-1,6
 227 -51 227 -51 251 -65.5 c 128,-1,7
 275 -80 275 -80 275 -97 c 0,8,9
 275 -124 275 -124 248.5 -139 c 128,-1,10
 222 -154 222 -154 195 -154 c 128,-1,11
 168 -154 168 -154 168 -145 c 128,-1,12
 168 -136 168 -136 188 -120 c 1,13,14
 204 -109 204 -109 204 -100 c 0,15,16
 204 -88 204 -88 183 -79.5 c 128,-1,17
 162 -71 162 -71 162 -59.5 c 128,-1,18
 162 -48 162 -48 177 -36.5 c 128,-1,19
 192 -25 192 -25 192 -19 c 1,20,21
 144 -14 144 -14 108.5 13.5 c 128,-1,22
 73 41 73 41 55 75 c 128,-1,23
 37 109 37 109 26 154 c 0,24,25
 10 219 10 219 10 276 c 128,-1,26
 10 333 10 333 13.5 377 c 128,-1,27
 17 421 17 421 26 474.5 c 128,-1,28
 35 528 35 528 52.5 572.5 c 128,-1,29
 70 617 70 617 95 655.5 c 128,-1,30
 120 694 120 694 159.5 716 c 128,-1,31
 199 738 199 738 237.5 738 c 128,-1,32
 276 738 276 738 293.5 733 c 128,-1,33
 311 728 311 728 318.5 728 c 128,-1,34
 326 728 326 728 343.5 736 c 128,-1,35
 361 744 361 744 386.5 744 c 128,-1,36
 412 744 412 744 412 723 c 0,37,38
 412 722 412 722 404 679.5 c 128,-1,39
 396 637 396 637 396 592.5 c 128,-1,40
 396 548 396 548 404 533.5 c 128,-1,41
 412 519 412 519 412 506 c 0,42,43
 412 481 412 481 389 467 c 128,-1,44
 366 453 366 453 339 453 c 0,45,46
 269 453 269 453 269 525 c 0,47,48
 269 541 269 541 275 568 c 128,-1,49
 281 595 281 595 281 603 c 0,50,51
 281 624 281 624 258 624 c 0,52,53
 226 624 226 624 194 566 c 0,54,55
 157 499 157 499 157 370 c 0,56,57
 157 314 157 314 169 270 c 0,58,59
 192 187 192 187 245 187 c 0,60,61
 291 187 291 187 316 237 c 0,62,63
 327 261 327 261 353 261 c 128,-1,64
 379 261 379 261 396 232 c 128,-1,65
 413 203 413 203 413 174 c 0,0,1
EndSplineSet
EndChar

StartChar: Egrave
Encoding: 200 200 136
Width: 405
GlyphClass: 2
Flags: W
LayerCount: 2
Fore
SplineSet
280 474 m 2,0,-1
 326 475 l 2,1,2
 354 475 354 475 354 440 c 128,-1,3
 354 405 354 405 322.5 383 c 128,-1,4
 291 361 291 361 244 359 c 1,5,6
 183 359 183 359 179 335 c 0,7,8
 176 316 176 316 176 291 c 128,-1,9
 176 266 176 266 180 245 c 128,-1,10
 184 224 184 224 195 202 c 0,11,12
 219 152 219 152 285 152 c 0,13,14
 314 152 314 152 331 164.5 c 128,-1,15
 348 177 348 177 364 177 c 128,-1,16
 380 177 380 177 389 160.5 c 128,-1,17
 398 144 398 144 398 125 c 0,18,19
 398 61 398 61 344 19.5 c 128,-1,20
 290 -22 290 -22 221 -22 c 0,21,22
 31 -22 31 -22 31 259 c 1,23,-1
 35 336 l 1,24,25
 1 336 1 336 1 369 c 0,26,27
 1 395 1 395 16.5 427 c 128,-1,28
 32 459 32 459 53 468 c 1,29,30
 57 511 57 511 73 562.5 c 128,-1,31
 89 614 89 614 119 655 c 0,32,33
 178 736 178 736 301 736 c 0,34,35
 377 736 377 736 391 700.5 c 128,-1,36
 405 665 405 665 405 642 c 0,37,38
 405 588 405 588 371 588 c 0,39,40
 362 588 362 588 342 598 c 128,-1,41
 322 608 322 608 294 608 c 0,42,43
 245 608 245 608 215.5 571.5 c 128,-1,44
 186 535 186 535 186 489 c 0,45,46
 186 476 186 476 214.5 475 c 128,-1,47
 243 474 243 474 280 474 c 2,0,-1
188 818 m 0,48,49
 171 824 171 824 169 837 c 1,50,51
 169 854 169 854 185.5 873.5 c 128,-1,52
 202 893 202 893 217.5 893 c 128,-1,53
 233 893 233 893 253 871 c 0,54,55
 281 840 281 840 296 810 c 1,56,57
 310 787 310 787 310 775 c 128,-1,58
 310 763 310 763 299 763 c 0,59,60
 292 763 292 763 284 767 c 0,61,62
 219 808 219 808 188 818 c 0,48,49
EndSplineSet
EndChar

StartChar: Eacute
Encoding: 201 201 137
Width: 405
GlyphClass: 2
Flags: W
LayerCount: 2
Fore
SplineSet
280 474 m 2,0,-1
 326 475 l 2,1,2
 354 475 354 475 354 440 c 128,-1,3
 354 405 354 405 322.5 383 c 128,-1,4
 291 361 291 361 244 359 c 1,5,6
 183 359 183 359 179 335 c 0,7,8
 176 316 176 316 176 291 c 128,-1,9
 176 266 176 266 180 245 c 128,-1,10
 184 224 184 224 195 202 c 0,11,12
 219 152 219 152 285 152 c 0,13,14
 314 152 314 152 331 164.5 c 128,-1,15
 348 177 348 177 364 177 c 128,-1,16
 380 177 380 177 389 160.5 c 128,-1,17
 398 144 398 144 398 125 c 0,18,19
 398 61 398 61 344 19.5 c 128,-1,20
 290 -22 290 -22 221 -22 c 0,21,22
 31 -22 31 -22 31 259 c 1,23,-1
 35 336 l 1,24,25
 1 336 1 336 1 369 c 0,26,27
 1 395 1 395 16.5 427 c 128,-1,28
 32 459 32 459 53 468 c 1,29,30
 57 511 57 511 73 562.5 c 128,-1,31
 89 614 89 614 119 655 c 0,32,33
 178 736 178 736 301 736 c 0,34,35
 377 736 377 736 391 700.5 c 128,-1,36
 405 665 405 665 405 642 c 0,37,38
 405 588 405 588 371 588 c 0,39,40
 362 588 362 588 342 598 c 128,-1,41
 322 608 322 608 294 608 c 0,42,43
 245 608 245 608 215.5 571.5 c 128,-1,44
 186 535 186 535 186 489 c 0,45,46
 186 476 186 476 214.5 475 c 128,-1,47
 243 474 243 474 280 474 c 2,0,-1
329 855 m 128,-1,49
 345 835 345 835 345 820.5 c 128,-1,50
 345 806 345 806 329 801 c 0,51,52
 299 792 299 792 247 760 c 1,53,-1
 230 749 l 1,54,55
 221 745 221 745 215 745 c 0,56,57
 204 745 204 745 204 762 c 128,-1,58
 204 779 204 779 238.5 827 c 128,-1,59
 273 875 273 875 297 875 c 0,60,48
 313 875 313 875 329 855 c 128,-1,49
EndSplineSet
EndChar

StartChar: Ecircumflex
Encoding: 202 202 138
Width: 405
GlyphClass: 2
Flags: W
LayerCount: 2
Fore
SplineSet
280 474 m 2,0,-1
 326 475 l 2,1,2
 354 475 354 475 354 440 c 128,-1,3
 354 405 354 405 322.5 383 c 128,-1,4
 291 361 291 361 244 359 c 1,5,6
 183 359 183 359 179 335 c 0,7,8
 176 316 176 316 176 291 c 128,-1,9
 176 266 176 266 180 245 c 128,-1,10
 184 224 184 224 195 202 c 0,11,12
 219 152 219 152 285 152 c 0,13,14
 314 152 314 152 331 164.5 c 128,-1,15
 348 177 348 177 364 177 c 128,-1,16
 380 177 380 177 389 160.5 c 128,-1,17
 398 144 398 144 398 125 c 0,18,19
 398 61 398 61 344 19.5 c 128,-1,20
 290 -22 290 -22 221 -22 c 0,21,22
 31 -22 31 -22 31 259 c 1,23,-1
 35 336 l 1,24,25
 1 336 1 336 1 369 c 0,26,27
 1 395 1 395 16.5 427 c 128,-1,28
 32 459 32 459 53 468 c 1,29,30
 57 511 57 511 73 562.5 c 128,-1,31
 89 614 89 614 119 655 c 0,32,33
 178 736 178 736 301 736 c 0,34,35
 377 736 377 736 391 700.5 c 128,-1,36
 405 665 405 665 405 642 c 0,37,38
 405 588 405 588 371 588 c 0,39,40
 362 588 362 588 342 598 c 128,-1,41
 322 608 322 608 294 608 c 0,42,43
 245 608 245 608 215.5 571.5 c 128,-1,44
 186 535 186 535 186 489 c 0,45,46
 186 476 186 476 214.5 475 c 128,-1,47
 243 474 243 474 280 474 c 2,0,-1
344 765 m 0,48,49
 266 816 266 816 247 816 c 0,50,51
 241 816 241 816 193 788 c 128,-1,52
 145 760 145 760 138 760 c 0,53,54
 127 760 127 760 127 772.5 c 128,-1,55
 127 785 127 785 136 800.5 c 128,-1,56
 145 816 145 816 153 830 c 128,-1,57
 161 844 161 844 181.5 867.5 c 128,-1,58
 202 891 202 891 217 891 c 0,59,60
 218 891 218 891 218 891 c 2,61,62
 231 891 231 891 245 875 c 0,63,64
 247 873 247 873 248.5 873 c 128,-1,65
 250 873 250 873 254 878 c 0,66,67
 266 891 266 891 276 891 c 2,68,-1
 280 891 l 2,69,70
 295 891 295 891 314 870 c 128,-1,71
 333 849 333 849 345 828 c 2,72,-1
 357 807 l 2,73,74
 370 785 370 785 370 772.5 c 128,-1,75
 370 760 370 760 359 760 c 0,76,77
 352 760 352 760 344 765 c 0,48,49
EndSplineSet
EndChar

StartChar: Edieresis
Encoding: 203 203 139
Width: 405
GlyphClass: 2
Flags: W
LayerCount: 2
Fore
SplineSet
280 474 m 2,0,-1
 326 475 l 2,1,2
 354 475 354 475 354 440 c 128,-1,3
 354 405 354 405 322.5 383 c 128,-1,4
 291 361 291 361 244 359 c 1,5,6
 183 359 183 359 179 335 c 0,7,8
 176 316 176 316 176 291 c 128,-1,9
 176 266 176 266 180 245 c 128,-1,10
 184 224 184 224 195 202 c 0,11,12
 219 152 219 152 285 152 c 0,13,14
 314 152 314 152 331 164.5 c 128,-1,15
 348 177 348 177 364 177 c 128,-1,16
 380 177 380 177 389 160.5 c 128,-1,17
 398 144 398 144 398 125 c 0,18,19
 398 61 398 61 344 19.5 c 128,-1,20
 290 -22 290 -22 221 -22 c 0,21,22
 31 -22 31 -22 31 259 c 1,23,-1
 35 336 l 1,24,25
 1 336 1 336 1 369 c 0,26,27
 1 395 1 395 16.5 427 c 128,-1,28
 32 459 32 459 53 468 c 1,29,30
 57 511 57 511 73 562.5 c 128,-1,31
 89 614 89 614 119 655 c 0,32,33
 178 736 178 736 301 736 c 0,34,35
 377 736 377 736 391 700.5 c 128,-1,36
 405 665 405 665 405 642 c 0,37,38
 405 588 405 588 371 588 c 0,39,40
 362 588 362 588 342 598 c 128,-1,41
 322 608 322 608 294 608 c 0,42,43
 245 608 245 608 215.5 571.5 c 128,-1,44
 186 535 186 535 186 489 c 0,45,46
 186 476 186 476 214.5 475 c 128,-1,47
 243 474 243 474 280 474 c 2,0,-1
382 862 m 128,-1,49
 395 851 395 851 395 828.5 c 128,-1,50
 395 806 395 806 371.5 786.5 c 128,-1,51
 348 767 348 767 325.5 767 c 128,-1,52
 303 767 303 767 289.5 778.5 c 128,-1,53
 276 790 276 790 276 812 c 128,-1,54
 276 834 276 834 300 853.5 c 128,-1,55
 324 873 324 873 346.5 873 c 128,-1,48
 369 873 369 873 382 862 c 128,-1,49
201 862 m 128,-1,57
 214 851 214 851 214 828.5 c 128,-1,58
 214 806 214 806 190.5 786.5 c 128,-1,59
 167 767 167 767 144.5 767 c 128,-1,60
 122 767 122 767 108.5 778.5 c 128,-1,61
 95 790 95 790 95 812 c 128,-1,62
 95 834 95 834 119 853.5 c 128,-1,63
 143 873 143 873 165.5 873 c 128,-1,56
 188 873 188 873 201 862 c 128,-1,57
EndSplineSet
EndChar

StartChar: Igrave
Encoding: 204 204 140
Width: 196
GlyphClass: 2
Flags: W
LayerCount: 2
Fore
SplineSet
136 -14.5 m 128,-1,1
 86 -38 86 -38 49.5 -38 c 128,-1,2
 13 -38 13 -38 13 -5 c 1,3,-1
 16 14 l 1,4,5
 41 195 41 195 41 391 c 1,6,-1
 36 546 l 2,7,8
 34 582 34 582 12 610 c 1,9,10
 1 621 1 621 1 637 c 0,11,12
 1 673 1 673 56.5 703.5 c 128,-1,13
 112 734 112 734 144.5 734 c 128,-1,14
 177 734 177 734 179 701 c 0,15,16
 180 689 180 689 180 651.5 c 128,-1,17
 180 614 180 614 175 549 c 1,18,19
 172 440 172 440 172 277.5 c 128,-1,20
 172 115 172 115 183 60 c 1,21,22
 186 54 186 54 186 45 c 0,23,0
 186 9 186 9 136 -14.5 c 128,-1,1
47 816 m 0,24,25
 30 822 30 822 28 835 c 1,26,27
 28 852 28 852 44.5 871.5 c 128,-1,28
 61 891 61 891 76.5 891 c 128,-1,29
 92 891 92 891 112 869 c 0,30,31
 140 838 140 838 155 808 c 1,32,33
 169 785 169 785 169 773 c 128,-1,34
 169 761 169 761 158 761 c 0,35,36
 151 761 151 761 143 765 c 0,37,38
 78 806 78 806 47 816 c 0,24,25
EndSplineSet
EndChar

StartChar: Iacute
Encoding: 205 205 141
Width: 196
GlyphClass: 2
Flags: W
LayerCount: 2
Fore
SplineSet
136 -14.5 m 128,-1,1
 86 -38 86 -38 49.5 -38 c 128,-1,2
 13 -38 13 -38 13 -5 c 1,3,-1
 16 14 l 1,4,5
 41 195 41 195 41 391 c 1,6,-1
 36 546 l 2,7,8
 34 582 34 582 12 610 c 1,9,10
 1 621 1 621 1 637 c 0,11,12
 1 673 1 673 56.5 703.5 c 128,-1,13
 112 734 112 734 144.5 734 c 128,-1,14
 177 734 177 734 179 701 c 0,15,16
 180 689 180 689 180 651.5 c 128,-1,17
 180 614 180 614 175 549 c 1,18,19
 172 440 172 440 172 277.5 c 128,-1,20
 172 115 172 115 183 60 c 1,21,22
 186 54 186 54 186 45 c 0,23,0
 186 9 186 9 136 -14.5 c 128,-1,1
153 855 m 128,-1,25
 169 835 169 835 169 820.5 c 128,-1,26
 169 806 169 806 153 801 c 0,27,28
 123 792 123 792 71 760 c 1,29,-1
 54 749 l 1,30,31
 45 745 45 745 39 745 c 0,32,33
 28 745 28 745 28 762 c 128,-1,34
 28 779 28 779 62.5 827 c 128,-1,35
 97 875 97 875 121 875 c 0,36,24
 137 875 137 875 153 855 c 128,-1,25
EndSplineSet
EndChar

StartChar: Icircumflex
Encoding: 206 206 142
Width: 196
GlyphClass: 2
Flags: W
LayerCount: 2
Fore
SplineSet
136 -14.5 m 128,-1,1
 86 -38 86 -38 49.5 -38 c 128,-1,2
 13 -38 13 -38 13 -5 c 1,3,-1
 16 14 l 1,4,5
 41 195 41 195 41 391 c 1,6,-1
 36 546 l 2,7,8
 34 582 34 582 12 610 c 1,9,10
 1 621 1 621 1 637 c 0,11,12
 1 673 1 673 56.5 703.5 c 128,-1,13
 112 734 112 734 144.5 734 c 128,-1,14
 177 734 177 734 179 701 c 0,15,16
 180 689 180 689 180 651.5 c 128,-1,17
 180 614 180 614 175 549 c 1,18,19
 172 440 172 440 172 277.5 c 128,-1,20
 172 115 172 115 183 60 c 1,21,22
 186 54 186 54 186 45 c 0,23,0
 186 9 186 9 136 -14.5 c 128,-1,1
194 744 m 0,24,25
 116 795 116 795 97 795 c 0,26,27
 91 795 91 795 43 767 c 128,-1,28
 -5 739 -5 739 -12 739 c 0,29,30
 -23 739 -23 739 -23 751.5 c 128,-1,31
 -23 764 -23 764 -14 779.5 c 128,-1,32
 -5 795 -5 795 3 809 c 128,-1,33
 11 823 11 823 31.5 846.5 c 128,-1,34
 52 870 52 870 67 870 c 0,35,36
 68 870 68 870 68 870 c 2,37,38
 81 870 81 870 95 854 c 0,39,40
 97 852 97 852 98.5 852 c 128,-1,41
 100 852 100 852 104 857 c 0,42,43
 116 870 116 870 126 870 c 2,44,-1
 130 870 l 2,45,46
 145 870 145 870 164 849 c 128,-1,47
 183 828 183 828 195 807 c 2,48,-1
 207 786 l 2,49,50
 220 764 220 764 220 751.5 c 128,-1,51
 220 739 220 739 209 739 c 0,52,53
 201 739 201 739 194 744 c 0,24,25
EndSplineSet
EndChar

StartChar: Idieresis
Encoding: 207 207 143
Width: 196
GlyphClass: 2
Flags: W
LayerCount: 2
Fore
SplineSet
136 -14.5 m 128,-1,1
 86 -38 86 -38 49.5 -38 c 128,-1,2
 13 -38 13 -38 13 -5 c 1,3,-1
 16 14 l 1,4,5
 41 195 41 195 41 391 c 1,6,-1
 36 546 l 2,7,8
 34 582 34 582 12 610 c 1,9,10
 1 621 1 621 1 637 c 0,11,12
 1 673 1 673 56.5 703.5 c 128,-1,13
 112 734 112 734 144.5 734 c 128,-1,14
 177 734 177 734 179 701 c 0,15,16
 180 689 180 689 180 651.5 c 128,-1,17
 180 614 180 614 175 549 c 1,18,19
 172 440 172 440 172 277.5 c 128,-1,20
 172 115 172 115 183 60 c 1,21,22
 186 54 186 54 186 45 c 0,23,0
 186 9 186 9 136 -14.5 c 128,-1,1
248 847 m 128,-1,25
 261 836 261 836 261 813.5 c 128,-1,26
 261 791 261 791 237.5 771.5 c 128,-1,27
 214 752 214 752 191.5 752 c 128,-1,28
 169 752 169 752 155.5 763.5 c 128,-1,29
 142 775 142 775 142 797 c 128,-1,30
 142 819 142 819 166 838.5 c 128,-1,31
 190 858 190 858 212.5 858 c 128,-1,24
 235 858 235 858 248 847 c 128,-1,25
67 847 m 128,-1,33
 80 836 80 836 80 813.5 c 128,-1,34
 80 791 80 791 56.5 771.5 c 128,-1,35
 33 752 33 752 10.5 752 c 128,-1,36
 -12 752 -12 752 -25.5 763.5 c 128,-1,37
 -39 775 -39 775 -39 797 c 128,-1,38
 -39 819 -39 819 -15 838.5 c 128,-1,39
 9 858 9 858 31.5 858 c 128,-1,32
 54 858 54 858 67 847 c 128,-1,33
EndSplineSet
EndChar

StartChar: Eth
Encoding: 208 208 144
Width: 443
GlyphClass: 2
Flags: W
LayerCount: 2
Fore
SplineSet
0 59 m 1,0,-1
 1 68 l 1,1,2
 24 207 24 207 29 332 c 1,3,-1
 -24 331 l 2,4,5
 -43 331 -43 331 -43 370.5 c 128,-1,6
 -43 410 -43 410 -18 413 c 1,7,8
 3 412 3 412 31 412 c 1,9,10
 31 542 31 542 14 605 c 1,11,-1
 9 626 l 1,12,13
 4 636 4 636 4 650 c 0,14,15
 4 686 4 686 42 709 c 1,16,17
 81 737 81 737 163 737 c 128,-1,18
 245 737 245 737 299 705.5 c 128,-1,19
 353 674 353 674 383 621 c 0,20,21
 442 517 442 517 442 379 c 0,22,23
 442 252 442 252 404 155 c 0,24,25
 384 102 384 102 352 64 c 128,-1,26
 320 26 320 26 269.5 2.5 c 128,-1,27
 219 -21 219 -21 155 -21 c 0,28,29
 107 -21 107 -21 69.5 -9.5 c 128,-1,30
 32 2 32 2 16 18.5 c 128,-1,31
 0 35 0 35 0 59 c 1,0,-1
222 331 m 1,32,33
 200 333 200 333 168 333 c 1,34,-1
 168 299 l 2,35,36
 168 230 168 230 173 167 c 1,37,38
 173 145 173 145 195 145 c 0,39,40
 288 145 288 145 288 397 c 0,41,42
 288 562 288 562 242 609 c 0,43,44
 226 626 226 626 212 626 c 0,45,46
 187 626 187 626 184 601 c 0,47,48
 172 526 172 526 170 412 c 1,49,50
 209 412 209 412 215 413 c 1,51,52
 228 412 228 412 235 399 c 128,-1,53
 242 386 242 386 242 369 c 0,54,55
 242 334 242 334 222 331 c 1,32,33
EndSplineSet
EndChar

StartChar: Ntilde
Encoding: 209 209 145
Width: 498
GlyphClass: 2
Flags: W
LayerCount: 2
Fore
SplineSet
381 768 m 0,0,1
 362 752 362 752 343 752 c 128,-1,2
 324 752 324 752 286 768 c 128,-1,3
 248 784 248 784 220 784 c 128,-1,4
 192 784 192 784 175.5 778.5 c 128,-1,5
 159 773 159 773 152 773 c 0,6,7
 135 773 135 773 135 793 c 128,-1,8
 135 813 135 813 168.5 839 c 128,-1,9
 202 865 202 865 246 865 c 0,10,11
 264 865 264 865 295.5 858 c 128,-1,12
 327 851 327 851 350 851 c 128,-1,13
 373 851 373 851 394 866 c 1,14,15
 403 871 403 871 413 871 c 0,16,17
 429 871 429 871 429 854 c 0,18,19
 429 809 429 809 381 768 c 0,0,1
51 474 m 1,20,-1
 49 533 l 1,21,-1
 49 539 l 2,22,23
 49 568 49 568 36 600 c 2,24,-1
 32 610 l 1,25,26
 21 624 21 624 21 643 c 128,-1,27
 21 662 21 662 43 681.5 c 128,-1,28
 65 701 65 701 97 712 c 0,29,30
 164 735 164 735 211 735 c 128,-1,31
 258 735 258 735 267 695 c 1,32,33
 279 655 279 655 293.5 586.5 c 128,-1,34
 308 518 308 518 314 495 c 0,35,36
 330 428 330 428 349 391 c 1,37,38
 352 388 352 388 356 388 c 0,39,40
 366 388 366 388 368 411 c 1,41,42
 368 501 368 501 364.5 550.5 c 128,-1,43
 361 600 361 600 361 626.5 c 128,-1,44
 361 653 361 653 364 662 c 0,45,46
 375 695 375 695 409.5 717 c 128,-1,47
 444 739 444 739 475.5 739 c 128,-1,48
 507 739 507 739 507 714 c 0,49,50
 507 708 507 708 493 638 c 0,51,52
 459 461 459 461 459 208 c 0,53,54
 459 124 459 124 465 31 c 1,55,-1
 465 27 l 2,56,57
 465 -5 465 -5 431 -14 c 0,58,59
 405 -21 405 -21 375.5 -21 c 128,-1,60
 346 -21 346 -21 307.5 -7.5 c 128,-1,61
 269 6 269 6 264 37 c 0,62,63
 236 205 236 205 191 374 c 2,64,-1
 176 431 l 1,65,66
 170 447 170 447 162 447 c 0,67,68
 145 447 145 447 145 237 c 0,69,70
 145 165 145 165 148 110 c 128,-1,71
 151 55 151 55 151 45 c 0,72,73
 151 18 151 18 132.5 -0.5 c 128,-1,74
 114 -19 114 -19 87 -26 c 0,75,76
 42 -39 42 -39 16 -39 c 128,-1,77
 -10 -39 -10 -39 -10 -15 c 0,78,79
 -10 -7 -10 -7 6 52.5 c 128,-1,80
 22 112 22 112 25 128 c 0,81,82
 51 258 51 258 51 443 c 2,83,-1
 51 474 l 1,20,-1
EndSplineSet
EndChar

StartChar: Ograve
Encoding: 210 210 146
Width: 469
GlyphClass: 2
Flags: W
LayerCount: 2
Fore
SplineSet
245 746 m 0,0,1
 294 746 294 746 338 715 c 0,2,3
 459 630 459 630 459 341 c 0,4,5
 459 215 459 215 408 102 c 0,6,7
 383 45 383 45 336 10 c 128,-1,8
 289 -25 289 -25 232.5 -25 c 128,-1,9
 176 -25 176 -25 136.5 -0.5 c 128,-1,10
 97 24 97 24 73.5 61 c 128,-1,11
 50 98 50 98 35 146 c 0,12,13
 10 227 10 227 10 305.5 c 128,-1,14
 10 384 10 384 21 450 c 128,-1,15
 32 516 32 516 56 586 c 128,-1,16
 80 656 80 656 129 701 c 128,-1,17
 178 746 178 746 245 746 c 0,0,1
256 624 m 0,18,19
 225 624 225 624 198.5 571 c 128,-1,20
 172 518 172 518 158.5 449 c 128,-1,21
 145 380 145 380 145 319 c 128,-1,22
 145 258 145 258 162.5 225 c 128,-1,23
 180 192 180 192 208 192 c 0,24,25
 251 192 251 192 282.5 267 c 128,-1,26
 314 342 314 342 314 483 c 128,-1,27
 314 624 314 624 256 624 c 0,18,19
183 828 m 0,28,29
 166 834 166 834 164 847 c 1,30,31
 164 865 164 865 180.5 884 c 128,-1,32
 197 903 197 903 212.5 903 c 128,-1,33
 228 903 228 903 248 881 c 0,34,35
 276 850 276 850 291 820 c 1,36,37
 305 797 305 797 305 785 c 128,-1,38
 305 773 305 773 294 773 c 0,39,40
 287 773 287 773 279 777 c 0,41,42
 214 818 214 818 183 828 c 0,28,29
EndSplineSet
EndChar

StartChar: Oacute
Encoding: 211 211 147
Width: 469
GlyphClass: 2
Flags: W
LayerCount: 2
Fore
SplineSet
245 746 m 0,0,1
 294 746 294 746 338 715 c 0,2,3
 459 630 459 630 459 341 c 0,4,5
 459 215 459 215 408 102 c 0,6,7
 383 45 383 45 336 10 c 128,-1,8
 289 -25 289 -25 232.5 -25 c 128,-1,9
 176 -25 176 -25 136.5 -0.5 c 128,-1,10
 97 24 97 24 73.5 61 c 128,-1,11
 50 98 50 98 35 146 c 0,12,13
 10 227 10 227 10 305.5 c 128,-1,14
 10 384 10 384 21 450 c 128,-1,15
 32 516 32 516 56 586 c 128,-1,16
 80 656 80 656 129 701 c 128,-1,17
 178 746 178 746 245 746 c 0,0,1
256 624 m 0,18,19
 225 624 225 624 198.5 571 c 128,-1,20
 172 518 172 518 158.5 449 c 128,-1,21
 145 380 145 380 145 319 c 128,-1,22
 145 258 145 258 162.5 225 c 128,-1,23
 180 192 180 192 208 192 c 0,24,25
 251 192 251 192 282.5 267 c 128,-1,26
 314 342 314 342 314 483 c 128,-1,27
 314 624 314 624 256 624 c 0,18,19
306 883 m 128,-1,29
 322 863 322 863 322 848.5 c 128,-1,30
 322 834 322 834 306 829 c 0,31,32
 276 820 276 820 224 788 c 1,33,-1
 207 777 l 1,34,35
 198 773 198 773 192 773 c 0,36,37
 181 773 181 773 181 790 c 128,-1,38
 181 807 181 807 215.5 855 c 128,-1,39
 250 903 250 903 274 903 c 0,40,28
 290 903 290 903 306 883 c 128,-1,29
EndSplineSet
EndChar

StartChar: Ocircumflex
Encoding: 212 212 148
Width: 469
GlyphClass: 2
Flags: W
LayerCount: 2
Fore
SplineSet
245 746 m 0,0,1
 294 746 294 746 338 715 c 0,2,3
 459 630 459 630 459 341 c 0,4,5
 459 215 459 215 408 102 c 0,6,7
 383 45 383 45 336 10 c 128,-1,8
 289 -25 289 -25 232.5 -25 c 128,-1,9
 176 -25 176 -25 136.5 -0.5 c 128,-1,10
 97 24 97 24 73.5 61 c 128,-1,11
 50 98 50 98 35 146 c 0,12,13
 10 227 10 227 10 305.5 c 128,-1,14
 10 384 10 384 21 450 c 128,-1,15
 32 516 32 516 56 586 c 128,-1,16
 80 656 80 656 129 701 c 128,-1,17
 178 746 178 746 245 746 c 0,0,1
256 624 m 0,18,19
 225 624 225 624 198.5 571 c 128,-1,20
 172 518 172 518 158.5 449 c 128,-1,21
 145 380 145 380 145 319 c 128,-1,22
 145 258 145 258 162.5 225 c 128,-1,23
 180 192 180 192 208 192 c 0,24,25
 251 192 251 192 282.5 267 c 128,-1,26
 314 342 314 342 314 483 c 128,-1,27
 314 624 314 624 256 624 c 0,18,19
330 761 m 0,28,29
 252 812 252 812 233 812 c 0,30,31
 227 812 227 812 178.5 784 c 128,-1,32
 130 756 130 756 124 756 c 0,33,34
 113 756 113 756 113 768.5 c 128,-1,35
 113 781 113 781 122 796.5 c 128,-1,36
 131 812 131 812 139 826 c 128,-1,37
 147 840 147 840 167.5 863.5 c 128,-1,38
 188 887 188 887 203 887 c 0,39,40
 204 887 204 887 204 887 c 2,41,42
 217 887 217 887 231 871 c 0,43,44
 233 869 233 869 234.5 869 c 128,-1,45
 236 869 236 869 240 874 c 0,46,47
 252 887 252 887 262 887 c 2,48,-1
 266 887 l 2,49,50
 281 887 281 887 300 866 c 128,-1,51
 319 845 319 845 331 824 c 2,52,-1
 343 803 l 2,53,54
 356 781 356 781 356 768.5 c 128,-1,55
 356 756 356 756 345 756 c 0,56,57
 338 756 338 756 330 761 c 0,28,29
EndSplineSet
EndChar

StartChar: Otilde
Encoding: 213 213 149
Width: 469
GlyphClass: 2
Flags: W
LayerCount: 2
Fore
SplineSet
381 768 m 0,0,1
 362 752 362 752 343 752 c 128,-1,2
 324 752 324 752 286 768 c 128,-1,3
 248 784 248 784 220 784 c 128,-1,4
 192 784 192 784 175.5 778.5 c 128,-1,5
 159 773 159 773 152 773 c 0,6,7
 135 773 135 773 135 793 c 128,-1,8
 135 813 135 813 168.5 839 c 128,-1,9
 202 865 202 865 246 865 c 0,10,11
 264 865 264 865 295.5 858 c 128,-1,12
 327 851 327 851 350 851 c 128,-1,13
 373 851 373 851 394 866 c 1,14,15
 403 871 403 871 413 871 c 0,16,17
 429 871 429 871 429 854 c 0,18,19
 429 809 429 809 381 768 c 0,0,1
245 746 m 0,20,21
 294 746 294 746 338 715 c 0,22,23
 459 630 459 630 459 341 c 0,24,25
 459 215 459 215 408 102 c 0,26,27
 383 45 383 45 336 10 c 128,-1,28
 289 -25 289 -25 232.5 -25 c 128,-1,29
 176 -25 176 -25 136.5 -0.5 c 128,-1,30
 97 24 97 24 73.5 61 c 128,-1,31
 50 98 50 98 35 146 c 0,32,33
 10 227 10 227 10 305.5 c 128,-1,34
 10 384 10 384 21 450 c 128,-1,35
 32 516 32 516 56 586 c 128,-1,36
 80 656 80 656 129 701 c 128,-1,37
 178 746 178 746 245 746 c 0,20,21
256 624 m 0,38,39
 225 624 225 624 198.5 571 c 128,-1,40
 172 518 172 518 158.5 449 c 128,-1,41
 145 380 145 380 145 319 c 128,-1,42
 145 258 145 258 162.5 225 c 128,-1,43
 180 192 180 192 208 192 c 0,44,45
 251 192 251 192 282.5 267 c 128,-1,46
 314 342 314 342 314 483 c 128,-1,47
 314 624 314 624 256 624 c 0,38,39
EndSplineSet
EndChar

StartChar: Odieresis
Encoding: 214 214 150
Width: 469
GlyphClass: 2
Flags: W
LayerCount: 2
Fore
SplineSet
245 746 m 0,0,1
 294 746 294 746 338 715 c 0,2,3
 459 630 459 630 459 341 c 0,4,5
 459 215 459 215 408 102 c 0,6,7
 383 45 383 45 336 10 c 128,-1,8
 289 -25 289 -25 232.5 -25 c 128,-1,9
 176 -25 176 -25 136.5 -0.5 c 128,-1,10
 97 24 97 24 73.5 61 c 128,-1,11
 50 98 50 98 35 146 c 0,12,13
 10 227 10 227 10 305.5 c 128,-1,14
 10 384 10 384 21 450 c 128,-1,15
 32 516 32 516 56 586 c 128,-1,16
 80 656 80 656 129 701 c 128,-1,17
 178 746 178 746 245 746 c 0,0,1
256 624 m 0,18,19
 225 624 225 624 198.5 571 c 128,-1,20
 172 518 172 518 158.5 449 c 128,-1,21
 145 380 145 380 145 319 c 128,-1,22
 145 258 145 258 162.5 225 c 128,-1,23
 180 192 180 192 208 192 c 0,24,25
 251 192 251 192 282.5 267 c 128,-1,26
 314 342 314 342 314 483 c 128,-1,27
 314 624 314 624 256 624 c 0,18,19
378 865 m 128,-1,29
 391 854 391 854 391 831.5 c 128,-1,30
 391 809 391 809 367.5 789.5 c 128,-1,31
 344 770 344 770 321.5 770 c 128,-1,32
 299 770 299 770 285.5 781.5 c 128,-1,33
 272 793 272 793 272 815 c 128,-1,34
 272 837 272 837 296 856.5 c 128,-1,35
 320 876 320 876 342.5 876 c 128,-1,28
 365 876 365 876 378 865 c 128,-1,29
197 865 m 128,-1,37
 210 854 210 854 210 831.5 c 128,-1,38
 210 809 210 809 186.5 789.5 c 128,-1,39
 163 770 163 770 140.5 770 c 128,-1,40
 118 770 118 770 104.5 781.5 c 128,-1,41
 91 793 91 793 91 815 c 128,-1,42
 91 837 91 837 115 856.5 c 128,-1,43
 139 876 139 876 161.5 876 c 128,-1,36
 184 876 184 876 197 865 c 128,-1,37
EndSplineSet
EndChar

StartChar: multiply
Encoding: 215 215 151
Width: 379
GlyphClass: 2
Flags: W
LayerCount: 2
Fore
SplineSet
138 348 m 1,0,1
 66 451 66 451 45 482.5 c 128,-1,2
 24 514 24 514 24 526 c 128,-1,3
 24 538 24 538 42 544.5 c 128,-1,4
 60 551 60 551 77 551 c 0,5,6
 111 551 111 551 123 528 c 0,7,8
 128 518 128 518 190 425 c 1,9,10
 251 514 251 514 258 528 c 1,11,12
 272 552 272 552 315.5 552 c 128,-1,13
 359 552 359 552 359 531 c 0,14,15
 359 524 359 524 352 514 c 2,16,-1
 241 349 l 1,17,-1
 363 171 l 2,18,19
 369 161 369 161 369 151 c 128,-1,20
 369 141 369 141 355.5 134.5 c 128,-1,21
 342 128 342 128 328 128 c 0,22,23
 291 128 291 128 272 152 c 1,24,25
 234 206 234 206 189 272 c 1,26,-1
 108 152 l 1,27,28
 89 128 89 128 49.5 128 c 128,-1,29
 10 128 10 128 10 153 c 0,30,31
 10 161 10 161 17 171 c 0,32,33
 77 259 77 259 138 348 c 1,0,1
EndSplineSet
EndChar

StartChar: Oslash
Encoding: 216 216 152
Width: 469
GlyphClass: 2
Flags: W
LayerCount: 2
Fore
SplineSet
43 1 m 1,0,1
 32 -24 32 -24 -2.5 -24 c 128,-1,2
 -37 -24 -37 -24 -37 -5 c 0,3,4
 -37 4 -37 4 -30 13 c 1,5,-1
 40 132 l 1,6,7
 10 215 10 215 10 322 c 0,8,9
 10 452 10 452 56 586 c 0,10,11
 80 656 80 656 129 701 c 128,-1,12
 178 746 178 746 245.5 746 c 128,-1,13
 313 746 313 746 367 689 c 1,14,-1
 393 733 l 2,15,16
 402 750 402 750 435.5 750 c 128,-1,17
 469 750 469 750 469 732 c 0,18,19
 469 727 469 727 466 721 c 2,20,-1
 410 625 l 1,21,22
 459 521 459 521 459 341 c 0,23,24
 459 215 459 215 408 102 c 0,25,26
 383 45 383 45 336 10 c 128,-1,27
 289 -25 289 -25 227 -25 c 0,28,29
 132 -25 132 -25 76 57 c 1,30,-1
 43 1 l 1,0,1
301 577 m 1,31,32
 286 624 286 624 255.5 624 c 128,-1,33
 225 624 225 624 198.5 571 c 128,-1,34
 172 518 172 518 158.5 449 c 128,-1,35
 145 380 145 380 145 320 c 2,36,-1
 145 311 l 1,37,-1
 301 577 l 1,31,32
208 192 m 0,38,39
 250 192 250 192 281.5 263.5 c 128,-1,40
 313 335 313 335 314 462 c 1,41,-1
 168 215 l 1,42,43
 184 192 184 192 208 192 c 0,38,39
EndSplineSet
EndChar

StartChar: Ugrave
Encoding: 217 217 153
Width: 453
GlyphClass: 2
Flags: W
LayerCount: 2
Fore
SplineSet
176 502 m 2,0,-1
 171 372 l 1,1,2
 171 228 171 228 221 228 c 0,3,4
 247 228 247 228 261 252 c 0,5,6
 278 282 278 282 281.5 308.5 c 128,-1,7
 285 335 285 335 287 352 c 128,-1,8
 289 369 289 369 290 395.5 c 128,-1,9
 291 422 291 422 291 439 c 2,10,-1
 291 483 l 2,11,12
 291 572 291 572 281 618 c 1,13,14
 277 627 277 627 277 641 c 0,15,16
 277 681 277 681 327 711.5 c 128,-1,17
 377 742 377 742 415 742 c 128,-1,18
 453 742 453 742 453 710 c 0,19,20
 453 702 453 702 446 667 c 128,-1,21
 439 632 439 632 433 570 c 128,-1,22
 427 508 427 508 426 463.5 c 128,-1,23
 425 419 425 419 424.5 354.5 c 128,-1,24
 424 290 424 290 422.5 234.5 c 128,-1,25
 421 179 421 179 403.5 127 c 128,-1,26
 386 75 386 75 362 47.5 c 128,-1,27
 338 20 338 20 306 4 c 0,28,29
 258 -21 258 -21 200.5 -21 c 128,-1,30
 143 -21 143 -21 100.5 14.5 c 128,-1,31
 58 50 58 50 42.5 99.5 c 128,-1,32
 27 149 27 149 27 210 c 1,33,-1
 32 445 l 1,34,-1
 32 496 l 1,35,-1
 31 551 l 2,36,37
 31 591 31 591 13 615 c 1,38,39
 1 627 1 627 1 643 c 0,40,41
 1 682 1 682 59 712 c 128,-1,42
 117 742 117 742 156 742 c 128,-1,43
 195 742 195 742 195 714 c 0,44,45
 195 712 195 712 191 676 c 0,46,47
 177 554 177 554 176 502 c 2,0,-1
170 813 m 0,48,49
 153 819 153 819 151 832 c 1,50,51
 151 850 151 850 167.5 869 c 128,-1,52
 184 888 184 888 199.5 888 c 128,-1,53
 215 888 215 888 235 866 c 0,54,55
 263 835 263 835 278 805 c 1,56,57
 292 782 292 782 292 770 c 128,-1,58
 292 758 292 758 281 758 c 0,59,60
 274 758 274 758 266 762 c 0,61,62
 201 803 201 803 170 813 c 0,48,49
EndSplineSet
EndChar

StartChar: Uacute
Encoding: 218 218 154
Width: 453
GlyphClass: 2
Flags: W
LayerCount: 2
Fore
SplineSet
176 502 m 2,0,-1
 171 372 l 1,1,2
 171 228 171 228 221 228 c 0,3,4
 247 228 247 228 261 252 c 0,5,6
 278 282 278 282 281.5 308.5 c 128,-1,7
 285 335 285 335 287 352 c 128,-1,8
 289 369 289 369 290 395.5 c 128,-1,9
 291 422 291 422 291 439 c 2,10,-1
 291 483 l 2,11,12
 291 572 291 572 281 618 c 1,13,14
 277 627 277 627 277 641 c 0,15,16
 277 681 277 681 327 711.5 c 128,-1,17
 377 742 377 742 415 742 c 128,-1,18
 453 742 453 742 453 710 c 0,19,20
 453 702 453 702 446 667 c 128,-1,21
 439 632 439 632 433 570 c 128,-1,22
 427 508 427 508 426 463.5 c 128,-1,23
 425 419 425 419 424.5 354.5 c 128,-1,24
 424 290 424 290 422.5 234.5 c 128,-1,25
 421 179 421 179 403.5 127 c 128,-1,26
 386 75 386 75 362 47.5 c 128,-1,27
 338 20 338 20 306 4 c 0,28,29
 258 -21 258 -21 200.5 -21 c 128,-1,30
 143 -21 143 -21 100.5 14.5 c 128,-1,31
 58 50 58 50 42.5 99.5 c 128,-1,32
 27 149 27 149 27 210 c 1,33,-1
 32 445 l 1,34,-1
 32 496 l 1,35,-1
 31 551 l 2,36,37
 31 591 31 591 13 615 c 1,38,39
 1 627 1 627 1 643 c 0,40,41
 1 682 1 682 59 712 c 128,-1,42
 117 742 117 742 156 742 c 128,-1,43
 195 742 195 742 195 714 c 0,44,45
 195 712 195 712 191 676 c 0,46,47
 177 554 177 554 176 502 c 2,0,-1
307 890 m 128,-1,49
 323 870 323 870 323 855.5 c 128,-1,50
 323 841 323 841 307 836 c 0,51,52
 277 827 277 827 225 794 c 1,53,-1
 208 784 l 1,54,55
 199 780 199 780 193 780 c 0,56,57
 182 780 182 780 182 797 c 128,-1,58
 182 814 182 814 216.5 862 c 128,-1,59
 251 910 251 910 275 910 c 0,60,48
 291 910 291 910 307 890 c 128,-1,49
EndSplineSet
EndChar

StartChar: Ucircumflex
Encoding: 219 219 155
Width: 453
GlyphClass: 2
Flags: W
LayerCount: 2
Fore
SplineSet
176 502 m 2,0,-1
 171 372 l 1,1,2
 171 228 171 228 221 228 c 0,3,4
 247 228 247 228 261 252 c 0,5,6
 278 282 278 282 281.5 308.5 c 128,-1,7
 285 335 285 335 287 352 c 128,-1,8
 289 369 289 369 290 395.5 c 128,-1,9
 291 422 291 422 291 439 c 2,10,-1
 291 483 l 2,11,12
 291 572 291 572 281 618 c 1,13,14
 277 627 277 627 277 641 c 0,15,16
 277 681 277 681 327 711.5 c 128,-1,17
 377 742 377 742 415 742 c 128,-1,18
 453 742 453 742 453 710 c 0,19,20
 453 702 453 702 446 667 c 128,-1,21
 439 632 439 632 433 570 c 128,-1,22
 427 508 427 508 426 463.5 c 128,-1,23
 425 419 425 419 424.5 354.5 c 128,-1,24
 424 290 424 290 422.5 234.5 c 128,-1,25
 421 179 421 179 403.5 127 c 128,-1,26
 386 75 386 75 362 47.5 c 128,-1,27
 338 20 338 20 306 4 c 0,28,29
 258 -21 258 -21 200.5 -21 c 128,-1,30
 143 -21 143 -21 100.5 14.5 c 128,-1,31
 58 50 58 50 42.5 99.5 c 128,-1,32
 27 149 27 149 27 210 c 1,33,-1
 32 445 l 1,34,-1
 32 496 l 1,35,-1
 31 551 l 2,36,37
 31 591 31 591 13 615 c 1,38,39
 1 627 1 627 1 643 c 0,40,41
 1 682 1 682 59 712 c 128,-1,42
 117 742 117 742 156 742 c 128,-1,43
 195 742 195 742 195 714 c 0,44,45
 195 712 195 712 191 676 c 0,46,47
 177 554 177 554 176 502 c 2,0,-1
335 774 m 0,48,49
 257 825 257 825 238 825 c 0,50,51
 232 825 232 825 184 797 c 128,-1,52
 136 769 136 769 129 769 c 0,53,54
 118 769 118 769 118 781.5 c 128,-1,55
 118 794 118 794 127 809.5 c 128,-1,56
 136 825 136 825 144 839 c 128,-1,57
 152 853 152 853 172.5 876.5 c 128,-1,58
 193 900 193 900 208 900 c 0,59,60
 209 900 209 900 209 900 c 2,61,62
 222 900 222 900 236 884 c 0,63,64
 238 882 238 882 239.5 882 c 128,-1,65
 241 882 241 882 246 887 c 0,66,67
 257 900 257 900 268 900 c 2,68,-1
 271 900 l 2,69,70
 286 900 286 900 305 879 c 128,-1,71
 324 858 324 858 336 837 c 2,72,-1
 348 816 l 2,73,74
 361 794 361 794 361 781.5 c 128,-1,75
 361 769 361 769 350 769 c 0,76,77
 342 769 342 769 335 774 c 0,48,49
EndSplineSet
EndChar

StartChar: Udieresis
Encoding: 220 220 156
Width: 453
GlyphClass: 2
Flags: W
LayerCount: 2
Fore
SplineSet
176 502 m 2,0,-1
 171 372 l 1,1,2
 171 228 171 228 221 228 c 0,3,4
 247 228 247 228 261 252 c 0,5,6
 278 282 278 282 281.5 308.5 c 128,-1,7
 285 335 285 335 287 352 c 128,-1,8
 289 369 289 369 290 395.5 c 128,-1,9
 291 422 291 422 291 439 c 2,10,-1
 291 483 l 2,11,12
 291 572 291 572 281 618 c 1,13,14
 277 627 277 627 277 641 c 0,15,16
 277 681 277 681 327 711.5 c 128,-1,17
 377 742 377 742 415 742 c 128,-1,18
 453 742 453 742 453 710 c 0,19,20
 453 702 453 702 446 667 c 128,-1,21
 439 632 439 632 433 570 c 128,-1,22
 427 508 427 508 426 463.5 c 128,-1,23
 425 419 425 419 424.5 354.5 c 128,-1,24
 424 290 424 290 422.5 234.5 c 128,-1,25
 421 179 421 179 403.5 127 c 128,-1,26
 386 75 386 75 362 47.5 c 128,-1,27
 338 20 338 20 306 4 c 0,28,29
 258 -21 258 -21 200.5 -21 c 128,-1,30
 143 -21 143 -21 100.5 14.5 c 128,-1,31
 58 50 58 50 42.5 99.5 c 128,-1,32
 27 149 27 149 27 210 c 1,33,-1
 32 445 l 1,34,-1
 32 496 l 1,35,-1
 31 551 l 2,36,37
 31 591 31 591 13 615 c 1,38,39
 1 627 1 627 1 643 c 0,40,41
 1 682 1 682 59 712 c 128,-1,42
 117 742 117 742 156 742 c 128,-1,43
 195 742 195 742 195 714 c 0,44,45
 195 712 195 712 191 676 c 0,46,47
 177 554 177 554 176 502 c 2,0,-1
370 870 m 128,-1,49
 383 859 383 859 383 836.5 c 128,-1,50
 383 814 383 814 359.5 794.5 c 128,-1,51
 336 775 336 775 313.5 775 c 128,-1,52
 291 775 291 775 277.5 786.5 c 128,-1,53
 264 798 264 798 264 820 c 128,-1,54
 264 842 264 842 288 861.5 c 128,-1,55
 312 881 312 881 334.5 881 c 128,-1,48
 357 881 357 881 370 870 c 128,-1,49
189 870 m 128,-1,57
 202 859 202 859 202 836.5 c 128,-1,58
 202 814 202 814 178.5 794.5 c 128,-1,59
 155 775 155 775 132.5 775 c 128,-1,60
 110 775 110 775 96.5 786.5 c 128,-1,61
 83 798 83 798 83 820 c 128,-1,62
 83 842 83 842 107 861.5 c 128,-1,63
 131 881 131 881 153.5 881 c 128,-1,56
 176 881 176 881 189 870 c 128,-1,57
EndSplineSet
EndChar

StartChar: Yacute
Encoding: 221 221 157
Width: 289
GlyphClass: 2
Flags: W
LayerCount: 2
Fore
SplineSet
251 658 m 1,0,-1
 247 685 l 1,1,2
 247 708 247 708 279 729.5 c 128,-1,3
 311 751 311 751 375 751 c 0,4,5
 422 751 422 751 422 724 c 0,6,7
 422 712 422 712 413 689.5 c 128,-1,8
 404 667 404 667 322.5 512 c 128,-1,9
 241 357 241 357 231 329 c 0,10,11
 214 281 214 281 211 232 c 2,12,-1
 210 215 l 1,13,14
 214 72 214 72 216.5 62 c 128,-1,15
 219 52 219 52 219 44 c 0,16,17
 219 20 219 20 196 1 c 1,18,19
 148 -36 148 -36 66 -36 c 0,20,21
 32 -36 32 -36 32 -4 c 1,22,-1
 35 16 l 2,23,24
 36 21 36 21 42 48 c 128,-1,25
 48 75 48 75 50.5 88 c 128,-1,26
 53 101 53 101 56 129 c 0,27,28
 64 189 64 189 64 240 c 0,29,30
 64 316 64 316 58 342 c 1,31,32
 26 446 26 446 -2 521 c 1,33,-1
 -12 546 l 1,34,35
 -29 596 -29 596 -64 623 c 1,36,37
 -83 639 -83 639 -83 658 c 0,38,39
 -83 694 -83 694 -30.5 718 c 128,-1,40
 22 742 22 742 62 742 c 128,-1,41
 102 742 102 742 110 709 c 0,42,43
 113 698 113 698 124 650 c 0,44,45
 149 534 149 534 171 482 c 0,46,47
 174 474 174 474 178 474 c 128,-1,48
 182 474 182 474 188 481 c 1,49,50
 207 510 207 510 229 568.5 c 128,-1,51
 251 627 251 627 251 658 c 1,0,-1
264 895 m 128,-1,53
 280 875 280 875 280 860.5 c 128,-1,54
 280 846 280 846 264 841 c 0,55,56
 234 832 234 832 182 800 c 1,57,-1
 165 789 l 1,58,59
 156 785 156 785 150 785 c 0,60,61
 139 785 139 785 139 802 c 128,-1,62
 139 819 139 819 173.5 867 c 128,-1,63
 208 915 208 915 232 915 c 0,64,52
 248 915 248 915 264 895 c 128,-1,53
EndSplineSet
EndChar

StartChar: Thorn
Encoding: 222 222 158
Width: 388
GlyphClass: 2
Flags: W
LayerCount: 2
Fore
SplineSet
174 149 m 1,0,1
 180 92 180 92 183.5 77 c 128,-1,2
 187 62 187 62 187 54 c 0,3,4
 187 18 187 18 137.5 -6 c 128,-1,5
 88 -30 88 -30 50.5 -30 c 128,-1,6
 13 -30 13 -30 13 6 c 1,7,-1
 15 22 l 1,8,9
 39 200 39 200 39 391 c 0,10,11
 39 485 39 485 34 528 c 2,12,-1
 32 546 l 1,13,14
 30 582 30 582 8 610 c 1,15,16
 -3 621 -3 621 -3 637 c 0,17,18
 -3 673 -3 673 52.5 703.5 c 128,-1,19
 108 734 108 734 140.5 734 c 128,-1,20
 173 734 173 734 175 701 c 0,21,22
 176 689 176 689 176 666 c 128,-1,23
 176 643 176 643 175 628 c 1,24,25
 184 629 184 629 214 629 c 128,-1,26
 244 629 244 629 279.5 621 c 128,-1,27
 315 613 315 613 350 594 c 128,-1,28
 385 575 385 575 406 537.5 c 128,-1,29
 427 500 427 500 427 445.5 c 128,-1,30
 427 391 427 391 405 341 c 128,-1,31
 383 291 383 291 353.5 260 c 128,-1,32
 324 229 324 229 284 204 c 1,33,34
 223 164 223 164 174 149 c 1,0,1
171 262 m 1,35,36
 180 262 180 262 192 270 c 0,37,38
 223 290 223 290 241 335 c 0,39,40
 265 395 265 395 265 430.5 c 128,-1,41
 265 466 265 466 260.5 483.5 c 128,-1,42
 256 501 256 501 250 509.5 c 128,-1,43
 244 518 244 518 236 523 c 0,44,45
 225 530 225 530 215 530 c 0,46,47
 184 530 184 530 169 491 c 1,48,49
 169 346 169 346 171 262 c 1,35,36
EndSplineSet
EndChar

StartChar: germandbls
Encoding: 223 223 159
Width: 473
GlyphClass: 2
Flags: W
LayerCount: 2
Fore
SplineSet
167 458 m 1,0,-1
 170 286 l 1,1,-1
 166 82 l 2,2,3
 166 45 166 45 143 21 c 0,4,5
 105 -19 105 -19 27 -19 c 0,6,7
 -6 -19 -6 -19 -6 8 c 0,8,9
 -6 17 -6 17 -1 32 c 128,-1,10
 4 47 4 47 14 110 c 0,11,12
 43 291 43 291 43 453 c 0,13,14
 43 526 43 526 33 575 c 1,15,16
 29 585 29 585 29 600 c 0,17,18
 29 645 29 645 75 673 c 0,19,20
 108 693 108 693 167 708.5 c 128,-1,21
 226 724 226 724 268 724 c 128,-1,22
 310 724 310 724 339.5 719 c 128,-1,23
 369 714 369 714 398 702.5 c 128,-1,24
 427 691 427 691 444 667.5 c 128,-1,25
 461 644 461 644 461 611 c 0,26,27
 461 548 461 548 398 494 c 1,28,29
 334 442 334 442 334 411 c 0,30,31
 334 388 334 388 362 363 c 1,32,33
 424 316 424 316 448 250 c 0,34,35
 459 222 459 222 459 180 c 128,-1,36
 459 138 459 138 443 97 c 128,-1,37
 427 56 427 56 404 38 c 1,38,39
 358 -1 358 -1 321 -3 c 2,40,-1
 305 -4 l 1,41,42
 244 -4 244 -4 224 29 c 0,43,44
 208 56 208 56 208 83.5 c 128,-1,45
 208 111 208 111 219.5 130.5 c 128,-1,46
 231 150 231 150 254 150 c 1,47,48
 278 153 278 153 292.5 168.5 c 128,-1,49
 307 184 307 184 310 198 c 2,50,-1
 312 212 l 1,51,52
 312 240 312 240 297 267 c 128,-1,53
 282 294 282 294 266 308 c 2,54,-1
 251 321 l 1,55,56
 210 351 210 351 210 385.5 c 128,-1,57
 210 420 210 420 255 465 c 1,58,59
 310 531 310 531 310 574 c 0,60,61
 310 601 310 601 294.5 618.5 c 128,-1,62
 279 636 279 636 255.5 636 c 128,-1,63
 232 636 232 636 215 625.5 c 128,-1,64
 198 615 198 615 192 604 c 2,65,-1
 186 594 l 2,66,67
 167 562 167 562 167 458 c 1,0,-1
EndSplineSet
EndChar

StartChar: agrave
Encoding: 224 224 160
Width: 389
GlyphClass: 2
Flags: W
LayerCount: 2
Fore
SplineSet
143 162 m 0,0,1
 143 120 143 120 173 120 c 128,-1,2
 203 120 203 120 221.5 151 c 128,-1,3
 240 182 240 182 240 206 c 0,4,5
 240 251 240 251 208 251 c 0,6,7
 179 251 179 251 161 222 c 128,-1,8
 143 193 143 193 143 162 c 0,0,1
358 321 m 1,9,-1
 355 182 l 1,10,11
 355 99 355 99 376 86 c 1,12,13
 389 76 389 76 389 60 c 0,14,15
 389 31 389 31 350.5 6 c 128,-1,16
 312 -19 312 -19 272 -19 c 0,17,18
 252 -19 252 -19 242 -10.5 c 128,-1,19
 232 -2 232 -2 232 8 c 0,20,21
 232 35 232 35 225 35 c 0,22,23
 224 35 224 35 212.5 23.5 c 128,-1,24
 201 12 201 12 178.5 0.5 c 128,-1,25
 156 -11 156 -11 121.5 -11 c 128,-1,26
 87 -11 87 -11 60.5 6 c 128,-1,27
 34 23 34 23 24 50 c 0,28,29
 6 95 6 95 6 134 c 128,-1,30
 6 173 6 173 18 207 c 128,-1,31
 30 241 30 241 48 262 c 128,-1,32
 66 283 66 283 90 299.5 c 128,-1,33
 114 316 114 316 135 323.5 c 128,-1,34
 156 331 156 331 178 336 c 0,35,36
 209 342 209 342 221 342 c 1,37,-1
 231 355 l 1,38,39
 230 389 230 389 181.5 389 c 128,-1,40
 133 389 133 389 102 370 c 0,41,42
 90 362 90 362 78 362 c 0,43,44
 54 362 54 362 54 398 c 0,45,46
 54 491 54 491 202 491 c 0,47,48
 316 491 316 491 345 415 c 0,49,50
 358 381 358 381 358 321 c 1,9,-1
143 600 m 0,51,52
 126 606 126 606 124 619 c 1,53,54
 124 636 124 636 140.5 655.5 c 128,-1,55
 157 675 157 675 172.5 675 c 128,-1,56
 188 675 188 675 208 653 c 0,57,58
 236 622 236 622 251 592 c 1,59,60
 265 569 265 569 265 557 c 128,-1,61
 265 545 265 545 254 545 c 0,62,63
 247 545 247 545 239 549 c 0,64,65
 174 590 174 590 143 600 c 0,51,52
EndSplineSet
EndChar

